<?xml version="1.0" encoding="utf-8"?>
<!-- Generator: Adobe Illustrator 24.0.0, SVG Export Plug-In . SVG Version: 6.00 Build 0)  -->
<svg version="1.1" id="Capa_1" xmlns="http://www.w3.org/2000/svg" xmlns:xlink="http://www.w3.org/1999/xlink" x="0px" y="0px"
	 viewBox="0 0 232.6 247.9" style="enable-background:new 0 0 232.6 247.9;" xml:space="preserve">
<style type="text/css">
	.st0{fill:#FFFFFF;}
</style>
<g>
	<g id="XMLID_37_">
		<path id="XMLID_45_" class="st0" d="M113,87.8c0,0.3-0.5,0.2-0.4-0.1C112.6,87.4,113.1,87.5,113,87.8z"/>
		<path class="st0" d="M144.1,56C144.1,56,144.1,56,144.1,56c-0.5-1.9-1.5-3.7-3-5.1c-1.7-1.5-3.7-1.7-5.9-1.7c0,0,0,0,0,0
			c-0.5-0.4-1-0.8-1.5-1.2l0,0c-0.5-2.6-1.5-5.1-2.8-7.5c0.3,0.1,0.6,0.3,0.9,0.5v0c-0.1,1.1,0.4,2.1,1.5,2.5
			c0.8,0.3,1.9,0.2,2.8,0.4c1,0.1,2,0.4,2.9,0.8h0l0,0c0.2,0.1,0.4-0.3,0.2-0.4l0,0c-0.7-1.6-1.4-3.6-3.2-4.4
			c-1.3-0.6-2.9-0.4-4,0.5c0,0,0,0,0,0s-0.1,0-0.1,0c-0.4-0.2-0.9-0.5-1.4-0.7c-0.4-0.9-0.9-1.8-1.4-2.6c-0.3-0.6-0.7-1.2-1.1-1.8
			l0,0c0-0.1,0-0.1-0.1-0.1c0-0.1-0.1-0.2-0.2-0.2c-0.1,0.1-0.2,0.2-0.4,0.3c0.1,0.1,0.2,0.2,0.3,0.4c0,0.5,0,1-0.2,1.5
			c0,0,0,0.1,0,0.1h0c-0.1,0-0.1,0-0.2,0.1c-1.3,0.1-1.9,1.3-2.3,2.5c-0.4,1.5,0.5,3.5,0.9,4.9c0,0.1,0.1,0.1,0.2,0.1
			c0.1,0,0.2,0,0.2-0.1c0.1-1.7,1.9-2.9,2.2-4.6c0.2-1-0.1-2.1-0.9-2.8c0.1,0,0.2,0,0.2-0.1c0.1-0.3,0.1-0.6,0.2-1
			c0.5,0.8,1,1.6,1.5,2.5c1.9,3.5,3.6,7.1,4.1,11.2c0.1,1.1,0.2,2.2,0.3,3.4c-0.1,0-0.2,0-0.2,0c-0.2,0.3-0.5,0.5-0.9,0.7h0
			c-1.3-0.2-2.3-1.1-3.7-1.2c-1.3-0.1-2.6,0.2-3.9,0.2c-0.3,0-0.2,0.4,0,0.4h0c1.5,0.6,2.6,1.9,4.2,2.2c1.3,0.2,2.5-0.1,3.4-1.1
			c0,0,0,0,0,0c0.5-0.1,0.9-0.4,1.2-0.8c0.1,2.1,0,4.2-0.3,6.3c0,0-0.1,0-0.2,0c-0.5,0.4-1.1,0.7-1.7,0.8c-0.5,0.1-1.1,0.1-1.6,0.3
			c0,0,0,0,0,0c-1.8-0.9-3.9-0.7-5.3,0.7c-0.8,0.7-1.1,1.7-1.4,2.7c-0.3,1.2-0.7,2.5-1.3,3.6l0,0c0,0-0.1,0.1-0.1,0.1
			c0,0.1-0.1,0.3-0.2,0.4l0,0c-0.1,0.2,0,0.5,0.2,0.3c1-0.8,2.1-1.5,3.3-2c0.8-0.3,1.8-0.5,2.5-1c1.7-1,2.2-2.9,2.7-4.7c0,0,0,0,0,0
			c0.5-0.1,1-0.1,1.6-0.3s1-0.4,1.5-0.8c-0.1,0.6-0.2,1.1-0.3,1.7c-0.7,2.9-1.8,5.7-3.2,8.2c-2.6,2.2-6,2.6-9.3,2.9
			c0-0.1,0-0.1-0.1-0.2c-1.2-0.8-2.5-1.6-4-1.4c-1.4,0.1-2.7,1.2-3.8,2c-0.2,0.1,0,0.4,0.2,0.4c1.9-0.4,3.3,1.3,5.2,1.3
			c1.1,0,1.9-0.7,2.4-1.6c1.1-0.1,2.2-0.2,3.4-0.4c-0.1,0.2-0.2,0.4-0.3,0.7c-2,1.5-6,1.8-6.1,5c-0.1,0.1,0,0.2,0,0.3
			c0.1,0.1,0.2,0.1,0.3,0c1.5-0.7,3.3-0.5,4.6-1.6c0.5-0.4,1.1-1,1.3-1.8c0.2-0.8-0.1-1.8,0.6-2.5c0,0,0.1-0.1,0-0.2
			c1.7-0.3,3.3-0.9,4.8-1.9c-2.5,4.1-5.8,7.8-9.3,11.1c-0.4-0.5-1.3-0.4-1.8-0.5c-1-0.1-2.1-0.4-3.1-0.1c-1.3,0.4-1.9,1.5-1,2.3
			c-0.4,0-0.9,0-1.4,0c-0.1-0.2-0.2-0.4-0.5-0.5c-0.3,0-0.6,0.2-0.6,0.5s0.1,0.7,0.4,0.7c0.2,0,0.5-0.1,0.6-0.3l0,0
			c0.5,0,1.1,0,1.6-0.1c-0.6,0.6-1.2,1.7-0.5,2.4c0.4,0.5,1.1,0.4,1.7,0.2c-0.3,0.4-0.6,0.8-0.9,1.2c-0.2,0-0.4,0-0.5,0.1
			c-0.2,0.2-0.3,0.5-0.2,0.8c0.1,0.3,0.5,0.4,0.8,0.2c0.2-0.1,0.4-0.5,0.3-0.7c0,0,0-0.1-0.1-0.1l0,0c0.3-0.4,0.7-0.9,1-1.3
			c0,0.5,0.2,1.1,0.7,1.4c0.7,0.5,1.4,0,1.9-0.6c0.8-0.8,1.3-2,1.5-3.1c0.1-0.6,0.5-1.4,0.2-2.1c2.5-2.4,5-5,7.1-7.8
			c-0.1,0.5-0.2,1.1-0.3,1.7c0,0.9,0.2,1.9,0.1,2.8c0,0,0,0.1,0,0.1c0,0.1,0,0.2,0,0.3c0,0,0,0,0,0c-1.1,0.9-1.9,2.2-2.1,3.7
			c-0.2,2.2,1,4.4,0.2,6.6c0,0,0,0,0,0.1v0c-0.1,0.2,0.3,0.4,0.4,0.2c0,0,0,0,0-0.1c1.5-1.3,3.1-2.9,3.4-5c0.1-0.9,0-1.8-0.2-2.7
			c-0.3-1.1-1.2-2.1-1.2-3.2c0,0,0-0.1,0-0.1c0-0.7-0.1-1.5-0.2-2.2c0-1,0.2-2,0.5-2.9c0,0,0-0.1,0-0.1c0.5-0.7,1-1.4,1.5-2.2
			c0.3-0.4,0.5-0.9,0.8-1.4c0,0,0,0,0.1,0c0,0,0.1-0.1,0-0.2c0.9-1.7,1.7-3.6,2.3-5.5c0.2,1.4,0.7,2.8,1.2,4.2c0,0,0,0,0,0
			c-3.6,3.1,1,7.7,2.4,10.8v0c0,0.1,0,0.2,0.1,0.2c0.1,0.1,0.4,0,0.3-0.2c0,0,0-0.1,0-0.1c0.2-1.4,0.4-2.9,0.6-4.4
			c0.1-1.1,0.3-2.2,0.3-3.2c-0.1-1.9-1.4-3.3-3.4-3.3c-0.5-1.4-1.1-2.9-1.3-4.5c0-0.1-0.1-0.1-0.1-0.2c0.9-3,1.3-6.1,1.4-9.2
			c0.1,0.2,0.3,0.3,0.4,0.4c0.4,0.4,0.7,0.9,1.1,1.3l0,0c-0.5,1.7-0.9,3.7,0.3,5.2c0.7,0.8,1.6,1.5,2.4,2.3c1,0.9,2,1.8,3,2.7
			c0.2,0.2,0.4,0,0.3-0.2c0,0,0-0.1,0-0.1c0-2.4,0.2-5.1-0.8-7.4c-0.9-1.8-2.7-3.1-4.8-2.7h0c-0.3-0.3-0.6-0.7-0.9-1.1
			c-0.1-0.2-0.3-0.4-0.5-0.6c-0.1-0.1-0.3-0.3-0.4-0.5c0-0.1,0-0.2-0.1-0.3c0-1.8-0.2-3.6-0.5-5.4c0.4,0.4,0.9,0.7,1.3,1.1
			c0,1.5,0.9,2.8,2.2,3.6c1.9,1.3,4.7,1.2,6.4,2.9v0c0,0.2,0.5,0.1,0.4-0.1C144.2,56.1,144.2,56,144.1,56z M136.7,40.8
			c0.8,0.7,1.3,1.7,1.7,2.7c-0.6-0.8-1.4-1.4-2.3-1.8c-1.1-0.5-2.3-0.7-3.5-1.1C133.8,39.7,135.5,39.8,136.7,40.8z M132.2,40.9
			C132.3,40.9,132.3,40.8,132.2,40.9c1.1,0.3,2.3,0.5,3.4,1c1.1,0.4,2,1.1,2.7,2c-0.9-0.3-1.8-0.5-2.7-0.6
			C133.9,43.1,132.1,43,132.2,40.9z M125.8,43.6c-0.2-0.7-0.4-1.5-0.6-2.3c-0.2-1.2,0.1-3.3,1.6-3.6c-0.4,0.7-0.8,1.5-0.8,2.3
			c0,0.5,0.1,1.1,0.1,1.7C126.1,42.3,126,43,125.8,43.6z M126.4,42.9c0.1-0.6,0.1-1.3,0-2c-0.1-1.2,0.3-2.2,0.8-3.2
			C129.1,39.3,127.4,41.1,126.4,42.9z M128.8,53c1.1,0.1,2,0.7,2.9,1c-0.5,0.1-1.1,0.2-1.6,0.1c-0.5-0.1-1-0.3-1.5-0.5
			c-0.6-0.2-1.3-0.4-2-0.6C127.4,53,128.1,53,128.8,53z M128,54.5c-0.6-0.3-1.1-0.7-1.6-1c1,0.2,1.9,0.5,2.9,0.9
			c1,0.3,1.7,0.3,2.7,0.1C130.8,55.4,129.2,55.3,128,54.5z M123,66.5c0.3-1,0.5-2.1,0.9-3.1c1-2.2,3.5-3,5.7-1.9
			c-1.5,0.8-3.2,1.3-4.4,2.5c-1,1-1.6,2.4-2.6,3.5C122.7,67.1,122.8,66.8,123,66.5z M126.2,66.2c-1.2,0.4-2.4,1-3.5,1.7
			c0.9-0.9,1.5-2.2,2.4-3.3c1.2-1.4,3.1-2,4.7-2.8C129.2,63.8,128.4,65.4,126.2,66.2z M116.3,72c1.3-0.2,2.5,0.4,3.6,1.1
			c-0.7,0.1-1.5,0.2-2.3,0.1c-0.6-0.1-1.1-0.3-1.7-0.3c-0.6,0-1.1,0-1.7,0.1C114.8,72.6,115.5,72.2,116.3,72z M117.8,74.8
			c-0.7-0.1-1.4-0.5-2.1-0.8c-0.6-0.2-1.2-0.4-1.8-0.5c0.4-0.1,0.7-0.2,1.1-0.2c0.7,0,1.3,0.1,2,0.3c1,0.2,2,0.2,3,0
			C119.6,74.3,118.8,75,117.8,74.8z M123.2,74.7c-0.4,1.2-2,1.7-3.1,2.2c-0.8,0.4-1.6,0.8-2.2,1.5C118.4,76.2,121.3,75.7,123.2,74.7
			z M123.3,75.9c-0.2,0.5-0.7,0.9-1.1,1.3c-0.8,0.6-1.7,0.6-2.6,0.9c-0.4,0.1-0.7,0.2-1.1,0.3c0.9-0.8,2-1.3,3.1-1.8
			c0.8-0.4,1.5-0.8,1.9-1.5C123.4,75.3,123.4,75.6,123.3,75.9z M112,84.4c0,0.1-0.1,0-0.1,0c0-0.1,0-0.2,0-0.3c0-0.1,0.1-0.1,0.2,0
			c0,0,0.1,0.1,0.1,0.2C112.1,84.3,112,84.3,112,84.4z M114,89c-0.1-0.1,0.1-0.5,0.2-0.3l0,0c0,0,0,0,0,0.1
			C114.4,89.1,114.1,89.2,114,89z M114.9,82.2c0.6-0.2,1.2-0.2,1.8-0.1c0.4,0,1.7,0.1,2.4,0.3c-1.5,0.3-3.3,0.6-4.5,1.5
			c-0.2-0.1-0.4-0.2-0.5-0.3C114,82.8,114.3,82.4,114.9,82.2z M113.9,85.5c0.6-1.9,3.9-2.4,5.7-2.7c0,0,0,0.1,0,0.1
			c-0.4,1.2-1.3,2-2.4,2.7c-0.5,0.3-1,0.5-1.5,0.8C114.9,86.7,113.3,87.3,113.9,85.5z M118.9,86.4c-0.2,0.5-0.5,1-0.9,1.3
			c-0.5,0.6-1.1,0.6-1.8-0.1c-0.1-0.3-0.1-0.7-0.1-1c0.2-0.1,0.5-0.2,0.6-0.3c1.2-0.6,2.3-1.5,3-2.7C119.7,84.5,119.1,86,118.9,86.4
			z M125.6,86.1c-0.3-2-0.1-3.9,1.4-5.3c-0.2,1.3-0.1,2.6-0.1,3.9c0,1.6-0.3,3-0.9,4.5C126,88.2,125.8,87.2,125.6,86.1z M128.7,84.9
			c0,1.8-1.2,3.3-2.5,4.6c0.6-1.2,1-2.5,1-3.9c0-1.6-0.2-3.2,0.1-4.7c0.1,0.3,0.2,0.5,0.4,0.8C128.3,82.7,128.7,83.8,128.7,84.9z
			 M134.4,69.2c2.7,0,3.1,2.6,2.8,4.7c-0.2,1.5-0.4,3.1-0.7,4.6C136.2,75.4,134.8,72.4,134.4,69.2z M136.1,78.6
			c-1.6-2.8-4.7-6.5-2.1-9.1C134.5,72.6,135.9,75.4,136.1,78.6z M141.1,60.5c0.5,1.7,0.4,3.5,0.4,5.3c-0.6-1.5-1.1-3.2-2-4.6
			c-0.4-0.7-0.9-1.4-1.4-2.1c-0.6-0.7-1.3-1.2-1.6-2.1C138.8,56.6,140.5,58.4,141.1,60.5z M137,58.5c0.7,0.7,1.3,1.4,1.9,2.3
			c1.1,1.6,1.7,3.5,2.4,5.3c-1.3-1.2-2.6-2.4-4-3.7c-1.7-1.5-1.6-3.2-1.1-5.2C136.3,57.7,136.6,58.1,137,58.5z M135.5,49.9
			C135.6,49.9,135.6,49.9,135.5,49.9c1.1,0.8,2.4,1.3,3.6,1.9c1.5,0.8,2.6,2,3.8,3.2C140.2,53.6,135.8,53.6,135.5,49.9z M139.8,51.8
			c-1.3-0.7-2.8-1.2-4-2.2c2,0,3.7,0.3,5.2,1.8c1,1,1.7,2.2,2.2,3.6C142.3,53.9,141.3,52.7,139.8,51.8z"/>
		<path id="XMLID_44_" class="st0" d="M119,83.1c0.2-0.1,0.4,0.1,0.2,0.3c-1.4,1.1-3,2-4.7,2.6c-0.2,0.1-0.3-0.2-0.1-0.3
			C116.1,85,117.6,84.2,119,83.1z"/>
		<path id="XMLID_43_" class="st0" d="M117.3,86.7c0.8-0.5,1.4-1.2,1.8-2.1c0.1-0.2,0.4,0,0.3,0.1c-0.4,0.9-1.1,1.7-1.9,2.2
			C117.3,87.1,117.1,86.8,117.3,86.7z"/>
		<path id="XMLID_42_" class="st0" d="M117.7,82.6c-0.7-0.1-1.5,0.1-2.2,0.3c-0.2,0-0.3-0.3-0.1-0.3c0.8-0.1,1.6-0.4,2.4-0.3
			C118,82.3,117.9,82.6,117.7,82.6z"/>
		<path id="XMLID_41_" class="st0" d="M121.9,90.4c-0.4,2.1-3.7,1.4-3.2-0.7C119.1,87.7,122.3,88.3,121.9,90.4z"/>
		<path id="XMLID_40_" class="st0" d="M111.4,88c-0.1,0.5-0.7,0.9-1.2,0.8s-0.9-0.6-0.8-1.2c0.1-0.5,0.7-0.9,1.2-0.8
			C111.1,86.9,111.5,87.4,111.4,88z"/>
		<path id="XMLID_39_" class="st0" d="M115.9,79.1c-0.4,1.8-3.1,1.2-2.8-0.6C113.5,76.7,116.3,77.3,115.9,79.1z"/>
		<path id="XMLID_38_" class="st0" d="M119.5,68.5c-0.1,0.6-0.8,1.1-1.5,0.9c-0.6-0.1-1.1-0.8-0.9-1.5c0.1-0.6,0.8-1.1,1.5-0.9
			C119.2,67.2,119.6,67.8,119.5,68.5z"/>
	</g>
	<g id="XMLID_1_">
		<path id="XMLID_36_" class="st0" d="M84.9,73.5c0.1-0.2,0.4,0,0.3,0.1C85.1,73.9,84.8,73.7,84.9,73.5z"/>
		<path id="XMLID_35_" class="st0" d="M78.9,76.5c-0.2,0.1-0.3-0.2-0.1-0.3c1.4-0.7,2.9-1.2,4.4-1.4c0.2,0,0.2,0.3,0,0.3
			C81.8,75.3,80.3,75.8,78.9,76.5z"/>
		<path id="XMLID_34_" class="st0" d="M81,73.7c-0.7,0.3-1.4,0.8-1.9,1.5c-0.1,0.1-0.3,0-0.2-0.2c0.5-0.7,1.2-1.2,2-1.6
			C81.1,73.3,81.2,73.6,81,73.7z"/>
		<path id="XMLID_33_" class="st0" d="M80,77.2c0.6,0.2,1.3,0.1,1.9,0.1c0.2,0,0.2,0.3,0,0.3c-0.7,0-1.4,0.1-2.1-0.1
			C79.7,77.4,79.8,77.1,80,77.2z"/>
		<path id="XMLID_32_" class="st0" d="M80.4,70.9c-0.7,1.7-3.4,0.5-2.6-1.1C78.5,68.1,81.1,69.2,80.4,70.9z"/>
		<path id="XMLID_31_" class="st0" d="M86.3,73.6c0.2-0.4,0.7-0.7,1.2-0.4c0.4,0.2,0.6,0.7,0.4,1.2c-0.2,0.4-0.7,0.7-1.2,0.4
			C86.3,74.6,86.1,74.1,86.3,73.6z"/>
		<path id="XMLID_30_" class="st0" d="M80.9,80.4c0.6-1.4,2.9-0.5,2.2,1C82.5,82.8,80.3,81.8,80.9,80.4z"/>
		<path id="XMLID_29_" class="st0" d="M76.1,88.8c0.2-0.5,0.9-0.8,1.4-0.5c0.5,0.2,0.8,0.8,0.5,1.4c-0.2,0.5-0.9,0.8-1.4,0.5
			C76.1,89.9,75.8,89.3,76.1,88.8z"/>
		<path id="XMLID_2_" class="st0" d="M74.7,68.8C74.7,68.9,74.7,68.9,74.7,68.8c-1.5,1-3.1,2-3.8,3.8c-0.3,0.7-0.3,1.5-0.3,2.3
			c0.1,1,0.7,2,0.5,2.9c0,0,0,0.1,0,0.1c-0.1,0.6-0.1,1.3-0.2,1.9c-0.1,0.8-0.5,1.6-0.9,2.4c0,0,0,0.1,0,0.1c-0.5,0.5-1.1,1-1.6,1.6
			c-0.3,0.3-0.6,0.7-0.9,1c0,0,0,0-0.1,0c0,0-0.1,0.1-0.1,0.1c-1.1,1.3-2.1,2.8-2.9,4.3c0-1.2-0.1-2.5-0.3-3.7c0,0,0,0,0,0
			c3.6-2.1,0.4-6.7-0.2-9.6v0c0-0.1,0-0.2-0.1-0.2c-0.1-0.1-0.4-0.1-0.3,0.1c0,0,0,0.1,0,0.1c-0.4,1.2-0.8,2.4-1.3,3.6
			c-0.3,0.9-0.7,1.8-0.8,2.7c-0.2,1.6,0.6,3,2.3,3.4c0.2,1.3,0.4,2.7,0.3,4c0,0.1,0,0.1,0.1,0.2c-1.2,2.4-2.2,4.9-2.7,7.6
			c-0.1-0.2-0.2-0.3-0.3-0.5c-0.2-0.4-0.5-0.9-0.7-1.3l0,0c0.7-1.4,1.4-3,0.6-4.5c-0.4-0.8-1.1-1.6-1.7-2.4c-0.7-0.9-1.4-1.9-2-2.8
			c-0.1-0.2-0.4,0-0.3,0.1c0,0,0,0,0,0.1c-0.4,2.1-1.1,4.3-0.5,6.4c0.4,1.7,1.8,3.1,3.6,3.1c0,0,0,0,0,0c0.2,0.3,0.4,0.7,0.6,1.1
			c0.1,0.2,0.2,0.4,0.3,0.6c0,0.1,0.2,0.3,0.3,0.5c0,0.1,0,0.2,0,0.3c-0.3,1.5-0.4,3.1-0.4,4.7c-0.3-0.4-0.6-0.8-0.9-1.2
			c0.2-1.3-0.3-2.5-1.2-3.4c-1.4-1.4-3.8-1.9-5-3.5v0c0-0.2-0.4-0.2-0.4,0c0,0,0,0,0,0.1l0,0c0.1,1.7,0.6,3.4,1.6,4.8
			c1.1,1.6,2.8,2.1,4.7,2.4h0c0.3,0.4,0.7,0.8,1,1.3l0,0c0,2.3,0.4,4.6,1.1,6.8c-0.2-0.2-0.4-0.4-0.7-0.6c0,0,0,0,0,0
			c0.2-0.9,0-1.8-0.8-2.4c-0.6-0.4-1.5-0.5-2.3-0.8c-0.8-0.3-1.6-0.7-2.4-1.2c0,0,0,0,0,0l0,0c-0.2-0.1-0.4,0.1-0.2,0.3l0,0
			c0.3,1.5,0.6,3.3,1.9,4.3c1,0.8,2.4,0.8,3.5,0.2c0,0,0,0,0,0c0,0,0.1,0,0.1,0c0.3,0.3,0.7,0.6,1,0.8c0.2,0.8,0.5,1.7,0.8,2.5
			c0.2,0.6,0.4,1.2,0.6,1.7l0,0c0,0.1,0,0.1,0,0.1c1.1,2.6,2.6,5.1,4.1,7.5c0.1,0.2,0.4,0,0.3-0.2c-1.5-2.5-3-4.9-4.1-7.6
			c0-0.4,0.2-0.8,0.4-1.2c0,0,0,0,0-0.1h0c0.1,0,0.1,0,0.2-0.1c1.1,0.1,1.9-0.8,2.3-1.7c0.6-1.2,0.1-3,0-4.3c0-0.1-0.1-0.1-0.2-0.1
			c-0.1,0-0.2,0-0.2,0.1c-0.4,1.4-2.1,2.1-2.6,3.5c-0.3,0.8-0.2,1.8,0.3,2.5c-0.1,0-0.2,0-0.2,0.1c-0.1,0.2-0.2,0.5-0.3,0.8
			c-0.3-0.7-0.6-1.5-0.8-2.3c-1-3.3-1.8-6.7-1.6-10.2c0-0.9,0.1-1.9,0.3-2.9c0,0,0.1,0.1,0.2,0c0.2-0.2,0.5-0.4,0.9-0.4c0,0,0,0,0,0
			c1.1,0.4,1.8,1.3,2.9,1.7c1.1,0.3,2.2,0.2,3.4,0.4c0.2,0,0.3-0.3,0-0.4h0c-1.1-0.7-1.9-2-3.2-2.6c-1-0.4-2.1-0.3-3,0.4l0,0
			c-0.4,0-0.8,0.2-1.1,0.5c0.3-1.8,0.7-3.6,1.3-5.3c0,0,0.1,0,0.1,0c0.5-0.2,1-0.4,1.6-0.4c0.5,0,0.9,0.1,1.4,0c0,0,0,0,0,0
			c1.3,1,3.2,1.2,4.7,0.3c0.8-0.5,1.3-1.2,1.7-2.1c0.5-1,1-2,1.7-2.9l0,0c0,0,0.1,0,0.1-0.1c0.1-0.1,0.2-0.2,0.2-0.3l0,0
			c0.1-0.1,0-0.4-0.2-0.3c-1,0.5-2,0.9-3.1,1.1c-0.8,0.1-1.6,0.2-2.3,0.4C67,90,66.1,91.6,65.4,93l0,0c-0.4,0-0.9,0-1.4,0
			c-0.5,0-1,0.2-1.4,0.4c0.2-0.5,0.3-0.9,0.6-1.4c1-2.4,2.5-4.5,4.2-6.4c2.6-1.4,5.5-1.2,8.4-0.9c0,0,0,0.1,0,0.2
			c0.9,0.8,1.8,1.8,3.1,1.9c1.2,0.1,2.5-0.6,3.5-1c0.2-0.1,0.1-0.3-0.1-0.3c-1.7,0-2.6-1.6-4.2-2c-0.9-0.2-1.8,0.3-2.4,0.9
			c-1-0.1-1.9-0.1-2.9-0.2c0.2-0.1,0.3-0.3,0.4-0.5c1.9-0.9,5.4-0.5,6-3.2c0.1,0,0.1-0.2,0-0.2c0-0.1-0.2-0.1-0.3,0
			c-1.4,0.3-2.9-0.1-4.2,0.6c-0.5,0.3-1.1,0.7-1.4,1.3c-0.3,0.7-0.2,1.6-0.9,2c0,0-0.1,0.1-0.1,0.1c-1.5,0-3,0.2-4.4,0.8
			c2.8-3.1,6.2-5.6,9.8-7.9c0.2,0.5,1,0.6,1.5,0.8c0.8,0.3,1.7,0.7,2.7,0.6c1.2-0.1,1.9-0.9,1.3-1.8c0.4,0,0.8,0.1,1.2,0.1
			c0,0.2,0.1,0.4,0.3,0.5c0.3,0.1,0.5-0.1,0.6-0.3c0-0.2,0-0.6-0.2-0.7c-0.2-0.1-0.4,0-0.5,0.2l0,0c-0.4,0-0.9-0.1-1.4-0.2
			c0.6-0.4,1.3-1.2,0.8-1.9c-0.3-0.5-0.8-0.5-1.4-0.5c0.3-0.3,0.6-0.6,1-0.9c0.1,0.1,0.3,0.1,0.5,0c0.2-0.1,0.4-0.4,0.3-0.7
			c-0.1-0.2-0.4-0.4-0.6-0.3c-0.2,0-0.4,0.3-0.4,0.6c0,0,0,0.1,0,0.1l0,0c-0.3,0.3-0.7,0.6-1.1,1c0-0.5,0-1-0.3-1.3
			c-0.5-0.5-1.2-0.2-1.7,0.1c-0.8,0.6-1.4,1.5-1.8,2.4c-0.2,0.5-0.7,1.1-0.5,1.7c-2.6,1.6-5.1,3.4-7.4,5.4c0.2-0.4,0.4-0.9,0.5-1.4
			c0.2-0.8,0.1-1.6,0.3-2.4c0,0,0-0.1,0-0.1c0-0.1,0-0.2,0-0.3h0c1.1-0.6,2-1.5,2.4-2.7c0.5-1.8-0.1-3.9,0.9-5.6l0,0c0,0,0,0,0,0
			C75.1,68.9,74.9,68.6,74.7,68.8z M77.7,80.6c0.3,0,0.6,0,1-0.1c-0.9,0.5-1.9,0.7-2.9,1c-0.7,0.2-1.4,0.4-1.9,1
			c0-0.2,0.1-0.4,0.3-0.7c0.3-0.4,0.7-0.7,1.2-0.9C76.1,80.5,76.9,80.7,77.7,80.6z M73.9,82.9c0.5-1,2-1.1,3-1.3
			c0.7-0.2,1.5-0.4,2.1-0.9C78.3,82.5,75.7,82.4,73.9,82.9z M80.3,84.8c0.4,0.3,0.9,0.5,1.4,0.7c-0.3,0-0.7,0-1,0
			C80,85.4,79.5,85.2,79,85c-0.8-0.3-1.7-0.5-2.6-0.5c0.5-0.6,1.3-1,2.1-0.7C79.2,83.9,79.7,84.4,80.3,84.8z M76.5,84.8
			c0.7,0,1.3,0,2,0.3c0.5,0.1,0.9,0.4,1.4,0.6c0.5,0.1,0.9,0.2,1.4,0.1c-0.6,0.3-1.3,0.5-2,0.5C78.2,86.3,77.3,85.5,76.5,84.8z
			 M73.3,88.8c-1,0.6-1.6,1.6-2.6,2.4c-1.3,1-2.9,1.2-4.5,1.6c0.8-1.6,1.8-2.9,3.8-3.2C71.2,89.4,72.2,89.2,73.3,88.8z M66.2,93.1
			c1.4-0.4,2.9-0.6,4.2-1.4c1-0.7,1.8-1.8,2.8-2.5c-0.1,0.2-0.3,0.5-0.5,0.7c-0.5,0.8-0.8,1.7-1.3,2.5
			C70.2,94.1,67.9,94.4,66.2,93.1z M66.5,99.3c0.4,0.4,0.8,0.8,1.2,1.2c-0.8-0.4-1.5-0.8-2.3-1.2c-0.8-0.4-1.4-0.6-2.2-0.5
			C64.2,98.1,65.5,98.4,66.5,99.3z M63.1,99c0.5,0,0.9,0,1.4,0.1c0.4,0.1,0.8,0.4,1.2,0.6c0.5,0.3,1,0.6,1.6,0.8
			c-0.6,0-1.2-0.1-1.9-0.3C64.6,100.1,63.9,99.5,63.1,99z M65.9,109.4c-0.2,0.5-0.3,1.1-0.4,1.7c-0.1,1.1-0.6,1.8-1.3,2.6
			C62.9,112,64.7,110.7,65.9,109.4z M64.5,113.7c0.4-0.5,0.9-1.1,1.1-1.8c0.1-0.4,0.1-1,0.2-1.4c0.1-0.5,0.3-1.1,0.6-1.6
			c0,0.7,0.1,1.4,0.1,2C66.6,112,65.8,113.7,64.5,113.7z M55.7,106.8c0.4,0.8,1,1.4,1.7,2c0.8,0.6,1.8,1,2.8,1.5
			c-1.2,0.5-2.6,0.1-3.5-0.9C56.1,108.7,55.9,107.7,55.7,106.8z M60.5,110.1C60.5,110.1,60.5,110.1,60.5,110.1
			c-0.9-0.4-1.9-0.8-2.7-1.4c-0.8-0.5-1.5-1.3-1.9-2.2c0.7,0.4,1.4,0.7,2.2,1C59.4,107.9,61,108.3,60.5,110.1z M53.4,96.2
			c0.7,1.2,1.4,2.4,2.4,3.3c1,0.9,2.2,1.5,3,2.6c-1.7-0.3-3.1-0.9-4.1-2.4C54,98.6,53.6,97.4,53.4,96.2z M59.2,101.9
			C59.2,101.9,59.2,101.9,59.2,101.9c-0.8-0.9-1.8-1.5-2.7-2.3c-1.1-0.9-1.9-2.1-2.6-3.4C55.9,97.9,59.6,98.7,59.2,101.9z M56.3,92
			c-0.1-1.5,0.2-3,0.5-4.5c0.2,1.4,0.4,2.9,0.9,4.3c0.2,0.6,0.5,1.4,0.8,2c0.4,0.7,0.9,1.2,1,2.1C57.6,95.7,56.4,93.8,56.3,92z
			 M59.9,95.6c0-0.4-0.2-0.9-0.4-1.3c-0.5-0.7-0.8-1.4-1.2-2.2c-0.6-1.5-0.8-3.2-1.1-4.9c0.9,1.3,1.8,2.5,2.8,3.8
			C61,92.6,60.7,94,59.9,95.6z M63.3,77.3c-0.3,2.8,0.4,5.6,0.2,8.3c-2.3-0.5-2.1-2.7-1.5-4.5C62.4,79.8,62.8,78.6,63.3,77.3z
			 M63.8,85.5c0.1-2.7-0.5-5.4-0.2-8.1C64.5,80.1,66.5,83.8,63.8,85.5z M82.1,73c0,0.3,0,0.6-0.1,0.9c-0.2,0-0.4,0.1-0.6,0.2
			c-1.2,0.3-2.2,0.9-3,1.8c0.2-0.8,1-2,1.2-2.3c0.3-0.4,0.6-0.7,1-1C81.2,72.2,81.7,72.3,82.1,73z M84,72.5C84,72.5,84,72.5,84,72.5
			c0,0,0-0.1,0-0.1c0-0.2,0.2-0.2,0.3-0.1C84.3,72.5,84,72.7,84,72.5z M83.7,75.4c-0.8,1.5-3.7,1.3-5.3,1.3c0,0,0,0,0-0.1
			c0.6-0.9,1.5-1.5,2.5-1.9c0.5-0.1,0.9-0.3,1.4-0.4C83,74.1,84.5,73.9,83.7,75.4z M85.1,76.9c0,0,0-0.1,0-0.2c0,0,0.1,0,0.1-0.1
			c0-0.1,0.1,0,0.1,0c0,0,0,0.2,0,0.2C85.2,77,85.1,77,85.1,76.9z M78.7,77.1c1.3,0,2.9,0,4.1-0.5c0.1,0.1,0.3,0.2,0.4,0.4
			c0,0.7-0.4,1-1,1.1c-0.5,0.1-1,0-1.5-0.2C80.4,77.7,79.3,77.4,78.7,77.1z M71.8,77.1c0.4-1,0.6-2.1,0.8-3.3
			c0.2-1.4,0.7-2.5,1.6-3.6c-0.2,0.8-0.2,1.7-0.2,2.6C73.8,74.6,73.3,76.1,71.8,77.1z M74,69.8c-0.7,0.9-1.3,1.9-1.5,3.1
			c-0.3,1.3-0.4,2.7-0.9,4c0-0.2-0.1-0.5-0.2-0.8c-0.3-0.9-0.4-1.9-0.2-2.9C71.5,71.7,72.7,70.7,74,69.8z"/>
	</g>
	<g>
		<g>
			<path class="st0" d="M35.6,185.9h8.7v1.2h-7.4v5.1h6.9v1.2h-6.9v5.6h7.7v1.2h-9.1L35.6,185.9L35.6,185.9z"/>
			<path class="st0" d="M57.7,185.9h1.4l4.6,12.5l4.6-12.5h1.4l-5.4,14.3H63L57.7,185.9z"/>
			<path class="st0" d="M83.8,185.9h8.7v1.2h-7.4v5.1h6.9v1.2h-6.9v5.6h7.7v1.2h-9.1L83.8,185.9L83.8,185.9z"/>
			<path class="st0" d="M107.9,185.9h1.7l8.7,12.5h0v-12.5h1.3v14.3H118l-8.7-12.5h0v12.5h-1.3V185.9z"/>
			<path class="st0" d="M138.9,187.1H134v-1.2h11.1v1.2h-4.9v13.1h-1.3V187.1z"/>
			<path class="st0" d="M158.6,193.1c0-1.1,0.2-2.1,0.5-3c0.3-0.9,0.8-1.7,1.5-2.4c0.6-0.6,1.4-1.2,2.3-1.5c0.9-0.4,1.9-0.5,3-0.5
				s2.1,0.2,3,0.5c0.9,0.4,1.7,0.9,2.3,1.5c0.6,0.6,1.1,1.4,1.5,2.4c0.3,0.9,0.5,1.9,0.5,3s-0.2,2.1-0.5,3c-0.3,0.9-0.8,1.7-1.5,2.4
				c-0.6,0.6-1.4,1.2-2.3,1.5c-0.9,0.3-1.9,0.5-3,0.5s-2.1-0.2-3-0.5c-0.9-0.3-1.7-0.9-2.3-1.5c-0.6-0.6-1.1-1.4-1.5-2.4
				C158.8,195.2,158.6,194.2,158.6,193.1z M159.9,193.1c0,0.9,0.1,1.7,0.4,2.5c0.3,0.7,0.7,1.4,1.2,2c0.5,0.5,1.1,1,1.9,1.3
				c0.7,0.3,1.6,0.5,2.5,0.5c0.9,0,1.7-0.1,2.5-0.5c0.7-0.3,1.4-0.7,1.9-1.3c0.5-0.5,0.9-1.2,1.2-2c0.3-0.7,0.4-1.6,0.4-2.5
				s-0.1-1.7-0.4-2.5c-0.3-0.7-0.7-1.4-1.2-2c-0.5-0.5-1.1-1-1.9-1.3c-0.7-0.3-1.6-0.5-2.5-0.5c-0.9,0-1.7,0.1-2.5,0.5
				c-0.7,0.3-1.4,0.7-1.9,1.3c-0.5,0.5-0.9,1.2-1.2,2C160.1,191.4,159.9,192.2,159.9,193.1z"/>
			<path class="st0" d="M188.9,197.6c0.3,0.6,0.8,1,1.3,1.3c0.5,0.3,1.2,0.4,1.9,0.4c0.4,0,0.8,0,1.2-0.2c0.4-0.1,0.7-0.3,1-0.5
				c0.3-0.2,0.5-0.5,0.7-0.9c0.1-0.3,0.2-0.7,0.2-1.1c0-0.5-0.1-0.9-0.3-1.2c-0.2-0.3-0.5-0.6-0.8-0.8c-0.3-0.2-0.7-0.4-1.2-0.5
				c-0.4-0.1-0.9-0.3-1.3-0.4c-0.4-0.1-0.9-0.3-1.3-0.5c-0.4-0.2-0.8-0.4-1.2-0.7c-0.3-0.3-0.6-0.7-0.8-1.1s-0.3-1-0.3-1.7
				s0.1-1.2,0.3-1.7c0.2-0.5,0.6-0.9,1-1.2c0.4-0.3,0.9-0.6,1.4-0.7s1.1-0.2,1.7-0.2c0.8,0,1.5,0.1,2.2,0.4c0.6,0.3,1.2,0.7,1.7,1.4
				l-1.1,0.8c-0.3-0.4-0.7-0.8-1.2-1c-0.4-0.2-1-0.3-1.6-0.3c-0.4,0-0.8,0-1.2,0.1c-0.4,0.1-0.7,0.3-1,0.5c-0.3,0.2-0.5,0.5-0.7,0.8
				c-0.2,0.3-0.2,0.7-0.2,1.2c0,0.7,0.2,1.2,0.5,1.6c0.3,0.4,0.8,0.7,1.3,0.9s1.1,0.4,1.8,0.6c0.6,0.1,1.2,0.4,1.8,0.7
				c0.5,0.3,1,0.7,1.3,1.2c0.3,0.5,0.5,1.2,0.5,2.1c0,0.6-0.1,1.2-0.3,1.7c-0.2,0.5-0.5,0.9-1,1.2c-0.4,0.3-0.9,0.6-1.4,0.8
				c-0.5,0.1-1.1,0.2-1.7,0.2c-0.9,0-1.8-0.1-2.6-0.5c-0.8-0.3-1.5-0.9-2-1.6L188.9,197.6z"/>
		</g>
	</g>
	<g>
		<path class="st0" d="M123.5,78.9L94,65c-14.8-7-15-21-15-21.2c0-14.2,9.6-19,12.5-20.1c-7.6,2-14.1,6.6-18.4,13.1
			c-5,7.6-6,17-2.8,25c6.8,16.9,35,26.5,35.3,26.6c0,0,5.2,1.7,10.5,5.6c4.9,3.6,10.9,9.9,11.9,19.5c0.9,9.5-2.7,16-5.9,19.7
			c-2.3,2.7-4.7,4.3-6.1,5.2c3.6,0.2,7.9-1.6,12.1-5.2c6.1-5.3,13.1-15.7,12.5-27.9C139.7,87.7,123.7,79,123.5,78.9z M131.7,121.9
			c1.3-7.1,5.5-26.9-28.5-39.6C64.9,68.1,74.7,46.7,74.7,46.7c1.9,27.2,47.3,30.5,57.1,45.4C142.3,108.4,131.7,121.9,131.7,121.9z"
			/>
		<path class="st0" d="M141.4,105.3c-0.8-18.2-17.4-27.1-17.6-27.2L94.4,64.2c-7.5-3.5-11-8.9-12.6-12.7C80,47.3,80,43.9,80,43.9
			c0-15.9,12.1-19.4,12.7-19.5c5.6-1.5,10.4-1.8,14.7-1.2c8.7,1.5,14.6,6.1,18.2,10.2c3.2,3.7,4.7,7.1,4.8,7.2
			c0.1,0.2,0.3,0.3,0.5,0.2c0.2-0.1,0.3-0.3,0.2-0.5c0-0.1-1.4-3.4-4.7-7.2c-3.8-4.4-10-9.5-19.2-10.8c-2.3-0.4-4.9-0.5-7.7-0.4
			c-11.3,0.4-21.1,5.7-26.9,14.6c-5.1,7.9-6.2,17.5-2.9,25.8c6.9,17.3,35.5,27,35.8,27.1c0,0,5.1,1.6,10.3,5.4
			c4.8,3.5,10.6,9.6,11.5,18.9c1.7,17.7-12.6,24.6-12.7,24.7c-0.1,0.1-0.2,0.2-0.2,0.4s0.1,0.3,0.3,0.3c0.6,0.1,1.3,0.2,1.9,0.2
			c3.7,0,8-1.9,12.1-5.4C134.9,128.5,142,117.8,141.4,105.3z M114.6,138.7c0,0,14.7-6.9,13-25.1s-22.1-24.7-22.1-24.7
			S77,79.4,70,62.1c-6.9-17.3,6-39,29.5-39.9c2.6-0.1,5,0,7.3,0.4c9.6,1.1,15.9,6.5,19.7,11.1c3,3.6,4.2,6.7,4.2,6.7s-1.3-3-4.2-6.7
			c-3.6-4.4-9.9-9.6-19.7-11.1c-4.1-0.5-8.8-0.2-14.2,1.3c0,0-13,3.4-13,19.9c0,0,0,13.9,14.7,20.8c14.7,6.9,29.5,13.9,29.5,13.9
			s16.5,8.6,17.3,26.9C141.9,123.6,125.4,140.9,114.6,138.7z"/>
	</g>
	<g>
		<g>
			<path class="st0" d="M148,164.6h-26c-0.1,0-4.8,0.3-8-2.5c-1.9-1.7-2.8-4.2-2.8-7.4V97.8l-16.5-8.2v76h71.1l2.1-23
				c-0.7,2.4-1.8,5.4-3.2,8.4C160.3,159.9,154.6,164.6,148,164.6z M105.8,163H100V96.2l5.8,2.6V163z"/>
			<path class="st0" d="M168.9,136.9c-0.2,0-0.4,0.1-0.5,0.3c0,0.2-5.3,26.5-20.4,26.5h-26c0,0-4.5,0.3-7.4-2.3
				c-1.7-1.5-2.5-3.8-2.5-6.7V97.5c0-0.1-0.1-0.3-0.2-0.4l-17.3-8.6c-0.1,0-0.3,0-0.4,0c-0.1,0.1-0.2,0.2-0.2,0.3v77.1
				c0,0.2,0.2,0.4,0.4,0.4h71.9c0.2,0,0.4-0.1,0.4-0.4l2.6-28.6C169.3,137.2,169.1,136.9,168.9,136.9z M166.2,165.9H94.3V88.8
				l17.3,8.6c0,0,0,46.8,0,57.2s10.4,9.5,10.4,9.5s10.4,0,26,0s20.8-26.9,20.8-26.9L166.2,165.9z"/>
		</g>
		<g>
			<path class="st0" d="M111.2,46.5l-16.5,4.9V60l16.5,7V46.5z M105.8,61.2l-5.8-1.9v-5.8l5.8-1.3V61.2z"/>
			<path class="st0" d="M111.9,45.6c-0.1-0.1-0.2-0.1-0.4,0l-17.3,5.2c-0.2,0-0.3,0.2-0.3,0.4v9.1c0,0.1,0.1,0.3,0.2,0.4l17.3,7.3
				c0,0,0.1,0,0.1,0c0.1,0,0.1,0,0.2,0c0.1-0.1,0.2-0.2,0.2-0.3V45.9C112.1,45.8,112,45.7,111.9,45.6z M111.6,67.6l-17.3-7.3v-9.1
				l17.3-5.2V67.6z"/>
		</g>
	</g>
	<path class="st0" d="M97.4,143C80.1,143,66,128.9,66,111.5c0-16.3,12.5-29.8,28.5-31.3c-0.1-0.2-0.2-0.4-0.3-0.6
		C78,81.3,65.4,95,65.4,111.5c0,17.7,14.4,32.1,32.1,32.1c3.3,0,6.5-0.5,9.7-1.5c-0.1-0.2-0.1-0.4-0.2-0.6
		C103.8,142.6,100.7,143,97.4,143z"/>
	<g>
		<path class="st0" d="M35.5,217.8c0-0.7,0.1-1.4,0.4-2.1c0.2-0.6,0.6-1.2,1-1.6c0.4-0.4,1-0.8,1.6-1.1c0.6-0.2,1.3-0.4,2.1-0.4
			c0.7,0,1.4,0.1,2.1,0.4c0.6,0.2,1.1,0.6,1.6,1.1c0.4,0.4,0.8,1,1,1.6s0.4,1.3,0.4,2.1c0,0.7-0.1,1.4-0.4,2.1
			c-0.2,0.6-0.6,1.2-1,1.6c-0.4,0.4-1,0.8-1.6,1.1c-0.6,0.2-1.3,0.4-2.1,0.4c-0.7,0-1.4-0.1-2.1-0.4c-0.6-0.2-1.1-0.6-1.6-1.1
			c-0.4-0.4-0.8-1-1-1.6C35.7,219.3,35.5,218.6,35.5,217.8z M36.5,217.8c0,0.6,0.1,1.2,0.3,1.7c0.2,0.5,0.5,1,0.8,1.4
			c0.3,0.4,0.8,0.7,1.3,0.9c0.5,0.2,1.1,0.3,1.7,0.3s1.2-0.1,1.7-0.3c0.5-0.2,0.9-0.5,1.3-0.9c0.3-0.4,0.6-0.8,0.8-1.4
			c0.2-0.5,0.3-1.1,0.3-1.7c0-0.6-0.1-1.2-0.3-1.7c-0.2-0.5-0.5-1-0.8-1.4c-0.3-0.4-0.8-0.7-1.3-0.9c-0.5-0.2-1.1-0.3-1.7-0.3
			s-1.2,0.1-1.7,0.3c-0.5,0.2-0.9,0.5-1.3,0.9c-0.3,0.4-0.6,0.8-0.8,1.4C36.6,216.6,36.5,217.2,36.5,217.8z"/>
		<path class="st0" d="M47.6,218.1c0-0.1,0-0.2,0-0.4c0-0.1,0-0.3,0-0.5s0-0.3,0-0.5s0-0.2,0-0.3h0.8c0,0.2,0,0.5,0,0.7
			c0,0.2,0,0.3,0,0.4c0.2-0.4,0.5-0.7,0.8-0.9c0.3-0.2,0.7-0.3,1.2-0.3c0.1,0,0.1,0,0.2,0s0.1,0,0.2,0L51,217c-0.1,0-0.2,0-0.3,0
			c-0.3,0-0.7,0-0.9,0.2c-0.2,0.1-0.5,0.3-0.6,0.5c-0.1,0.2-0.3,0.4-0.4,0.7c-0.1,0.3-0.1,0.5-0.1,0.9v3.5h-0.9V218.1z"/>
		<path class="st0" d="M58.5,222.4c0,0.8-0.1,1.4-0.3,1.9s-0.5,0.9-0.9,1.1c-0.3,0.2-0.7,0.4-1.1,0.5s-0.7,0.1-1.1,0.1
			c-0.3,0-0.6,0-0.9-0.1c-0.3,0-0.6-0.1-0.9-0.2c-0.3-0.1-0.5-0.2-0.7-0.4c-0.2-0.1-0.4-0.3-0.6-0.6l0.6-0.6
			c0.3,0.4,0.6,0.7,1.1,0.9c0.4,0.2,0.9,0.3,1.4,0.3c0.4,0,0.8,0,1.1-0.1c0.3-0.1,0.5-0.2,0.7-0.4c0.2-0.2,0.3-0.4,0.4-0.6
			s0.2-0.4,0.2-0.6c0-0.2,0.1-0.4,0.1-0.6c0-0.2,0-0.3,0-0.5v-0.9h0c-0.2,0.4-0.5,0.7-1,0.9c-0.4,0.2-0.9,0.3-1.4,0.3
			c-0.5,0-0.9-0.1-1.3-0.2c-0.4-0.1-0.8-0.4-1.1-0.7c-0.3-0.3-0.5-0.6-0.7-1c-0.2-0.4-0.2-0.8-0.2-1.3c0-0.4,0.1-0.9,0.2-1.3
			c0.2-0.4,0.4-0.7,0.7-1c0.3-0.3,0.7-0.5,1.1-0.7c0.4-0.2,0.8-0.2,1.3-0.2c0.5,0,1,0.1,1.4,0.3c0.4,0.2,0.7,0.5,1,0.9h0v-1.1h0.8
			L58.5,222.4L58.5,222.4z M57.7,219.4c0-0.3,0-0.7-0.2-1c-0.1-0.3-0.3-0.6-0.5-0.8c-0.2-0.2-0.5-0.4-0.8-0.5
			c-0.3-0.1-0.6-0.2-1-0.2c-0.3,0-0.7,0-1,0.2s-0.6,0.3-0.8,0.5c-0.2,0.2-0.4,0.5-0.5,0.8c-0.1,0.3-0.2,0.6-0.2,1c0,0.3,0,0.7,0.2,1
			c0.1,0.3,0.3,0.6,0.5,0.8c0.2,0.2,0.5,0.4,0.8,0.5s0.6,0.2,1,0.2c0.3,0,0.7,0,1-0.2c0.3-0.1,0.6-0.3,0.8-0.5
			c0.2-0.2,0.4-0.5,0.5-0.8C57.6,220.1,57.7,219.8,57.7,219.4z"/>
		<path class="st0" d="M65.6,220.1c0,0.3,0,0.6,0,0.8c0,0.2,0,0.5,0,0.7c0,0.2,0,0.4,0,0.6c0,0.2,0,0.3,0,0.5h-0.8
			c0-0.3-0.1-0.6-0.1-1h0c-0.2,0.4-0.5,0.7-0.9,0.9c-0.3,0.2-0.8,0.3-1.3,0.3c-0.3,0-0.5,0-0.8-0.1c-0.2,0-0.5-0.2-0.7-0.3
			c-0.2-0.1-0.4-0.3-0.5-0.6c-0.1-0.2-0.2-0.5-0.2-0.9c0-0.5,0.1-0.9,0.4-1.2s0.5-0.5,0.9-0.6c0.3-0.1,0.7-0.2,1.2-0.3
			c0.4,0,0.8,0,1.1,0h1v-0.4c0-0.5-0.1-0.9-0.5-1.2c-0.3-0.2-0.8-0.3-1.3-0.3c-0.7,0-1.4,0.2-2,0.7l-0.5-0.5
			c0.3-0.3,0.7-0.5,1.1-0.7c0.4-0.1,0.9-0.2,1.3-0.2c0.8,0,1.4,0.2,1.9,0.5c0.4,0.3,0.7,0.9,0.7,1.8L65.6,220.1L65.6,220.1z
			 M63.9,219.5c-0.3,0-0.7,0-1,0c-0.3,0-0.6,0.1-0.9,0.2s-0.5,0.2-0.6,0.4s-0.2,0.4-0.2,0.7c0,0.2,0,0.3,0.1,0.5
			c0.1,0.1,0.2,0.3,0.3,0.4c0.1,0.1,0.3,0.1,0.4,0.2c0.1,0,0.3,0.1,0.5,0.1c0.4,0,0.8,0,1.1-0.2c0.3-0.1,0.5-0.3,0.7-0.5
			c0.1-0.2,0.3-0.4,0.3-0.7c0-0.2,0.1-0.5,0.1-0.8v-0.4L63.9,219.5L63.9,219.5z"/>
		<path class="st0" d="M67.8,218.1c0-0.1,0-0.2,0-0.4c0-0.1,0-0.3,0-0.5s0-0.3,0-0.5s0-0.2,0-0.3h0.8c0,0.2,0,0.5,0,0.7
			c0,0.2,0,0.3,0,0.4h0c0.1-0.3,0.4-0.6,0.8-0.9c0.4-0.2,0.8-0.4,1.3-0.4s0.9,0.1,1.2,0.2c0.3,0.1,0.5,0.3,0.7,0.6
			c0.2,0.2,0.3,0.5,0.4,0.9c0,0.3,0.1,0.7,0.1,1v3.8h-0.8V219c0-0.2,0-0.5,0-0.7s-0.1-0.4-0.2-0.6c-0.1-0.2-0.3-0.3-0.5-0.4
			c-0.2-0.1-0.5-0.2-0.8-0.2s-0.6,0-0.9,0.1c-0.3,0.1-0.5,0.2-0.7,0.5c-0.2,0.2-0.3,0.5-0.5,0.8c-0.1,0.3-0.2,0.7-0.2,1.1v3.2h-0.8
			L67.8,218.1L67.8,218.1z"/>
		<path class="st0" d="M75.6,213.7c0-0.2,0-0.3,0.2-0.4c0.1-0.1,0.2-0.2,0.4-0.2s0.3,0,0.4,0.2c0.1,0.1,0.2,0.2,0.2,0.4
			c0,0.2,0,0.3-0.2,0.4c-0.1,0.1-0.2,0.2-0.4,0.2s-0.3,0-0.4-0.2C75.6,214.1,75.6,213.9,75.6,213.7z M75.8,216.3h0.8v6.4h-0.8V216.3
			z"/>
		<path class="st0" d="M78.2,222.3l3.9-5.2h-3.7v-0.7h4.8v0.5l-3.8,5.2h4v0.7h-5.2L78.2,222.3L78.2,222.3z"/>
		<path class="st0" d="M90,220.1c0,0.3,0,0.6,0,0.8c0,0.2,0,0.5,0,0.7c0,0.2,0,0.4,0,0.6c0,0.2,0,0.3,0,0.5h-0.8
			c0-0.3-0.1-0.6-0.1-1h0c-0.2,0.4-0.5,0.7-0.9,0.9c-0.3,0.2-0.8,0.3-1.3,0.3c-0.3,0-0.5,0-0.8-0.1c-0.2,0-0.5-0.2-0.7-0.3
			c-0.2-0.1-0.4-0.3-0.5-0.6c-0.1-0.2-0.2-0.5-0.2-0.9c0-0.5,0.1-0.9,0.4-1.2s0.5-0.5,0.9-0.6c0.3-0.1,0.7-0.2,1.2-0.3
			c0.4,0,0.8,0,1.1,0h1v-0.4c0-0.5-0.1-0.9-0.5-1.2c-0.3-0.2-0.8-0.3-1.3-0.3c-0.7,0-1.4,0.2-2,0.7l-0.5-0.5
			c0.3-0.3,0.7-0.5,1.1-0.7c0.4-0.1,0.9-0.2,1.3-0.2c0.8,0,1.4,0.2,1.9,0.5c0.4,0.3,0.7,0.9,0.7,1.8L90,220.1L90,220.1z M88.3,219.5
			c-0.3,0-0.7,0-1,0c-0.3,0-0.6,0.1-0.9,0.2s-0.5,0.2-0.6,0.4c-0.1,0.2-0.2,0.4-0.2,0.7c0,0.2,0,0.3,0.1,0.5
			c0.1,0.1,0.2,0.3,0.3,0.4c0.1,0.1,0.3,0.1,0.4,0.2c0.1,0,0.3,0.1,0.5,0.1c0.4,0,0.8,0,1.1-0.2c0.3-0.1,0.5-0.3,0.7-0.5
			c0.1-0.2,0.3-0.4,0.3-0.7c0-0.2,0.1-0.5,0.1-0.8v-0.4L88.3,219.5L88.3,219.5z"/>
		<path class="st0" d="M92.2,218.1c0-0.1,0-0.2,0-0.4c0-0.1,0-0.3,0-0.5s0-0.3,0-0.5s0-0.2,0-0.3h0.8c0,0.2,0,0.5,0,0.7
			c0,0.2,0,0.3,0,0.4h0c0.1-0.3,0.4-0.6,0.8-0.9c0.4-0.2,0.8-0.4,1.3-0.4s0.9,0.1,1.2,0.2c0.3,0.1,0.5,0.3,0.7,0.6
			c0.2,0.2,0.3,0.5,0.4,0.9c0,0.3,0.1,0.7,0.1,1v3.8H97V219c0-0.2,0-0.5,0-0.7c0-0.2-0.1-0.4-0.2-0.6c-0.1-0.2-0.3-0.3-0.5-0.4
			c-0.2-0.1-0.5-0.2-0.8-0.2c-0.3,0-0.6,0-0.9,0.1c-0.3,0.1-0.5,0.2-0.7,0.5c-0.2,0.2-0.3,0.5-0.5,0.8c-0.1,0.3-0.2,0.7-0.2,1.1v3.2
			h-0.8L92.2,218.1L92.2,218.1z"/>
		<path class="st0" d="M105.6,221.6L105.6,221.6c-0.1,0.2-0.3,0.4-0.5,0.6c-0.2,0.1-0.4,0.3-0.6,0.4s-0.4,0.2-0.7,0.2
			s-0.5,0.1-0.7,0.1c-0.5,0-0.9-0.1-1.3-0.2c-0.4-0.1-0.8-0.4-1.1-0.7c-0.3-0.3-0.5-0.6-0.7-1.1c-0.1-0.4-0.2-0.8-0.2-1.3
			s0.1-0.9,0.2-1.3c0.1-0.4,0.4-0.8,0.7-1.1c0.3-0.3,0.6-0.5,1.1-0.7c0.4-0.1,0.9-0.2,1.3-0.2c0.2,0,0.5,0,0.7,0.1s0.5,0.1,0.7,0.2
			c0.2,0.1,0.4,0.2,0.6,0.4c0.2,0.1,0.3,0.3,0.5,0.6h0v-5.2h0.8v10.6h-0.8L105.6,221.6L105.6,221.6z M105.7,219.5c0-0.3,0-0.7-0.2-1
			c-0.1-0.3-0.3-0.6-0.5-0.8c-0.2-0.2-0.5-0.4-0.8-0.5c-0.3-0.1-0.7-0.2-1-0.2c-0.4,0-0.7,0-1,0.2s-0.6,0.3-0.8,0.5
			c-0.2,0.2-0.4,0.5-0.5,0.8c-0.1,0.3-0.2,0.6-0.2,1c0,0.3,0,0.7,0.2,1c0.1,0.3,0.3,0.6,0.5,0.8c0.2,0.2,0.5,0.4,0.8,0.5
			c0.3,0.1,0.6,0.2,1,0.2c0.4,0,0.7,0,1-0.2c0.3-0.1,0.6-0.3,0.8-0.5c0.2-0.2,0.4-0.5,0.5-0.8C105.6,220.2,105.7,219.9,105.7,219.5z
			"/>
		<path class="st0" d="M108.2,219.5c0-0.5,0.1-0.9,0.2-1.3c0.1-0.4,0.4-0.8,0.7-1.1c0.3-0.3,0.6-0.5,1.1-0.7
			c0.4-0.1,0.9-0.2,1.3-0.2c0.4,0,0.9,0.1,1.3,0.2c0.4,0.1,0.8,0.4,1.1,0.7c0.3,0.3,0.5,0.6,0.7,1.1c0.1,0.4,0.2,0.8,0.2,1.3
			c0,0.5-0.1,0.9-0.2,1.3c-0.1,0.4-0.4,0.8-0.7,1.1c-0.3,0.3-0.6,0.5-1.1,0.7c-0.4,0.1-0.8,0.2-1.3,0.2s-0.9-0.1-1.3-0.2
			c-0.4-0.1-0.8-0.4-1.1-0.7c-0.3-0.3-0.5-0.6-0.7-1.1C108.3,220.4,108.2,220,108.2,219.5z M109,219.5c0,0.3,0,0.7,0.2,1
			c0.1,0.3,0.3,0.6,0.5,0.8c0.2,0.2,0.5,0.4,0.8,0.5c0.3,0.1,0.6,0.2,1,0.2c0.4,0,0.7,0,1-0.2c0.3-0.1,0.6-0.3,0.8-0.5
			c0.2-0.2,0.4-0.5,0.5-0.8c0.1-0.3,0.1-0.6,0.1-1c0-0.3,0-0.7-0.1-1c-0.1-0.3-0.3-0.6-0.5-0.8c-0.2-0.2-0.5-0.4-0.8-0.5
			c-0.3-0.1-0.6-0.2-1-0.2c-0.4,0-0.7,0-1,0.2c-0.3,0.1-0.6,0.3-0.8,0.5c-0.2,0.2-0.4,0.5-0.5,0.8C109.1,218.8,109,219.2,109,219.5z
			"/>
		<path class="st0" d="M120.7,212.8h6v0.8h-5.1v3.5h4.8v0.8h-4.8v3.8h5.4v0.8h-6.3V212.8z"/>
		<path class="st0" d="M130.5,219.3l-2.3-2.9h1.1l1.8,2.4l1.8-2.4h1l-2.3,2.9l2.7,3.5h-1.1l-2.2-2.9l-2.2,2.9h-1L130.5,219.3z"/>
		<path class="st0" d="M135.3,216.3h0.8v1.1h0c0.1-0.2,0.3-0.4,0.5-0.6c0.2-0.1,0.4-0.3,0.6-0.4c0.2-0.1,0.4-0.2,0.7-0.2
			c0.2,0,0.5-0.1,0.7-0.1c0.5,0,0.9,0.1,1.3,0.2c0.4,0.1,0.8,0.4,1.1,0.7c0.3,0.3,0.5,0.6,0.7,1.1c0.1,0.4,0.2,0.8,0.2,1.3
			s-0.1,0.9-0.2,1.3s-0.4,0.8-0.7,1.1c-0.3,0.3-0.6,0.5-1.1,0.7c-0.4,0.1-0.8,0.2-1.3,0.2c-0.2,0-0.5,0-0.7-0.1
			c-0.2,0-0.5-0.1-0.7-0.2s-0.4-0.2-0.6-0.4c-0.2-0.1-0.3-0.3-0.5-0.6h0v4.3h-0.8V216.3z M136.1,219.5c0,0.3,0,0.7,0.2,1
			c0.1,0.3,0.3,0.6,0.5,0.8c0.2,0.2,0.5,0.4,0.8,0.5c0.3,0.1,0.7,0.2,1,0.2c0.4,0,0.7,0,1-0.2c0.3-0.1,0.6-0.3,0.8-0.5
			c0.2-0.2,0.4-0.5,0.5-0.8c0.1-0.3,0.2-0.6,0.2-1c0-0.3,0-0.7-0.2-1c-0.1-0.3-0.3-0.6-0.5-0.8c-0.2-0.2-0.5-0.4-0.8-0.5
			c-0.3-0.1-0.6-0.2-1-0.2c-0.4,0-0.7,0-1,0.2c-0.3,0.1-0.6,0.3-0.8,0.5c-0.2,0.2-0.4,0.5-0.5,0.8
			C136.1,218.8,136.1,219.2,136.1,219.5z"/>
		<path class="st0" d="M149.8,221.6c-0.3,0.5-0.7,0.8-1.2,1c-0.4,0.2-1,0.3-1.6,0.3c-0.5,0-0.9-0.1-1.3-0.2c-0.4-0.1-0.7-0.4-1-0.7
			c-0.3-0.3-0.5-0.6-0.6-1.1c-0.1-0.4-0.2-0.9-0.2-1.4s0.1-0.9,0.2-1.3c0.1-0.4,0.4-0.7,0.6-1c0.3-0.3,0.6-0.5,1-0.7
			c0.4-0.1,0.8-0.2,1.3-0.2c0.5,0,0.9,0.1,1.3,0.2c0.4,0.1,0.7,0.4,0.9,0.7c0.2,0.3,0.4,0.6,0.6,0.9c0.1,0.3,0.2,0.7,0.2,1.1v0.6
			h-5.4c0,0.2,0,0.4,0.1,0.7c0,0.3,0.2,0.5,0.4,0.8c0.2,0.2,0.4,0.5,0.7,0.6c0.3,0.2,0.7,0.3,1.2,0.3c0.4,0,0.8-0.1,1.2-0.3
			s0.7-0.5,0.9-0.8L149.8,221.6z M149.1,219c0-0.3,0-0.5-0.2-0.8c-0.1-0.2-0.3-0.4-0.5-0.6c-0.2-0.2-0.4-0.3-0.7-0.4
			c-0.3-0.1-0.5-0.1-0.9-0.1c-0.4,0-0.8,0.1-1.1,0.3c-0.3,0.2-0.5,0.4-0.7,0.6c-0.2,0.2-0.3,0.5-0.4,0.7c0,0.2-0.1,0.4-0.1,0.4
			L149.1,219L149.1,219z"/>
		<path class="st0" d="M151.9,218.1c0-0.1,0-0.2,0-0.4c0-0.1,0-0.3,0-0.5s0-0.3,0-0.5s0-0.2,0-0.3h0.8c0,0.2,0,0.5,0,0.7
			c0,0.2,0,0.3,0,0.4c0.2-0.4,0.5-0.7,0.8-0.9c0.3-0.2,0.7-0.3,1.2-0.3c0.1,0,0.1,0,0.2,0s0.1,0,0.2,0l-0.1,0.8c-0.1,0-0.2,0-0.3,0
			c-0.3,0-0.7,0-0.9,0.2c-0.2,0.1-0.5,0.3-0.6,0.5c-0.1,0.2-0.3,0.4-0.4,0.7c-0.1,0.3-0.1,0.5-0.1,0.9v3.5H152L151.9,218.1
			L151.9,218.1z"/>
		<path class="st0" d="M156.5,213.7c0-0.2,0-0.3,0.2-0.4c0.1-0.1,0.2-0.2,0.4-0.2c0.2,0,0.3,0,0.4,0.2c0.1,0.1,0.2,0.2,0.2,0.4
			c0,0.2,0,0.3-0.2,0.4c-0.1,0.1-0.2,0.2-0.4,0.2c-0.2,0-0.3,0-0.4-0.2C156.5,214.1,156.5,213.9,156.5,213.7z M156.7,216.3h0.8v6.4
			h-0.8V216.3z"/>
		<path class="st0" d="M165.6,221.6c-0.3,0.5-0.7,0.8-1.2,1c-0.4,0.2-1,0.3-1.6,0.3c-0.5,0-0.9-0.1-1.3-0.2c-0.4-0.1-0.7-0.4-1-0.7
			c-0.3-0.3-0.5-0.6-0.6-1.1s-0.2-0.9-0.2-1.4s0.1-0.9,0.2-1.3c0.1-0.4,0.4-0.7,0.6-1c0.3-0.3,0.6-0.5,1-0.7
			c0.4-0.1,0.8-0.2,1.3-0.2c0.5,0,0.9,0.1,1.3,0.2c0.4,0.1,0.7,0.4,0.9,0.7c0.2,0.3,0.4,0.6,0.6,0.9c0.1,0.3,0.2,0.7,0.2,1.1v0.6
			h-5.4c0,0.2,0,0.4,0.1,0.7c0,0.3,0.2,0.5,0.4,0.8c0.2,0.2,0.4,0.5,0.7,0.6c0.3,0.2,0.7,0.3,1.2,0.3c0.4,0,0.8-0.1,1.2-0.3
			s0.7-0.5,0.9-0.8L165.6,221.6z M165,219c0-0.3,0-0.5-0.2-0.8c-0.1-0.2-0.3-0.4-0.5-0.6c-0.2-0.2-0.4-0.3-0.7-0.4
			c-0.3-0.1-0.5-0.1-0.9-0.1c-0.4,0-0.8,0.1-1.1,0.3c-0.3,0.2-0.5,0.4-0.7,0.6c-0.2,0.2-0.3,0.5-0.4,0.7c0,0.2-0.1,0.4-0.1,0.4
			L165,219L165,219z"/>
		<path class="st0" d="M167.7,218.1c0-0.1,0-0.2,0-0.4c0-0.1,0-0.3,0-0.5s0-0.3,0-0.5s0-0.2,0-0.3h0.8c0,0.2,0,0.5,0,0.7
			c0,0.2,0,0.3,0,0.4h0c0.1-0.3,0.4-0.6,0.8-0.9c0.4-0.2,0.8-0.4,1.3-0.4s0.9,0.1,1.2,0.2c0.3,0.1,0.5,0.3,0.7,0.6
			c0.2,0.2,0.3,0.5,0.4,0.9c0,0.3,0.1,0.7,0.1,1v3.8h-0.8V219c0-0.2,0-0.5,0-0.7s-0.1-0.4-0.2-0.6c-0.1-0.2-0.3-0.3-0.5-0.4
			c-0.2-0.1-0.5-0.2-0.8-0.2c-0.3,0-0.6,0-0.9,0.1c-0.3,0.1-0.5,0.2-0.7,0.5c-0.2,0.2-0.3,0.5-0.5,0.8c-0.1,0.3-0.2,0.7-0.2,1.1v3.2
			h-0.8L167.7,218.1L167.7,218.1z"/>
		<path class="st0" d="M180.8,221.8c-0.3,0.4-0.7,0.6-1.1,0.8c-0.4,0.2-0.8,0.2-1.3,0.2c-0.5,0-0.9-0.1-1.3-0.2
			c-0.4-0.1-0.8-0.4-1.1-0.7c-0.3-0.3-0.5-0.6-0.7-1.1c-0.1-0.4-0.2-0.8-0.2-1.3c0-0.5,0.1-0.9,0.2-1.3c0.1-0.4,0.4-0.8,0.7-1.1
			c0.3-0.3,0.6-0.5,1.1-0.7c0.4-0.1,0.9-0.2,1.3-0.2c0.5,0,0.9,0.1,1.3,0.3c0.4,0.2,0.7,0.4,1.1,0.8l-0.6,0.5
			c-0.2-0.2-0.5-0.5-0.8-0.6c-0.3-0.1-0.6-0.2-0.9-0.2c-0.4,0-0.7,0-1,0.2c-0.3,0.1-0.6,0.3-0.8,0.5c-0.2,0.2-0.4,0.5-0.5,0.8
			c-0.1,0.3-0.2,0.6-0.2,1c0,0.3,0,0.7,0.2,1c0.1,0.3,0.3,0.6,0.5,0.8c0.2,0.2,0.5,0.4,0.8,0.5c0.3,0.1,0.6,0.2,1,0.2
			c0.3,0,0.7-0.1,0.9-0.2c0.3-0.1,0.5-0.4,0.7-0.6L180.8,221.8z"/>
		<path class="st0" d="M182.1,213.7c0-0.2,0-0.3,0.2-0.4c0.1-0.1,0.2-0.2,0.4-0.2c0.2,0,0.3,0,0.4,0.2c0.1,0.1,0.2,0.2,0.2,0.4
			c0,0.2,0,0.3-0.2,0.4c-0.1,0.1-0.2,0.2-0.4,0.2c-0.2,0-0.3,0-0.4-0.2C182.2,214.1,182.1,213.9,182.1,213.7z M182.3,216.3h0.8v6.4
			h-0.8V216.3z"/>
		<path class="st0" d="M190.6,220.1c0,0.3,0,0.6,0,0.8c0,0.2,0,0.5,0,0.7c0,0.2,0,0.4,0,0.6c0,0.2,0,0.3,0,0.5h-0.8
			c0-0.3-0.1-0.6-0.1-1h0c-0.2,0.4-0.5,0.7-0.9,0.9c-0.3,0.2-0.8,0.3-1.3,0.3c-0.3,0-0.5,0-0.8-0.1c-0.2,0-0.5-0.2-0.7-0.3
			c-0.2-0.1-0.4-0.3-0.5-0.6c-0.1-0.2-0.2-0.5-0.2-0.9c0-0.5,0.1-0.9,0.4-1.2c0.2-0.3,0.5-0.5,0.9-0.6c0.3-0.1,0.7-0.2,1.2-0.3
			c0.4,0,0.8,0,1.1,0h1v-0.4c0-0.5-0.1-0.9-0.5-1.2c-0.3-0.2-0.8-0.3-1.3-0.3c-0.7,0-1.4,0.2-2,0.7l-0.5-0.5
			c0.3-0.3,0.7-0.5,1.1-0.7c0.4-0.1,0.9-0.2,1.3-0.2c0.8,0,1.4,0.2,1.9,0.5c0.4,0.3,0.7,0.9,0.7,1.8L190.6,220.1L190.6,220.1z
			 M188.9,219.5c-0.3,0-0.7,0-1,0c-0.3,0-0.6,0.1-0.9,0.2c-0.2,0.1-0.5,0.2-0.6,0.4c-0.1,0.2-0.2,0.4-0.2,0.7c0,0.2,0,0.3,0.1,0.5
			c0.1,0.1,0.2,0.3,0.3,0.4c0.1,0.1,0.3,0.1,0.4,0.2c0.1,0,0.3,0.1,0.5,0.1c0.4,0,0.8,0,1.1-0.2c0.3-0.1,0.5-0.3,0.7-0.5
			c0.1-0.2,0.3-0.4,0.3-0.7c0-0.2,0.1-0.5,0.1-0.8v-0.4L188.9,219.5L188.9,219.5z"/>
		<path class="st0" d="M192.8,221.1c0.2,0.3,0.4,0.6,0.8,0.8c0.3,0.2,0.7,0.2,1.1,0.2c0.2,0,0.3,0,0.5-0.1c0.2,0,0.3-0.1,0.5-0.2
			s0.2-0.2,0.3-0.3c0.1-0.1,0.1-0.3,0.1-0.5c0-0.3-0.1-0.5-0.3-0.6c-0.2-0.1-0.4-0.2-0.7-0.3c-0.3-0.1-0.6-0.1-0.9-0.2
			c-0.3,0-0.6-0.1-0.9-0.3c-0.3-0.1-0.5-0.3-0.7-0.5c-0.2-0.2-0.3-0.5-0.3-0.9c0-0.3,0-0.6,0.2-0.8c0.1-0.2,0.3-0.4,0.5-0.6
			c0.2-0.1,0.4-0.2,0.7-0.3c0.2,0,0.5-0.1,0.8-0.1c0.5,0,1,0.1,1.4,0.3c0.4,0.2,0.7,0.5,0.9,0.9l-0.7,0.4c-0.1-0.3-0.3-0.5-0.6-0.7
			c-0.2-0.1-0.5-0.2-0.9-0.2c-0.1,0-0.3,0-0.4,0c-0.1,0-0.3,0.1-0.4,0.2c-0.1,0.1-0.2,0.2-0.3,0.3c-0.1,0.1-0.1,0.3-0.1,0.4
			c0,0.3,0.1,0.5,0.3,0.6c0.2,0.1,0.4,0.2,0.7,0.3c0.3,0.1,0.6,0.1,0.9,0.2c0.3,0,0.6,0.1,0.9,0.2c0.3,0.1,0.5,0.3,0.7,0.5
			c0.2,0.2,0.3,0.6,0.3,1c0,0.3,0,0.6-0.2,0.9c-0.1,0.2-0.3,0.4-0.5,0.6c-0.2,0.1-0.4,0.3-0.7,0.4c-0.3,0.1-0.5,0.1-0.9,0.1
			c-0.5,0-1-0.1-1.5-0.3c-0.4-0.2-0.8-0.5-1-1L192.8,221.1z"/>
	</g>
</g>
</svg>
