<?xml version="1.0" encoding="utf-8"?>
<!-- Generator: Adobe Illustrator 24.0.0, SVG Export Plug-In . SVG Version: 6.00 Build 0)  -->
<svg version="1.1" id="Capa_1" xmlns="http://www.w3.org/2000/svg" xmlns:xlink="http://www.w3.org/1999/xlink" x="0px" y="0px"
	 viewBox="0 0 254.4 85.8" style="enable-background:new 0 0 254.4 85.8;" xml:space="preserve">
<style type="text/css">
	.st0{fill:#FFFFFF;}
</style>
<g>
	<g>
		<g id="XMLID_37_">
			<path id="XMLID_45_" class="st0" d="M38,39.8c0,0.2-0.3,0.1-0.2-0.1C37.8,39.6,38.1,39.6,38,39.8z"/>
			<path class="st0" d="M53.7,23.8L53.7,23.8c-0.3-1-0.8-1.9-1.5-2.6c-0.9-0.8-1.9-0.9-3-0.9l0,0c-0.3-0.2-0.5-0.4-0.8-0.6l0,0
				c-0.3-1.3-0.8-2.6-1.4-3.8c0.2,0.1,0.3,0.2,0.5,0.3l0,0c-0.1,0.6,0.2,1.1,0.8,1.3c0.4,0.2,1,0.1,1.4,0.2c0.5,0.1,1,0.2,1.5,0.4
				l0,0l0,0c0.1,0.1,0.2-0.2,0.1-0.2l0,0c-0.4-0.8-0.7-1.8-1.6-2.2c-0.7-0.3-1.5-0.2-2,0.3l0,0h-0.1c-0.2-0.1-0.5-0.3-0.7-0.4
				c-0.2-0.5-0.5-0.9-0.7-1.3c-0.2-0.3-0.4-0.6-0.6-0.9l0,0c0-0.1,0-0.1-0.1-0.1c0-0.1-0.1-0.1-0.1-0.1c-0.1,0.1-0.1,0.1-0.2,0.2
				c0.1,0.1,0.1,0.1,0.2,0.2c0,0.3,0,0.5-0.1,0.8v0.1l0,0c-0.1,0-0.1,0-0.1,0.1c-0.7,0.1-1,0.7-1.2,1.3c-0.2,0.8,0.3,1.8,0.5,2.5
				c0,0.1,0.1,0.1,0.1,0.1c0.1,0,0.1,0,0.1-0.1c0.1-0.9,1-1.5,1.1-2.3c0.1-0.5-0.1-1.1-0.5-1.4c0.1,0,0.1,0,0.1-0.1
				c0.1-0.2,0.1-0.3,0.1-0.5c0.3,0.4,0.5,0.8,0.8,1.3c1,1.8,1.8,3.6,2.1,5.6c0.1,0.6,0.1,1.1,0.2,1.7c-0.1,0-0.1,0-0.1,0
				c-0.1,0.2-0.3,0.3-0.5,0.4l0,0c-0.7-0.1-1.2-0.6-1.9-0.6c-0.7-0.1-1.3,0.1-2,0.1c-0.2,0-0.1,0.2,0,0.2l0,0c0.8,0.3,1.3,1,2.1,1.1
				c0.7,0.1,1.3-0.1,1.7-0.6l0,0c0.3-0.1,0.5-0.2,0.6-0.4c0.1,1.1,0,2.1-0.2,3.2c0,0-0.1,0-0.1,0c-0.3,0.2-0.6,0.4-0.9,0.4
				c-0.3,0.1-0.6,0.1-0.8,0.2l0,0c-0.9-0.5-2-0.4-2.7,0.4c-0.4,0.4-0.6,0.9-0.7,1.4c-0.2,0.6-0.4,1.3-0.7,1.8l0,0L42.6,30
				c0,0.1-0.1,0.2-0.1,0.2l0,0c-0.1,0.1,0,0.3,0.1,0.2c0.5-0.4,1.1-0.8,1.7-1c0.4-0.2,0.9-0.3,1.3-0.5c0.9-0.5,1.1-1.5,1.4-2.4l0,0
				c0.3-0.1,0.5-0.1,0.8-0.2c0.3-0.1,0.5-0.2,0.8-0.4c-0.1,0.3-0.1,0.6-0.2,0.9c-0.4,1.5-0.9,2.9-1.6,4.1c-1.3,1.1-3,1.3-4.7,1.5
				c0-0.1,0-0.1-0.1-0.1c-0.6-0.4-1.3-0.8-2-0.7c-0.7,0.1-1.4,0.6-1.9,1c-0.1,0.1,0,0.2,0.1,0.2c1-0.2,1.7,0.7,2.6,0.7
				c0.6,0,1-0.4,1.2-0.8c0.6-0.1,1.1-0.1,1.7-0.2c-0.1,0.1-0.1,0.2-0.2,0.4c-1,0.8-3,0.9-3.1,2.5c-0.1,0.1,0,0.1,0,0.2
				c0.1,0.1,0.1,0.1,0.2,0c0.8-0.4,1.7-0.3,2.3-0.8c0.3-0.2,0.6-0.5,0.7-0.9c0.1-0.4-0.1-0.9,0.3-1.3c0,0,0.1-0.1,0-0.1
				c0.9-0.2,1.7-0.5,2.4-1c-1.3,2.1-2.9,3.9-4.7,5.6c-0.2-0.3-0.7-0.2-0.9-0.3c-0.5-0.1-1.1-0.2-1.6-0.1c-0.7,0.2-1,0.8-0.5,1.2
				c-0.2,0-0.5,0-0.7,0c-0.1-0.1-0.1-0.2-0.3-0.3c-0.2,0-0.3,0.1-0.3,0.3c0,0.2,0.1,0.4,0.2,0.4c0.1,0,0.3-0.1,0.3-0.2l0,0
				c0.3,0,0.6,0,0.8-0.1c-0.3,0.3-0.6,0.9-0.3,1.2c0.2,0.3,0.6,0.2,0.9,0.1c-0.2,0.2-0.3,0.4-0.5,0.6c-0.1,0-0.2,0-0.3,0.1
				c-0.1,0.1-0.2,0.3-0.1,0.4c0.1,0.2,0.3,0.2,0.4,0.1c0.1-0.1,0.2-0.3,0.2-0.4c0,0,0-0.1-0.1-0.1l0,0c0.2-0.2,0.4-0.5,0.5-0.7
				c0,0.3,0.1,0.6,0.4,0.7c0.4,0.3,0.7,0,1-0.3c0.4-0.4,0.7-1,0.8-1.6c0.1-0.3,0.3-0.7,0.1-1.1c1.3-1.2,2.5-2.5,3.6-3.9
				c-0.1,0.3-0.1,0.6-0.2,0.9c0,0.5,0.1,1,0.1,1.4v0.1c0,0.1,0,0.1,0,0.2l0,0c-0.6,0.5-1,1.1-1.1,1.9c-0.1,1.1,0.5,2.2,0.1,3.3
				c0,0,0,0,0,0.1l0,0c-0.1,0.1,0.2,0.2,0.2,0.1c0,0,0,0,0-0.1c0.8-0.7,1.6-1.5,1.7-2.5c0.1-0.5,0-0.9-0.1-1.4
				c-0.2-0.6-0.6-1.1-0.6-1.6v-0.1c0-0.4-0.1-0.8-0.1-1.1c0-0.5,0.1-1,0.3-1.5v-0.1c0.3-0.4,0.5-0.7,0.8-1.1
				c0.2-0.2,0.3-0.5,0.4-0.7c0,0,0,0,0.1,0c0,0,0.1-0.1,0-0.1c0.5-0.9,0.9-1.8,1.2-2.8c0.1,0.7,0.4,1.4,0.6,2.1l0,0
				c-1.8,1.6,0.5,3.9,1.2,5.4l0,0c0,0.1,0,0.1,0.1,0.1c0.1,0.1,0.2,0,0.2-0.1v-0.1c0.1-0.7,0.2-1.5,0.3-2.2c0.1-0.6,0.2-1.1,0.2-1.6
				c-0.1-1-0.7-1.7-1.7-1.7c-0.3-0.7-0.6-1.5-0.7-2.3c0-0.1-0.1-0.1-0.1-0.1c0.5-1.5,0.7-3.1,0.7-4.6c0.1,0.1,0.2,0.2,0.2,0.2
				c0.2,0.2,0.4,0.5,0.6,0.7l0,0c-0.3,0.9-0.5,1.9,0.2,2.6c0.4,0.4,0.8,0.8,1.2,1.2c0.5,0.5,1,0.9,1.5,1.4c0.1,0.1,0.2,0,0.2-0.1V29
				c0-1.2,0.1-2.6-0.4-3.7c-0.5-0.9-1.4-1.6-2.4-1.4l0,0c-0.2-0.2-0.3-0.4-0.5-0.6c-0.1-0.1-0.2-0.2-0.3-0.3
				c-0.1-0.1-0.2-0.2-0.2-0.3c0-0.1,0-0.1-0.1-0.2c0-0.9-0.1-1.8-0.3-2.7c0.2,0.2,0.5,0.4,0.7,0.6c0,0.8,0.5,1.4,1.1,1.8
				c1,0.7,2.4,0.6,3.2,1.5l0,0c0,0.1,0.3,0.1,0.2-0.1C53.7,23.8,53.7,23.8,53.7,23.8z M49.9,16.2c0.4,0.4,0.7,0.9,0.9,1.4
				c-0.3-0.4-0.7-0.7-1.2-0.9c-0.6-0.3-1.2-0.4-1.8-0.6C48.5,15.6,49.3,15.7,49.9,16.2z M47.7,16.2C47.7,16.2,47.7,16.2,47.7,16.2
				c0.6,0.2,1.2,0.3,1.7,0.5c0.6,0.2,1,0.6,1.4,1c-0.5-0.2-0.9-0.3-1.4-0.3C48.5,17.3,47.6,17.3,47.7,16.2z M44.5,17.6
				c-0.1-0.4-0.2-0.8-0.3-1.2c-0.1-0.6,0.1-1.7,0.8-1.8c-0.2,0.4-0.4,0.8-0.4,1.2c0,0.3,0.1,0.6,0.1,0.9S44.6,17.3,44.5,17.6z
				 M44.8,17.2c0.1-0.3,0.1-0.7,0-1c-0.1-0.6,0.2-1.1,0.4-1.6C46.1,15.4,45.3,16.3,44.8,17.2z M46,22.3c0.6,0.1,1,0.4,1.5,0.5
				c-0.3,0.1-0.6,0.1-0.8,0.1c-0.3-0.1-0.5-0.2-0.8-0.3c-0.3-0.1-0.7-0.2-1-0.3C45.3,22.3,45.6,22.3,46,22.3z M45.6,23
				c-0.3-0.2-0.6-0.4-0.8-0.5c0.5,0.1,1,0.3,1.5,0.5c0.5,0.2,0.9,0.2,1.4,0.1C47,23.5,46.2,23.4,45.6,23z M43.1,29.1
				c0.2-0.5,0.3-1.1,0.5-1.6c0.5-1.1,1.8-1.5,2.9-1c-0.8,0.4-1.6,0.7-2.2,1.3c-0.5,0.5-0.8,1.2-1.3,1.8C42.9,29.4,43,29.2,43.1,29.1
				z M44.7,28.9c-0.6,0.2-1.2,0.5-1.8,0.9c0.5-0.5,0.8-1.1,1.2-1.7c0.6-0.7,1.6-1,2.4-1.4C46.2,27.7,45.8,28.5,44.7,28.9z
				 M39.7,31.8c0.7-0.1,1.3,0.2,1.8,0.6c-0.4,0.1-0.8,0.1-1.2,0.1c-0.3-0.1-0.6-0.2-0.9-0.2s-0.6,0-0.9,0.1
				C38.9,32.1,39.3,31.9,39.7,31.8z M40.4,33.2c-0.4-0.1-0.7-0.3-1.1-0.4c-0.3-0.1-0.6-0.2-0.9-0.3c0.2-0.1,0.4-0.1,0.6-0.1
				c0.4,0,0.7,0.1,1,0.2c0.5,0.1,1,0.1,1.5,0C41.3,33,40.9,33.3,40.4,33.2z M43.2,33.2c-0.2,0.6-1,0.9-1.6,1.1
				c-0.4,0.2-0.8,0.4-1.1,0.8C40.7,33.9,42.2,33.7,43.2,33.2z M43.2,33.8c-0.1,0.3-0.4,0.5-0.6,0.7c-0.4,0.3-0.9,0.3-1.3,0.5
				C41.1,34.9,41,35,40.8,35c0.5-0.4,1-0.7,1.6-0.9c0.4-0.2,0.8-0.4,1-0.8C43.3,33.5,43.3,33.6,43.2,33.8z M37.5,38.1
				C37.5,38.1,37.5,38.1,37.5,38.1c-0.1-0.1-0.1-0.1-0.1-0.2s0.1-0.1,0.1,0c0,0,0.1,0.1,0.1,0.1C37.6,38,37.5,38,37.5,38.1z
				 M38.5,40.4c-0.1-0.1,0.1-0.3,0.1-0.2l0,0c0,0,0,0,0,0.1C38.7,40.4,38.6,40.5,38.5,40.4z M39,37c0.3-0.1,0.6-0.1,0.9-0.1
				c0.2,0,0.9,0.1,1.2,0.2c-0.8,0.2-1.7,0.3-2.3,0.8c-0.1-0.1-0.2-0.1-0.3-0.2C38.5,37.3,38.7,37.1,39,37z M38.5,38.6
				c0.3-1,2-1.2,2.9-1.4v0.1c-0.2,0.6-0.7,1-1.2,1.4c-0.3,0.2-0.5,0.3-0.8,0.4C39,39.2,38.2,39.5,38.5,38.6z M41,39.1
				c-0.1,0.3-0.3,0.5-0.5,0.7C40.3,40,40,40,39.6,39.7c-0.1-0.2-0.1-0.4-0.1-0.5c0.1-0.1,0.3-0.1,0.3-0.2c0.6-0.3,1.2-0.8,1.5-1.4
				C41.4,38.1,41.1,38.9,41,39.1z M44.4,38.9c-0.2-1-0.1-2,0.7-2.7c-0.1,0.7-0.1,1.3-0.1,2c0,0.8-0.2,1.5-0.5,2.3
				C44.6,40,44.5,39.5,44.4,38.9z M45.9,38.3c0,0.9-0.6,1.7-1.3,2.3c0.3-0.6,0.5-1.3,0.5-2c0-0.8-0.1-1.6,0.1-2.4
				c0.1,0.2,0.1,0.3,0.2,0.4C45.7,37.2,45.9,37.8,45.9,38.3z M48.8,30.4c1.4,0,1.6,1.3,1.4,2.4c-0.1,0.8-0.2,1.6-0.4,2.3
				C49.7,33.5,49,32,48.8,30.4z M49.6,35.1c-0.8-1.4-2.4-3.3-1.1-4.6C48.8,32.1,49.5,33.5,49.6,35.1z M52.1,26.1
				c0.3,0.9,0.2,1.8,0.2,2.7c-0.3-0.8-0.6-1.6-1-2.3c-0.2-0.4-0.5-0.7-0.7-1.1c-0.3-0.4-0.7-0.6-0.8-1.1C51,24.1,51.8,25,52.1,26.1z
				 M50.1,25.1c0.4,0.4,0.7,0.7,1,1.2c0.6,0.8,0.9,1.8,1.2,2.7c-0.7-0.6-1.3-1.2-2-1.9c-0.9-0.8-0.8-1.6-0.6-2.6
				C49.7,24.7,49.9,24.9,50.1,25.1z M49.3,20.7C49.4,20.7,49.4,20.7,49.3,20.7c0.6,0.4,1.2,0.7,1.8,1c0.8,0.4,1.3,1,1.9,1.6
				C51.7,22.6,49.5,22.6,49.3,20.7z M51.5,21.7c-0.7-0.4-1.4-0.6-2-1.1c1,0,1.9,0.2,2.6,0.9c0.5,0.5,0.9,1.1,1.1,1.8
				C52.7,22.7,52.2,22.1,51.5,21.7z"/>
			<path id="XMLID_44_" class="st0" d="M41,37.4c0.1-0.1,0.2,0.1,0.1,0.2c-0.7,0.6-1.5,1-2.4,1.3c-0.1,0.1-0.2-0.1-0.1-0.2
				C39.6,38.4,40.3,38,41,37.4z"/>
			<path id="XMLID_43_" class="st0" d="M40.2,39.2c0.4-0.3,0.7-0.6,0.9-1.1c0.1-0.1,0.2,0,0.2,0.1c-0.2,0.5-0.6,0.9-1,1.1
				C40.2,39.4,40.1,39.3,40.2,39.2z"/>
			<path id="XMLID_42_" class="st0" d="M40.4,37.2c-0.4-0.1-0.8,0.1-1.1,0.2c-0.1,0-0.2-0.2-0.1-0.2c0.4-0.1,0.8-0.2,1.2-0.2
				C40.5,37,40.5,37.2,40.4,37.2z"/>
			<path id="XMLID_41_" class="st0" d="M42.5,41.1c-0.2,1.1-1.9,0.7-1.6-0.4C41.1,39.7,42.7,40,42.5,41.1z"/>
			<path id="XMLID_40_" class="st0" d="M37.2,39.9c-0.1,0.3-0.4,0.5-0.6,0.4c-0.3-0.1-0.5-0.3-0.4-0.6c0.1-0.3,0.4-0.5,0.6-0.4
				C37.1,39.3,37.3,39.6,37.2,39.9z"/>
			<path id="XMLID_39_" class="st0" d="M39.5,35.4c-0.2,0.9-1.6,0.6-1.4-0.3C38.3,34.2,39.7,34.5,39.5,35.4z"/>
			<path id="XMLID_38_" class="st0" d="M41.3,30.1c-0.1,0.3-0.4,0.6-0.8,0.5c-0.3-0.1-0.6-0.4-0.5-0.8c0.1-0.3,0.4-0.6,0.8-0.5
				C41.1,29.4,41.3,29.7,41.3,30.1z"/>
		</g>
		<g id="XMLID_1_">
			<path id="XMLID_36_" class="st0" d="M23.9,32.6c0.1-0.1,0.2,0,0.2,0.1C24,32.8,23.9,32.7,23.9,32.6z"/>
			<path id="XMLID_35_" class="st0" d="M20.9,34.1c-0.1,0.1-0.2-0.1-0.1-0.2c0.7-0.4,1.5-0.6,2.2-0.7c0.1,0,0.1,0.2,0,0.2
				C22.4,33.5,21.6,33.7,20.9,34.1z"/>
			<path id="XMLID_34_" class="st0" d="M22,32.7c-0.4,0.2-0.7,0.4-1,0.8c-0.1,0.1-0.2,0-0.1-0.1c0.3-0.4,0.6-0.6,1-0.8
				C22,32.5,22.1,32.6,22,32.7z"/>
			<path id="XMLID_33_" class="st0" d="M21.5,34.4c0.3,0.1,0.7,0.1,1,0.1c0.1,0,0.1,0.2,0,0.2c-0.4,0-0.7,0.1-1.1-0.1
				C21.3,34.5,21.4,34.4,21.5,34.4z"/>
			<path id="XMLID_32_" class="st0" d="M21.7,31.3c-0.4,0.9-1.7,0.3-1.3-0.6C20.7,29.9,22,30.4,21.7,31.3z"/>
			<path id="XMLID_31_" class="st0" d="M24.6,32.6c0.1-0.2,0.4-0.4,0.6-0.2c0.2,0.1,0.3,0.4,0.2,0.6c-0.1,0.2-0.4,0.4-0.6,0.2
				C24.6,33.1,24.5,32.9,24.6,32.6z"/>
			<path id="XMLID_30_" class="st0" d="M21.9,36.1c0.3-0.7,1.5-0.3,1.1,0.5C22.7,37.3,21.6,36.8,21.9,36.1z"/>
			<path id="XMLID_29_" class="st0" d="M19.5,40.3c0.1-0.3,0.5-0.4,0.7-0.3c0.3,0.1,0.4,0.4,0.3,0.7C20.4,41,20,41.1,19.8,41
				C19.5,40.8,19.4,40.5,19.5,40.3z"/>
			<path id="XMLID_2_" class="st0" d="M18.8,30.2C18.8,30.3,18.8,30.3,18.8,30.2c-0.8,0.5-1.6,1-1.9,1.9c-0.2,0.4-0.2,0.8-0.2,1.2
				c0.1,0.5,0.4,1,0.3,1.5v0.1c-0.1,0.3-0.1,0.7-0.1,1c-0.1,0.4-0.3,0.8-0.5,1.2V37c-0.3,0.3-0.6,0.5-0.8,0.8
				c-0.2,0.2-0.3,0.4-0.5,0.5c0,0,0,0-0.1,0l-0.1,0.1c-0.6,0.7-1.1,1.4-1.5,2.2c0-0.6-0.1-1.3-0.2-1.9l0,0c1.8-1.1,0.2-3.4-0.1-4.8
				l0,0c0-0.1,0-0.1-0.1-0.1c-0.1-0.1-0.2-0.1-0.2,0.1v0.1c-0.2,0.6-0.4,1.2-0.7,1.8c-0.2,0.5-0.4,0.9-0.4,1.4
				c-0.1,0.8,0.3,1.5,1.2,1.7c0.1,0.7,0.2,1.4,0.2,2c0,0.1,0,0.1,0.1,0.1c-0.6,1.2-1.1,2.5-1.4,3.8c-0.1-0.1-0.1-0.2-0.2-0.3
				c-0.1-0.2-0.3-0.5-0.4-0.7l0,0c0.4-0.7,0.7-1.5,0.3-2.3c-0.2-0.4-0.6-0.8-0.9-1.2c-0.4-0.5-0.7-1-1-1.4c-0.1-0.1-0.2,0-0.2,0.1
				c0,0,0,0,0,0.1c-0.2,1.1-0.6,2.2-0.3,3.2c0.2,0.9,0.9,1.6,1.8,1.6l0,0c0.1,0.2,0.2,0.4,0.3,0.6c0.1,0.1,0.1,0.2,0.2,0.3
				c0,0.1,0.1,0.2,0.2,0.3c0,0.1,0,0.1,0,0.2c-0.2,0.8-0.2,1.6-0.2,2.4c-0.2-0.2-0.3-0.4-0.5-0.6c0.1-0.7-0.2-1.3-0.6-1.7
				c-0.7-0.7-1.9-1-2.5-1.8l0,0c0-0.1-0.2-0.1-0.2,0c0,0,0,0,0,0.1l0,0c0.1,0.9,0.3,1.7,0.8,2.4c0.6,0.8,1.4,1.1,2.4,1.2l0,0
				c0.2,0.2,0.4,0.4,0.5,0.7l0,0c0,1.2,0.2,2.3,0.6,3.4c-0.1-0.1-0.2-0.2-0.4-0.3l0,0c0.1-0.5,0-0.9-0.4-1.2
				c-0.3-0.2-0.8-0.3-1.2-0.4C10,49,9.6,48.8,9.2,48.5l0,0l0,0c-0.1-0.1-0.2,0.1-0.1,0.2l0,0c0.2,0.8,0.3,1.7,1,2.2
				c0.5,0.4,1.2,0.4,1.8,0.1l0,0h0.1c0.2,0.2,0.4,0.3,0.5,0.4c0.1,0.4,0.3,0.9,0.4,1.3c0.1,0.3,0.2,0.6,0.3,0.9l0,0
				c0,0.1,0,0.1,0,0.1c0.6,1.3,1.3,2.6,2.1,3.8c0.1,0.1,0.2,0,0.2-0.1c-0.8-1.3-1.5-2.5-2.1-3.8c0-0.2,0.1-0.4,0.2-0.6
				c0,0,0,0,0-0.1l0,0c0.1,0,0.1,0,0.1-0.1c0.6,0.1,1-0.4,1.2-0.9c0.3-0.6,0.1-1.5,0-2.2c0-0.1-0.1-0.1-0.1-0.1
				c-0.1,0-0.1,0-0.1,0.1c-0.2,0.7-1.1,1.1-1.3,1.8c-0.2,0.4-0.1,0.9,0.2,1.3c-0.1,0-0.1,0-0.1,0.1c-0.1,0.1-0.1,0.3-0.2,0.4
				c-0.2-0.4-0.3-0.8-0.4-1.2c-0.5-1.7-0.9-3.4-0.8-5.1c0-0.5,0.1-1,0.2-1.5c0,0,0.1,0.1,0.1,0c0.1-0.1,0.3-0.2,0.5-0.2l0,0
				c0.6,0.2,0.9,0.7,1.5,0.9c0.6,0.2,1.1,0.1,1.7,0.2c0.1,0,0.2-0.2,0-0.2l0,0c-0.6-0.4-1-1-1.6-1.3c-0.5-0.2-1.1-0.2-1.5,0.2l0,0
				c-0.2,0-0.4,0.1-0.6,0.3c0.2-0.9,0.4-1.8,0.7-2.7h0.1c0.3-0.1,0.5-0.2,0.8-0.2c0.3,0,0.5,0.1,0.7,0l0,0c0.7,0.5,1.6,0.6,2.4,0.2
				c0.4-0.3,0.7-0.6,0.9-1.1c0.3-0.5,0.5-1,0.9-1.5l0,0c0,0,0.1,0,0.1-0.1c0.1-0.1,0.1-0.1,0.1-0.2l0,0c0.1-0.1,0-0.2-0.1-0.2
				c-0.5,0.3-1,0.5-1.6,0.6c-0.4,0.1-0.8,0.1-1.2,0.2c-0.8,0.6-1.2,1.4-1.6,2.1l0,0c-0.2,0-0.5,0-0.7,0s-0.5,0.1-0.7,0.2
				c0.1-0.3,0.2-0.5,0.3-0.7c0.5-1.2,1.3-2.3,2.1-3.2c1.3-0.7,2.8-0.6,4.2-0.5c0,0,0,0.1,0,0.1c0.5,0.4,0.9,0.9,1.6,1
				c0.6,0.1,1.3-0.3,1.8-0.5c0.1-0.1,0.1-0.2-0.1-0.2c-0.9,0-1.3-0.8-2.1-1c-0.5-0.1-0.9,0.2-1.2,0.5c-0.5-0.1-1-0.1-1.5-0.1
				c0.1-0.1,0.2-0.2,0.2-0.3c1-0.5,2.7-0.3,3-1.6c0.1,0,0.1-0.1,0-0.1c0-0.1-0.1-0.1-0.2,0c-0.7,0.2-1.5-0.1-2.1,0.3
				c-0.3,0.2-0.6,0.4-0.7,0.7c-0.2,0.4-0.1,0.8-0.5,1L17.6,38c-0.8,0-1.5,0.1-2.2,0.4c1.4-1.6,3.1-2.8,4.9-4
				c0.1,0.3,0.5,0.3,0.8,0.4c0.4,0.2,0.9,0.4,1.4,0.3c0.6-0.1,1-0.5,0.7-0.9c0.2,0,0.4,0.1,0.6,0.1c0,0.1,0.1,0.2,0.2,0.3
				c0.2,0.1,0.3-0.1,0.3-0.2c0-0.1,0-0.3-0.1-0.4c-0.1-0.1-0.2,0-0.3,0.1l0,0c-0.2,0-0.5-0.1-0.7-0.1c0.3-0.2,0.7-0.6,0.4-1
				c-0.2-0.3-0.4-0.3-0.7-0.3c0.2-0.2,0.3-0.3,0.5-0.5c0.1,0.1,0.2,0.1,0.3,0c0.1-0.1,0.2-0.2,0.2-0.4c-0.1-0.1-0.2-0.2-0.3-0.2
				c-0.1,0-0.2,0.2-0.2,0.3v0.1l0,0c-0.2,0.2-0.4,0.3-0.6,0.5c0-0.3,0-0.5-0.2-0.7c-0.3-0.3-0.6-0.1-0.9,0.1
				c-0.4,0.3-0.7,0.8-0.9,1.2c-0.1,0.3-0.4,0.6-0.3,0.9c-1.3,0.8-2.6,1.7-3.7,2.7c0.1-0.2,0.2-0.5,0.3-0.7c0.1-0.4,0.1-0.8,0.2-1.2
				v-0.1c0-0.1,0-0.1,0-0.2l0,0c0.6-0.3,1-0.8,1.2-1.4c0.3-0.9-0.1-2,0.5-2.8l0,0l0,0C19,30.3,18.9,30.1,18.8,30.2z M20.3,36.2
				c0.2,0,0.3,0,0.5-0.1c-0.5,0.3-1,0.4-1.5,0.5c-0.4,0.1-0.7,0.2-1,0.5c0-0.1,0.1-0.2,0.2-0.4c0.2-0.2,0.4-0.4,0.6-0.5
				C19.5,36.1,19.9,36.2,20.3,36.2z M18.4,37.3c0.3-0.5,1-0.6,1.5-0.7c0.4-0.1,0.8-0.2,1.1-0.5C20.6,37.1,19.3,37.1,18.4,37.3z
				 M21.6,38.3c0.2,0.2,0.5,0.3,0.7,0.4c-0.2,0-0.4,0-0.5,0c-0.4-0.1-0.6-0.2-0.9-0.3c-0.4-0.2-0.9-0.3-1.3-0.3
				c0.3-0.3,0.7-0.5,1.1-0.4C21.1,37.8,21.3,38.1,21.6,38.3z M19.7,38.3c0.4,0,0.7,0,1,0.2c0.3,0.1,0.5,0.2,0.7,0.3
				c0.3,0.1,0.5,0.1,0.7,0.1c-0.3,0.2-0.7,0.3-1,0.3C20.6,39,20.1,38.6,19.7,38.3z M18.1,40.3c-0.5,0.3-0.8,0.8-1.3,1.2
				c-0.7,0.5-1.5,0.6-2.3,0.8c0.4-0.8,0.9-1.5,1.9-1.6C17,40.6,17.5,40.5,18.1,40.3z M14.5,42.4c0.7-0.2,1.5-0.3,2.1-0.7
				c0.5-0.4,0.9-0.9,1.4-1.3c-0.1,0.1-0.2,0.3-0.3,0.4c-0.3,0.4-0.4,0.9-0.7,1.3C16.5,42.9,15.4,43.1,14.5,42.4z M14.7,45.5
				c0.2,0.2,0.4,0.4,0.6,0.6c-0.4-0.2-0.8-0.4-1.2-0.6c-0.4-0.2-0.7-0.3-1.1-0.3C13.5,44.9,14.2,45.1,14.7,45.5z M13,45.4
				c0.3,0,0.5,0,0.7,0.1c0.2,0.1,0.4,0.2,0.6,0.3c0.3,0.2,0.5,0.3,0.8,0.4c-0.3,0-0.6-0.1-1-0.2C13.7,45.9,13.4,45.6,13,45.4z
				 M14.4,50.6c-0.1,0.3-0.2,0.6-0.2,0.9c-0.1,0.6-0.3,0.9-0.7,1.3C12.9,51.9,13.8,51.3,14.4,50.6z M13.7,52.8
				c0.2-0.3,0.5-0.6,0.6-0.9c0.1-0.2,0.1-0.5,0.1-0.7c0.1-0.3,0.2-0.6,0.3-0.8c0,0.4,0.1,0.7,0.1,1C14.7,51.9,14.3,52.8,13.7,52.8z
				 M9.3,49.3c0.2,0.4,0.5,0.7,0.9,1c0.4,0.3,0.9,0.5,1.4,0.8c-0.6,0.3-1.3,0.1-1.8-0.5C9.5,50.3,9.4,49.8,9.3,49.3z M11.7,51
				L11.7,51c-0.5-0.2-1-0.4-1.4-0.7c-0.4-0.3-0.8-0.7-1-1.1c0.4,0.2,0.7,0.4,1.1,0.5C11.1,49.9,11.9,50.1,11.7,51z M8.1,44
				c0.4,0.6,0.7,1.2,1.2,1.7s1.1,0.8,1.5,1.3c-0.9-0.2-1.6-0.5-2.1-1.2C8.4,45.2,8.2,44.6,8.1,44z M11,46.8L11,46.8
				c-0.4-0.5-0.9-0.8-1.4-1.2c-0.6-0.5-1-1.1-1.3-1.7C9.4,44.8,11.2,45.2,11,46.8z M9.6,41.9c-0.1-0.8,0.1-1.5,0.3-2.3
				c0.1,0.7,0.2,1.5,0.5,2.2c0.1,0.3,0.3,0.7,0.4,1c0.2,0.4,0.5,0.6,0.5,1.1C10.2,43.7,9.6,42.8,9.6,41.9z M11.4,43.7
				c0-0.2-0.1-0.5-0.2-0.7c-0.3-0.4-0.4-0.7-0.6-1.1c-0.3-0.8-0.4-1.6-0.6-2.5c0.5,0.7,0.9,1.3,1.4,1.9
				C11.9,42.2,11.8,42.9,11.4,43.7z M13.1,34.5c-0.2,1.4,0.2,2.8,0.1,4.2c-1.2-0.3-1.1-1.4-0.8-2.3C12.6,35.7,12.8,35.1,13.1,34.5z
				 M13.3,38.6c0.1-1.4-0.3-2.7-0.1-4.1C13.7,35.9,14.7,37.8,13.3,38.6z M22.5,32.3c0,0.2,0,0.3-0.1,0.5c-0.1,0-0.2,0.1-0.3,0.1
				c-0.6,0.2-1.1,0.5-1.5,0.9c0.1-0.4,0.5-1,0.6-1.2c0.2-0.2,0.3-0.4,0.5-0.5C22.1,31.9,22.3,32,22.5,32.3z M23.5,32.1L23.5,32.1
				L23.5,32.1c0-0.2,0.1-0.2,0.2-0.1C23.6,32.1,23.5,32.2,23.5,32.1z M23.3,33.5c-0.4,0.8-1.9,0.7-2.7,0.7c0,0,0,0,0-0.1
				c0.3-0.5,0.8-0.8,1.3-1c0.3-0.1,0.5-0.2,0.7-0.2C23,32.9,23.7,32.8,23.3,33.5z M24,34.3c0,0,0-0.1,0-0.1c0,0,0.1,0,0.1-0.1
				c0-0.1,0.1,0,0.1,0v0.1C24.1,34.3,24,34.3,24,34.3z M20.8,34.4c0.7,0,1.5,0,2.1-0.3c0.1,0.1,0.2,0.1,0.2,0.2
				c0,0.4-0.2,0.5-0.5,0.6c-0.3,0.1-0.5,0-0.8-0.1C21.7,34.7,21.1,34.5,20.8,34.4z M17.3,34.4c0.2-0.5,0.3-1.1,0.4-1.7
				c0.1-0.7,0.4-1.3,0.8-1.8c-0.1,0.4-0.1,0.9-0.1,1.3C18.3,33.1,18.1,33.9,17.3,34.4z M18.4,30.7c-0.4,0.5-0.7,1-0.8,1.6
				c-0.2,0.7-0.2,1.4-0.5,2c0-0.1-0.1-0.3-0.1-0.4c-0.2-0.5-0.2-1-0.1-1.5C17.2,31.7,17.8,31.2,18.4,30.7z"/>
		</g>
		<g>
			<path class="st0" d="M43.3,35.3l-14.8-7C21.1,24.8,21,17.8,21,17.7c0-7.1,4.8-9.5,6.3-10.1c-3.8,1-7.1,3.3-9.2,6.6
				c-2.5,3.8-3,8.5-1.4,12.6C20,35.2,34.2,40,34.3,40.1c0,0,2.6,0.9,5.3,2.8c2.5,1.8,5.5,5,6,9.8c0.5,4.8-1.4,8-3,9.9
				c-1.2,1.4-2.4,2.2-3.1,2.6c1.8,0.1,4-0.8,6.1-2.6c3.1-2.7,6.6-7.9,6.3-14C51.4,39.7,43.4,35.3,43.3,35.3z M47.4,56.9
				c0.7-3.6,2.8-13.5-14.3-19.9c-19.2-7.1-14.3-17.9-14.3-17.9c1,13.7,23.8,15.3,28.7,22.8C52.7,50.1,47.4,56.9,47.4,56.9z"/>
			<path class="st0" d="M52.3,48.6c-0.4-9.1-8.7-13.6-8.8-13.7l-14.8-7c-3.8-1.8-5.5-4.5-6.3-6.4c-0.9-2.1-0.9-3.8-0.9-3.8
				c0-8,6.1-9.7,6.4-9.8c2.8-0.8,5.2-0.9,7.4-0.6c4.4,0.8,7.3,3.1,9.1,5.1c1.6,1.9,2.4,3.6,2.4,3.6c0.1,0.1,0.2,0.2,0.3,0.1
				c0.1-0.1,0.2-0.2,0.1-0.3c0-0.1-0.7-1.7-2.4-3.6c-1.9-2.2-5-4.8-9.6-5.4c-1.2-0.2-2.5-0.3-3.9-0.2C25.6,6.9,20.7,9.5,17.7,14
				c-2.6,4-3.1,8.8-1.5,13c3.5,8.7,17.8,13.6,18,13.6c0,0,2.6,0.8,5.2,2.7c2.4,1.8,5.3,4.8,5.8,9.5c0.9,8.9-6.3,12.4-6.4,12.4
				c-0.1,0.1-0.1,0.1-0.1,0.2c0,0.1,0.1,0.2,0.2,0.2c0.3,0.1,0.7,0.1,1,0.1c1.9,0,4-1,6.1-2.7C49,60.2,52.6,54.8,52.3,48.6z
				 M38.8,65.3c0,0,7.4-3.5,6.5-12.6c-0.9-9.1-11.1-12.4-11.1-12.4S20,35.5,16.4,26.9c-3.5-8.7,3-19.6,14.8-20
				c1.3-0.1,2.5,0,3.7,0.2c4.8,0.6,8,3.3,9.9,5.6c1.5,1.8,2.1,3.4,2.1,3.4s-0.7-1.5-2.1-3.4c-1.8-2.2-5-4.8-9.9-5.6
				c-2.1-0.3-4.4-0.1-7.1,0.7c0,0-6.5,1.7-6.5,10c0,0,0,7,7.4,10.4s14.8,7,14.8,7s8.3,4.3,8.7,13.5C52.5,57.7,44.3,66.4,38.8,65.3z"
				/>
		</g>
		<g>
			<g>
				<path class="st0" d="M55.6,78.3H42.6c-0.1,0-2.4,0.2-4-1.3c-1-0.9-1.4-2.1-1.4-3.7V44.8l-8.3-4.1v38.2h35.7l1.1-11.5
					c-0.4,1.2-0.9,2.7-1.6,4.2C61.8,76,58.9,78.3,55.6,78.3z M34.4,77.5h-2.9V44l2.9,1.3V77.5z"/>
				<path class="st0" d="M66.1,64.4c-0.1,0-0.2,0.1-0.3,0.2c0,0.1-2.7,13.3-10.2,13.3H42.6c0,0-2.3,0.2-3.7-1.2
					c-0.9-0.8-1.3-1.9-1.3-3.4V44.6c0-0.1-0.1-0.2-0.1-0.2l-8.7-4.3c-0.1,0-0.2,0-0.2,0c-0.1,0.1-0.1,0.1-0.1,0.2V79
					c0,0.1,0.1,0.2,0.2,0.2h36.1c0.1,0,0.2-0.1,0.2-0.2l1.3-14.4C66.3,64.6,66.2,64.4,66.1,64.4z M64.7,79H28.6V40.3l8.7,4.3
					c0,0,0,23.5,0,28.7c0,5.2,5.2,4.8,5.2,4.8s5.2,0,13.1,0s10.4-13.5,10.4-13.5L64.7,79z"/>
			</g>
			<g>
				<path class="st0" d="M37.1,19l-8.3,2.5v4.3l8.3,3.5V19z M34.4,26.4l-2.9-1v-2.9l2.9-0.7V26.4z"/>
				<path class="st0" d="M37.5,18.6c-0.1-0.1-0.1-0.1-0.2,0l-8.7,2.6c-0.1,0-0.2,0.1-0.2,0.2V26c0,0.1,0.1,0.2,0.1,0.2l8.7,3.7h0.1
					c0.1,0,0.1,0,0.1,0c0.1-0.1,0.1-0.1,0.1-0.2V18.7C37.6,18.7,37.5,18.6,37.5,18.6z M37.3,29.6L28.6,26v-4.6l8.7-2.6
					C37.3,18.8,37.3,29.6,37.3,29.6z"/>
			</g>
		</g>
		<path class="st0" d="M30.2,67.5c-8.7,0-15.8-7.1-15.8-15.8c0-8.2,6.3-15,14.3-15.7c-0.1-0.1-0.1-0.2-0.2-0.3
			c-8.1,0.9-14.5,7.7-14.5,16c0,8.9,7.2,16.1,16.1,16.1c1.7,0,3.3-0.3,4.9-0.8c-0.1-0.1-0.1-0.2-0.1-0.3
			C33.4,67.3,31.9,67.5,30.2,67.5z"/>
	</g>
	<g>
		<g>
			<g>
				<path class="st0" d="M84.7,23h8.7v1.2H86v5.1h6.9v1.2H86v5.6h7.7v1.2h-9.1L84.7,23L84.7,23z"/>
				<path class="st0" d="M106.8,23h1.4l4.6,12.5l4.6-12.5h1.4l-5.4,14.3h-1.3L106.8,23z"/>
				<path class="st0" d="M132.9,23h8.7v1.2h-7.4v5.1h6.9v1.2h-6.9v5.6h7.7v1.2h-9.1L132.9,23L132.9,23z"/>
				<path class="st0" d="M157,23h1.7l8.7,12.5l0,0V23h1.3v14.3h-1.6l-8.7-12.5l0,0v12.5h-1.3L157,23L157,23z"/>
				<path class="st0" d="M188,24.2h-4.9V23h11.1v1.2h-4.9v13.1H188L188,24.2L188,24.2z"/>
				<path class="st0" d="M207.7,30.2c0-1.1,0.2-2.1,0.5-3s0.8-1.7,1.5-2.4c0.6-0.6,1.4-1.2,2.3-1.5c0.9-0.4,1.9-0.5,3-0.5
					s2.1,0.2,3,0.5c0.9,0.4,1.7,0.9,2.3,1.5s1.1,1.4,1.5,2.4c0.3,0.9,0.5,1.9,0.5,3s-0.2,2.1-0.5,3s-0.8,1.7-1.5,2.4
					c-0.6,0.6-1.4,1.2-2.3,1.5c-0.9,0.3-1.9,0.5-3,0.5s-2.1-0.2-3-0.5s-1.7-0.9-2.3-1.5s-1.1-1.4-1.5-2.4
					C207.9,32.3,207.7,31.3,207.7,30.2z M209,30.2c0,0.9,0.1,1.7,0.4,2.5c0.3,0.7,0.7,1.4,1.2,2c0.5,0.5,1.1,1,1.9,1.3
					c0.7,0.3,1.6,0.5,2.5,0.5s1.7-0.1,2.5-0.5c0.7-0.3,1.4-0.7,1.9-1.3c0.5-0.5,0.9-1.2,1.2-2c0.3-0.7,0.4-1.6,0.4-2.5
					s-0.1-1.7-0.4-2.5c-0.3-0.7-0.7-1.4-1.2-2c-0.5-0.5-1.1-1-1.9-1.3c-0.7-0.3-1.6-0.5-2.5-0.5s-1.7,0.1-2.5,0.5
					c-0.7,0.3-1.4,0.7-1.9,1.3c-0.5,0.5-0.9,1.2-1.2,2C209.2,28.5,209,29.3,209,30.2z"/>
				<path class="st0" d="M238,34.7c0.3,0.6,0.8,1,1.3,1.3s1.2,0.4,1.9,0.4c0.4,0,0.8,0,1.2-0.2c0.4-0.1,0.7-0.3,1-0.5
					s0.5-0.5,0.7-0.9c0.1-0.3,0.2-0.7,0.2-1.1c0-0.5-0.1-0.9-0.3-1.2s-0.5-0.6-0.8-0.8s-0.7-0.4-1.2-0.5c-0.4-0.1-0.9-0.3-1.3-0.4
					c-0.4-0.1-0.9-0.3-1.3-0.5c-0.4-0.2-0.8-0.4-1.2-0.7c-0.3-0.3-0.6-0.7-0.8-1.1s-0.3-1-0.3-1.7s0.1-1.2,0.3-1.7s0.6-0.9,1-1.2
					s0.9-0.6,1.4-0.7s1.1-0.2,1.7-0.2c0.8,0,1.5,0.1,2.2,0.4c0.6,0.3,1.2,0.7,1.7,1.4l-1.1,0.8c-0.3-0.4-0.7-0.8-1.2-1
					c-0.4-0.2-1-0.3-1.6-0.3c-0.4,0-0.8,0-1.2,0.1s-0.7,0.3-1,0.5s-0.5,0.5-0.7,0.8s-0.2,0.7-0.2,1.2c0,0.7,0.2,1.2,0.5,1.6
					c0.3,0.4,0.8,0.7,1.3,0.9s1.1,0.4,1.8,0.6c0.6,0.1,1.2,0.4,1.8,0.7c0.5,0.3,1,0.7,1.3,1.2s0.5,1.2,0.5,2.1
					c0,0.6-0.1,1.2-0.3,1.7s-0.5,0.9-1,1.2c-0.4,0.3-0.9,0.6-1.4,0.8c-0.5,0.1-1.1,0.2-1.7,0.2c-0.9,0-1.8-0.1-2.6-0.5
					c-0.8-0.3-1.5-0.9-2-1.6L238,34.7z"/>
			</g>
		</g>
		<g>
			<path class="st0" d="M84.6,54.9c0-0.7,0.1-1.4,0.4-2.1c0.2-0.6,0.6-1.2,1-1.6c0.4-0.4,1-0.8,1.6-1.1c0.6-0.2,1.3-0.4,2.1-0.4
				c0.7,0,1.4,0.1,2.1,0.4c0.6,0.2,1.1,0.6,1.6,1.1c0.4,0.4,0.8,1,1,1.6c0.2,0.6,0.4,1.3,0.4,2.1c0,0.7-0.1,1.4-0.4,2.1
				c-0.2,0.6-0.6,1.2-1,1.6c-0.4,0.4-1,0.8-1.6,1.1c-0.6,0.2-1.3,0.4-2.1,0.4c-0.7,0-1.4-0.1-2.1-0.4c-0.6-0.2-1.1-0.6-1.6-1.1
				c-0.4-0.4-0.8-1-1-1.6C84.8,56.4,84.6,55.7,84.6,54.9z M85.6,54.9c0,0.6,0.1,1.2,0.3,1.7c0.2,0.5,0.5,1,0.8,1.4
				c0.3,0.4,0.8,0.7,1.3,0.9s1.1,0.3,1.7,0.3c0.6,0,1.2-0.1,1.7-0.3s0.9-0.5,1.3-0.9c0.3-0.4,0.6-0.8,0.8-1.4
				c0.2-0.5,0.3-1.1,0.3-1.7c0-0.6-0.1-1.2-0.3-1.7c-0.2-0.5-0.5-1-0.8-1.4c-0.3-0.4-0.8-0.7-1.3-0.9s-1.1-0.3-1.7-0.3
				c-0.6,0-1.2,0.1-1.7,0.3s-0.9,0.5-1.3,0.9c-0.3,0.4-0.6,0.8-0.8,1.4C85.7,53.7,85.6,54.3,85.6,54.9z"/>
			<path class="st0" d="M96.7,55.2c0-0.1,0-0.2,0-0.4c0-0.1,0-0.3,0-0.5s0-0.3,0-0.5s0-0.2,0-0.3h0.8c0,0.2,0,0.5,0,0.7s0,0.3,0,0.4
				c0.2-0.4,0.5-0.7,0.8-0.9c0.3-0.2,0.7-0.3,1.2-0.3c0.1,0,0.1,0,0.2,0c0.1,0,0.1,0,0.2,0l0.2,0.7c-0.1,0-0.2,0-0.3,0
				c-0.3,0-0.7,0-0.9,0.2c-0.2,0.1-0.5,0.3-0.6,0.5s-0.3,0.4-0.4,0.7s-0.1,0.5-0.1,0.9v3.5h-0.9v-4.7H96.7z"/>
			<path class="st0" d="M107.6,59.5c0,0.8-0.1,1.4-0.3,1.9c-0.2,0.5-0.5,0.9-0.9,1.1c-0.3,0.2-0.7,0.4-1.1,0.5
				c-0.4,0.1-0.7,0.1-1.1,0.1c-0.3,0-0.6,0-0.9-0.1c-0.3,0-0.6-0.1-0.9-0.2c-0.3-0.1-0.5-0.2-0.7-0.4c-0.2-0.1-0.4-0.3-0.6-0.6
				l0.6-0.6c0.3,0.4,0.6,0.7,1.1,0.9c0.4,0.2,0.9,0.3,1.4,0.3c0.4,0,0.8,0,1.1-0.1c0.3-0.1,0.5-0.2,0.7-0.4c0.2-0.2,0.3-0.4,0.4-0.6
				c0.1-0.2,0.2-0.4,0.2-0.6c0-0.2,0.1-0.4,0.1-0.6c0-0.2,0-0.3,0-0.5v-0.9l0,0c-0.2,0.4-0.5,0.7-1,0.9c-0.4,0.2-0.9,0.3-1.4,0.3
				s-0.9-0.1-1.3-0.2c-0.4-0.1-0.8-0.4-1.1-0.7c-0.3-0.3-0.5-0.6-0.7-1c-0.2-0.4-0.2-0.8-0.2-1.3c0-0.4,0.1-0.9,0.2-1.3
				c0.2-0.4,0.4-0.7,0.7-1c0.3-0.3,0.7-0.5,1.1-0.7s0.8-0.2,1.3-0.2s1,0.1,1.4,0.3s0.7,0.5,1,0.9l0,0v-1.1h0.8L107.6,59.5
				L107.6,59.5z M106.8,56.5c0-0.3,0-0.7-0.2-1c-0.1-0.3-0.3-0.6-0.5-0.8c-0.2-0.2-0.5-0.4-0.8-0.5c-0.3-0.1-0.6-0.2-1-0.2
				c-0.3,0-0.7,0-1,0.2c-0.3,0.2-0.6,0.3-0.8,0.5c-0.2,0.2-0.4,0.5-0.5,0.8s-0.2,0.6-0.2,1c0,0.3,0,0.7,0.2,1
				c0.1,0.3,0.3,0.6,0.5,0.8c0.2,0.2,0.5,0.4,0.8,0.5c0.3,0.1,0.6,0.2,1,0.2c0.3,0,0.7,0,1-0.2c0.3-0.1,0.6-0.3,0.8-0.5
				c0.2-0.2,0.4-0.5,0.5-0.8C106.7,57.2,106.8,56.9,106.8,56.5z"/>
			<path class="st0" d="M114.7,57.2c0,0.3,0,0.6,0,0.8s0,0.5,0,0.7s0,0.4,0,0.6c0,0.2,0,0.3,0,0.5h-0.8c0-0.3-0.1-0.6-0.1-1l0,0
				c-0.2,0.4-0.5,0.7-0.9,0.9c-0.3,0.2-0.8,0.3-1.3,0.3c-0.3,0-0.5,0-0.8-0.1c-0.2,0-0.5-0.2-0.7-0.3c-0.2-0.1-0.4-0.3-0.5-0.6
				c-0.1-0.2-0.2-0.5-0.2-0.9c0-0.5,0.1-0.9,0.4-1.2s0.5-0.5,0.9-0.6c0.3-0.1,0.7-0.2,1.2-0.3c0.4,0,0.8,0,1.1,0h1v-0.4
				c0-0.5-0.1-0.9-0.5-1.2c-0.3-0.2-0.8-0.3-1.3-0.3c-0.7,0-1.4,0.2-2,0.7l-0.5-0.5c0.3-0.3,0.7-0.5,1.1-0.7
				c0.4-0.1,0.9-0.2,1.3-0.2c0.8,0,1.4,0.2,1.9,0.5c0.4,0.3,0.7,0.9,0.7,1.8L114.7,57.2L114.7,57.2z M113,56.6c-0.3,0-0.7,0-1,0
				c-0.3,0-0.6,0.1-0.9,0.2s-0.5,0.2-0.6,0.4s-0.2,0.4-0.2,0.7c0,0.2,0,0.3,0.1,0.5c0.1,0.1,0.2,0.3,0.3,0.4
				c0.1,0.1,0.3,0.1,0.4,0.2c0.1,0,0.3,0.1,0.5,0.1c0.4,0,0.8,0,1.1-0.2c0.3-0.1,0.5-0.3,0.7-0.5c0.1-0.2,0.3-0.4,0.3-0.7
				c0-0.2,0.1-0.5,0.1-0.8v-0.4L113,56.6L113,56.6z"/>
			<path class="st0" d="M116.9,55.2c0-0.1,0-0.2,0-0.4c0-0.1,0-0.3,0-0.5s0-0.3,0-0.5s0-0.2,0-0.3h0.8c0,0.2,0,0.5,0,0.7
				s0,0.3,0,0.4l0,0c0.1-0.3,0.4-0.6,0.8-0.9c0.4-0.2,0.8-0.4,1.3-0.4s0.9,0.1,1.2,0.2c0.3,0.1,0.5,0.3,0.7,0.6
				c0.2,0.2,0.3,0.5,0.4,0.9c0,0.3,0.1,0.7,0.1,1v3.8h-0.8v-3.7c0-0.2,0-0.5,0-0.7s-0.1-0.4-0.2-0.6c-0.1-0.2-0.3-0.3-0.5-0.4
				c-0.2-0.1-0.5-0.2-0.8-0.2s-0.6,0-0.9,0.1s-0.5,0.2-0.7,0.5c-0.2,0.2-0.3,0.5-0.5,0.8c-0.1,0.3-0.2,0.7-0.2,1.1v3.2h-0.8
				L116.9,55.2L116.9,55.2z"/>
			<path class="st0" d="M124.7,50.8c0-0.2,0-0.3,0.2-0.4c0.1-0.1,0.2-0.2,0.4-0.2s0.3,0,0.4,0.2c0.1,0.1,0.2,0.2,0.2,0.4
				s0,0.3-0.2,0.4c-0.1,0.1-0.2,0.2-0.4,0.2s-0.3,0-0.4-0.2C124.7,51.2,124.7,51,124.7,50.8z M124.9,53.4h0.8v6.4h-0.8V53.4z"/>
			<path class="st0" d="M127.3,59.4l3.9-5.2h-3.7v-0.7h4.8V54l-3.8,5.2h4v0.7h-5.2L127.3,59.4L127.3,59.4z"/>
			<path class="st0" d="M139.1,57.2c0,0.3,0,0.6,0,0.8s0,0.5,0,0.7s0,0.4,0,0.6c0,0.2,0,0.3,0,0.5h-0.8c0-0.3-0.1-0.6-0.1-1l0,0
				c-0.2,0.4-0.5,0.7-0.9,0.9c-0.3,0.2-0.8,0.3-1.3,0.3c-0.3,0-0.5,0-0.8-0.1c-0.2,0-0.5-0.2-0.7-0.3s-0.4-0.3-0.5-0.6
				c-0.1-0.2-0.2-0.5-0.2-0.9c0-0.5,0.1-0.9,0.4-1.2s0.5-0.5,0.9-0.6c0.3-0.1,0.7-0.2,1.2-0.3c0.4,0,0.8,0,1.1,0h1v-0.4
				c0-0.5-0.1-0.9-0.5-1.2c-0.3-0.2-0.8-0.3-1.3-0.3c-0.7,0-1.4,0.2-2,0.7l-0.5-0.5c0.3-0.3,0.7-0.5,1.1-0.7
				c0.4-0.1,0.9-0.2,1.3-0.2c0.8,0,1.4,0.2,1.9,0.5c0.4,0.3,0.7,0.9,0.7,1.8V57.2L139.1,57.2z M137.4,56.6c-0.3,0-0.7,0-1,0
				s-0.6,0.1-0.9,0.2s-0.5,0.2-0.6,0.4c-0.1,0.2-0.2,0.4-0.2,0.7c0,0.2,0,0.3,0.1,0.5c0.1,0.1,0.2,0.3,0.3,0.4
				c0.1,0.1,0.3,0.1,0.4,0.2c0.1,0,0.3,0.1,0.5,0.1c0.4,0,0.8,0,1.1-0.2c0.3-0.1,0.5-0.3,0.7-0.5c0.1-0.2,0.3-0.4,0.3-0.7
				c0-0.2,0.1-0.5,0.1-0.8v-0.4L137.4,56.6L137.4,56.6z"/>
			<path class="st0" d="M141.3,55.2c0-0.1,0-0.2,0-0.4c0-0.1,0-0.3,0-0.5s0-0.3,0-0.5s0-0.2,0-0.3h0.8c0,0.2,0,0.5,0,0.7
				s0,0.3,0,0.4l0,0c0.1-0.3,0.4-0.6,0.8-0.9c0.4-0.2,0.8-0.4,1.3-0.4s0.9,0.1,1.2,0.2c0.3,0.1,0.5,0.3,0.7,0.6
				c0.2,0.2,0.3,0.5,0.4,0.9c0,0.3,0.1,0.7,0.1,1v3.8h-0.5v-3.7c0-0.2,0-0.5,0-0.7s-0.1-0.4-0.2-0.6c-0.1-0.2-0.3-0.3-0.5-0.4
				c-0.2-0.1-0.5-0.2-0.8-0.2s-0.6,0-0.9,0.1s-0.5,0.2-0.7,0.5c-0.2,0.2-0.3,0.5-0.5,0.8c-0.1,0.3-0.2,0.7-0.2,1.1v3.2h-0.8
				L141.3,55.2L141.3,55.2z"/>
			<path class="st0" d="M154.7,58.7L154.7,58.7c-0.1,0.2-0.3,0.4-0.5,0.6c-0.2,0.1-0.4,0.3-0.6,0.4s-0.4,0.2-0.7,0.2
				c-0.3,0-0.5,0.1-0.7,0.1c-0.5,0-0.9-0.1-1.3-0.2c-0.4-0.1-0.8-0.4-1.1-0.7c-0.3-0.3-0.5-0.6-0.7-1.1c-0.1-0.4-0.2-0.8-0.2-1.3
				s0.1-0.9,0.2-1.3c0.1-0.4,0.4-0.8,0.7-1.1s0.6-0.5,1.1-0.7c0.4-0.1,0.9-0.2,1.3-0.2c0.2,0,0.5,0,0.7,0.1s0.5,0.1,0.7,0.2
				c0.2,0.1,0.4,0.2,0.6,0.4c0.2,0.1,0.3,0.3,0.5,0.6l0,0v-5.2h0.8v10.6h-0.8V58.7L154.7,58.7z M154.8,56.6c0-0.3,0-0.7-0.2-1
				c-0.1-0.3-0.3-0.6-0.5-0.8s-0.5-0.4-0.8-0.5s-0.7-0.2-1-0.2c-0.4,0-0.7,0-1,0.2s-0.6,0.3-0.8,0.5c-0.2,0.2-0.4,0.5-0.5,0.8
				c-0.1,0.3-0.2,0.6-0.2,1c0,0.3,0,0.7,0.2,1c0.1,0.3,0.3,0.6,0.5,0.8s0.5,0.4,0.8,0.5s0.6,0.2,1,0.2c0.4,0,0.7,0,1-0.2
				c0.3-0.1,0.6-0.3,0.8-0.5s0.4-0.5,0.5-0.8C154.7,57.3,154.8,57,154.8,56.6z"/>
			<path class="st0" d="M157.3,56.6c0-0.5,0.1-0.9,0.2-1.3c0.1-0.4,0.4-0.8,0.7-1.1c0.3-0.3,0.6-0.5,1.1-0.7
				c0.4-0.1,0.9-0.2,1.3-0.2c0.4,0,0.9,0.1,1.3,0.2c0.4,0.1,0.8,0.4,1.1,0.7c0.3,0.3,0.5,0.6,0.7,1.1c0.1,0.4,0.2,0.8,0.2,1.3
				s-0.1,0.9-0.2,1.3c-0.1,0.4-0.4,0.8-0.7,1.1s-0.6,0.5-1.1,0.7c-0.4,0.1-0.8,0.2-1.3,0.2s-0.9-0.1-1.3-0.2
				c-0.4-0.1-0.8-0.4-1.1-0.7s-0.5-0.6-0.7-1.1C157.4,57.5,157.3,57.1,157.3,56.6z M158.1,56.6c0,0.3,0,0.7,0.2,1
				c0.1,0.3,0.3,0.6,0.5,0.8s0.5,0.4,0.8,0.5s0.6,0.2,1,0.2c0.4,0,0.7,0,1-0.2c0.3-0.1,0.6-0.3,0.8-0.5s0.4-0.5,0.5-0.8
				c0.1-0.3,0.1-0.6,0.1-1c0-0.3,0-0.7-0.1-1c-0.1-0.3-0.3-0.6-0.5-0.8s-0.5-0.4-0.8-0.5s-0.6-0.2-1-0.2c-0.4,0-0.7,0-1,0.2
				c-0.3,0.1-0.6,0.3-0.8,0.5c-0.2,0.2-0.4,0.5-0.5,0.8C158.2,55.9,158.1,56.3,158.1,56.6z"/>
			<path class="st0" d="M169.8,49.9h6v0.8h-5.1v3.5h4.8V55h-4.8v3.8h5.4v0.8h-6.3V49.9z"/>
			<path class="st0" d="M179.6,56.4l-2.3-2.9h1.1l1.8,2.4l1.8-2.4h1l-2.3,2.9l2.7,3.5h-1.1l-2.2-2.9l-2.2,2.9h-1L179.6,56.4z"/>
			<path class="st0" d="M184.4,53.4h0.8v1.1l0,0c0.1-0.2,0.3-0.4,0.5-0.6c0.2-0.1,0.4-0.3,0.6-0.4c0.2-0.1,0.4-0.2,0.7-0.2
				c0.2,0,0.5-0.1,0.7-0.1c0.5,0,0.9,0.1,1.3,0.2c0.4,0.1,0.8,0.4,1.1,0.7s0.5,0.6,0.7,1.1c0.1,0.4,0.2,0.8,0.2,1.3
				s-0.1,0.9-0.2,1.3s-0.4,0.8-0.7,1.1s-0.6,0.5-1.1,0.7c-0.4,0.1-0.8,0.2-1.3,0.2c-0.2,0-0.5,0-0.7-0.1c-0.2,0-0.5-0.1-0.7-0.2
				s-0.4-0.2-0.6-0.4c-0.2-0.1-0.3-0.3-0.5-0.6l0,0v4.3h-0.8V53.4z M185.2,56.6c0,0.3,0,0.7,0.2,1c0.1,0.3,0.3,0.6,0.5,0.8
				s0.5,0.4,0.8,0.5s0.7,0.2,1,0.2c0.4,0,0.7,0,1-0.2c0.3-0.1,0.6-0.3,0.8-0.5s0.4-0.5,0.5-0.8s0.2-0.6,0.2-1c0-0.3,0-0.7-0.2-1
				c-0.1-0.3-0.3-0.6-0.5-0.8s-0.5-0.4-0.8-0.5s-0.6-0.2-1-0.2s-0.7,0-1,0.2c-0.3,0.1-0.6,0.3-0.8,0.5s-0.4,0.5-0.5,0.8
				C185.2,55.9,185.2,56.3,185.2,56.6z"/>
			<path class="st0" d="M198.9,58.7c-0.3,0.5-0.7,0.8-1.2,1c-0.4,0.2-1,0.3-1.6,0.3c-0.5,0-0.9-0.1-1.3-0.2c-0.4-0.1-0.7-0.4-1-0.7
				s-0.5-0.6-0.6-1.1c-0.1-0.4-0.2-0.9-0.2-1.4s0.1-0.9,0.2-1.3c0.1-0.4,0.4-0.7,0.6-1c0.3-0.3,0.6-0.5,1-0.7
				c0.4-0.1,0.8-0.2,1.3-0.2s0.9,0.1,1.3,0.2c0.4,0.1,0.7,0.4,0.9,0.7s0.4,0.6,0.6,0.9c0.1,0.3,0.2,0.7,0.2,1.1v0.6h-5.4
				c0,0.2,0,0.4,0.1,0.7c0,0.3,0.2,0.5,0.4,0.8c0.2,0.2,0.4,0.5,0.7,0.6c0.3,0.2,0.7,0.3,1.2,0.3c0.4,0,0.8-0.1,1.2-0.3
				s0.7-0.5,0.9-0.8L198.9,58.7z M198.2,56.1c0-0.3,0-0.5-0.2-0.8c-0.1-0.2-0.3-0.4-0.5-0.6c-0.2-0.2-0.4-0.3-0.7-0.4
				c-0.3-0.1-0.5-0.1-0.9-0.1s-0.8,0.1-1.1,0.3s-0.5,0.4-0.7,0.6c-0.2,0.2-0.3,0.5-0.4,0.7c0,0.2-0.1,0.4-0.1,0.4L198.2,56.1
				L198.2,56.1z"/>
			<path class="st0" d="M201,55.2c0-0.1,0-0.2,0-0.4c0-0.1,0-0.3,0-0.5s0-0.3,0-0.5s0-0.2,0-0.3h0.8c0,0.2,0,0.5,0,0.7s0,0.3,0,0.4
				c0.2-0.4,0.5-0.7,0.8-0.9s0.7-0.3,1.2-0.3c0.1,0,0.1,0,0.2,0s0.1,0,0.2,0l-0.1,0.8c-0.1,0-0.2,0-0.3,0c-0.3,0-0.7,0-0.9,0.2
				c-0.2,0.1-0.5,0.3-0.6,0.5s-0.3,0.4-0.4,0.7c-0.1,0.3-0.1,0.5-0.1,0.9V60h-0.7L201,55.2L201,55.2z"/>
			<path class="st0" d="M205.6,50.8c0-0.2,0-0.3,0.2-0.4c0.1-0.1,0.2-0.2,0.4-0.2s0.3,0,0.4,0.2c0.1,0.1,0.2,0.2,0.2,0.4
				s0,0.3-0.2,0.4c-0.1,0.1-0.2,0.2-0.4,0.2s-0.3,0-0.4-0.2C205.6,51.2,205.6,51,205.6,50.8z M205.8,53.4h0.8v6.4h-0.8V53.4z"/>
			<path class="st0" d="M214.7,58.7c-0.3,0.5-0.7,0.8-1.2,1c-0.4,0.2-1,0.3-1.6,0.3c-0.5,0-0.9-0.1-1.3-0.2c-0.4-0.1-0.7-0.4-1-0.7
				s-0.5-0.6-0.6-1.1s-0.2-0.9-0.2-1.4s0.1-0.9,0.2-1.3c0.1-0.4,0.4-0.7,0.6-1c0.3-0.3,0.6-0.5,1-0.7c0.4-0.1,0.8-0.2,1.3-0.2
				s0.9,0.1,1.3,0.2c0.4,0.1,0.7,0.4,0.9,0.7s0.4,0.6,0.6,0.9c0.1,0.3,0.2,0.7,0.2,1.1v0.6h-5.4c0,0.2,0,0.4,0.1,0.7
				c0,0.3,0.2,0.5,0.4,0.8c0.2,0.2,0.4,0.5,0.7,0.6c0.3,0.2,0.7,0.3,1.2,0.3c0.4,0,0.8-0.1,1.2-0.3s0.7-0.5,0.9-0.8L214.7,58.7z
				 M214.1,56.1c0-0.3,0-0.5-0.2-0.8c-0.1-0.2-0.3-0.4-0.5-0.6c-0.2-0.2-0.4-0.3-0.7-0.4c-0.3-0.1-0.5-0.1-0.9-0.1s-0.8,0.1-1.1,0.3
				s-0.5,0.4-0.7,0.6c-0.2,0.2-0.3,0.5-0.4,0.7c0,0.2-0.1,0.4-0.1,0.4L214.1,56.1L214.1,56.1z"/>
			<path class="st0" d="M216.8,55.2c0-0.1,0-0.2,0-0.4c0-0.1,0-0.3,0-0.5s0-0.3,0-0.5s0-0.2,0-0.3h0.8c0,0.2,0,0.5,0,0.7
				s0,0.3,0,0.4l0,0c0.1-0.3,0.4-0.6,0.8-0.9c0.4-0.2,0.8-0.4,1.3-0.4s0.9,0.1,1.2,0.2c0.3,0.1,0.5,0.3,0.7,0.6
				c0.2,0.2,0.3,0.5,0.4,0.9c0,0.3,0.1,0.7,0.1,1v3.8h-0.8v-3.7c0-0.2,0-0.5,0-0.7s-0.1-0.4-0.2-0.6c-0.1-0.2-0.3-0.3-0.5-0.4
				c-0.2-0.1-0.5-0.2-0.8-0.2s-0.6,0-0.9,0.1c-0.3,0.1-0.5,0.2-0.7,0.5c-0.2,0.2-0.3,0.5-0.5,0.8c-0.1,0.3-0.2,0.7-0.2,1.1v3.2h-0.8
				L216.8,55.2L216.8,55.2z"/>
			<path class="st0" d="M229.9,58.9c-0.3,0.4-0.7,0.6-1.1,0.8c-0.4,0.2-0.8,0.2-1.3,0.2s-0.9-0.1-1.3-0.2c-0.4-0.1-0.8-0.4-1.1-0.7
				s-0.5-0.6-0.7-1.1c-0.1-0.4-0.2-0.8-0.2-1.3s0.1-0.9,0.2-1.3c0.1-0.4,0.4-0.8,0.7-1.1s0.6-0.5,1.1-0.7c0.4-0.1,0.9-0.2,1.3-0.2
				c0.5,0,0.9,0.1,1.3,0.3c0.4,0.2,0.7,0.4,1.1,0.8l-0.6,0.5c-0.2-0.2-0.5-0.5-0.8-0.6s-0.6-0.2-0.9-0.2c-0.4,0-0.7,0-1,0.2
				c-0.3,0.1-0.6,0.3-0.8,0.5s-0.4,0.5-0.5,0.8s-0.2,0.6-0.2,1c0,0.3,0,0.7,0.2,1c0.1,0.3,0.3,0.6,0.5,0.8s0.5,0.4,0.8,0.5
				s0.6,0.2,1,0.2c0.3,0,0.7-0.1,0.9-0.2c0.3-0.1,0.5-0.4,0.7-0.6L229.9,58.9z"/>
			<path class="st0" d="M231.2,50.8c0-0.2,0-0.3,0.2-0.4c0.1-0.1,0.2-0.2,0.4-0.2s0.3,0,0.4,0.2c0.1,0.1,0.2,0.2,0.2,0.4
				s0,0.3-0.2,0.4c-0.1,0.1-0.2,0.2-0.4,0.2s-0.3,0-0.4-0.2C231.3,51.2,231.2,51,231.2,50.8z M231.4,53.4h0.8v6.4h-0.8V53.4z"/>
			<path class="st0" d="M239.7,57.2c0,0.3,0,0.6,0,0.8s0,0.5,0,0.7s0,0.4,0,0.6c0,0.2,0,0.3,0,0.5h-0.8c0-0.3-0.1-0.6-0.1-1l0,0
				c-0.2,0.4-0.5,0.7-0.9,0.9c-0.3,0.2-0.8,0.3-1.3,0.3c-0.3,0-0.5,0-0.8-0.1c-0.2,0-0.5-0.2-0.7-0.3s-0.4-0.3-0.5-0.6
				c-0.1-0.2-0.2-0.5-0.2-0.9c0-0.5,0.1-0.9,0.4-1.2c0.2-0.3,0.5-0.5,0.9-0.6c0.3-0.1,0.7-0.2,1.2-0.3c0.4,0,0.8,0,1.1,0h1v-0.4
				c0-0.5-0.1-0.9-0.5-1.2c-0.3-0.2-0.8-0.3-1.3-0.3c-0.7,0-1.4,0.2-2,0.7l-0.5-0.5c0.3-0.3,0.7-0.5,1.1-0.7
				c0.4-0.1,0.9-0.2,1.3-0.2c0.8,0,1.4,0.2,1.9,0.5c0.4,0.3,0.7,0.9,0.7,1.8L239.7,57.2L239.7,57.2z M238,56.6c-0.3,0-0.7,0-1,0
				s-0.6,0.1-0.9,0.2c-0.2,0.1-0.5,0.2-0.6,0.4s-0.2,0.4-0.2,0.7c0,0.2,0,0.3,0.1,0.5c0.1,0.1,0.2,0.3,0.3,0.4
				c0.1,0.1,0.3,0.1,0.4,0.2c0.1,0,0.3,0.1,0.5,0.1c0.4,0,0.8,0,1.1-0.2c0.3-0.1,0.5-0.3,0.7-0.5c0.1-0.2,0.3-0.4,0.3-0.7
				c0-0.2,0.1-0.5,0.1-0.8v-0.4L238,56.6L238,56.6z"/>
			<path class="st0" d="M241.9,58.2c0.2,0.3,0.4,0.6,0.8,0.8c0.3,0.2,0.7,0.2,1.1,0.2c0.2,0,0.3,0,0.5-0.1c0.2,0,0.3-0.1,0.5-0.2
				s0.2-0.2,0.3-0.3s0.1-0.3,0.1-0.5c0-0.3-0.1-0.5-0.3-0.6s-0.4-0.2-0.7-0.3s-0.6-0.1-0.9-0.2c-0.3,0-0.6-0.1-0.9-0.3
				c-0.3-0.1-0.5-0.3-0.7-0.5s-0.3-0.5-0.3-0.9c0-0.3,0-0.6,0.2-0.8c0.1-0.2,0.3-0.4,0.5-0.6c0.2-0.1,0.4-0.2,0.7-0.3
				c0.2,0,0.5-0.1,0.8-0.1c0.5,0,1,0.1,1.4,0.3s0.7,0.5,0.9,0.9l-0.7,0.4c-0.1-0.3-0.3-0.5-0.6-0.7c-0.2-0.1-0.5-0.2-0.9-0.2
				c-0.1,0-0.3,0-0.4,0c-0.1,0-0.3,0.1-0.4,0.2c-0.1,0.1-0.2,0.2-0.3,0.3s-0.1,0.3-0.1,0.4c0,0.3,0.1,0.5,0.3,0.6s0.4,0.2,0.7,0.3
				s0.6,0.1,0.9,0.2c0.3,0,0.6,0.1,0.9,0.2c0.3,0.1,0.5,0.3,0.7,0.5s0.3,0.6,0.3,1c0,0.3,0,0.6-0.2,0.9c-0.1,0.2-0.3,0.4-0.5,0.6
				c-0.2,0.1-0.4,0.3-0.7,0.4c-0.3,0.1-0.5,0.1-0.9,0.1c-0.5,0-1-0.1-1.5-0.3c-0.4-0.2-0.8-0.5-1-1L241.9,58.2z"/>
		</g>
	</g>
</g>
</svg>
