<?xml version="1.0" encoding="utf-8"?>
<!-- Generator: Adobe Illustrator 24.0.0, SVG Export Plug-In . SVG Version: 6.00 Build 0)  -->
<svg version="1.1" id="Capa_1" xmlns="http://www.w3.org/2000/svg" xmlns:xlink="http://www.w3.org/1999/xlink" x="0px" y="0px"
	 viewBox="0 0 533 568" style="enable-background:new 0 0 533 568;" xml:space="preserve">
<style type="text/css">
	.st0{fill:#FFFFFF;}
</style>
<g>
	<g id="XMLID_37_">
		<path id="XMLID_45_" class="st0" d="M259.9,211.7c-0.1,0.6-1,0.4-0.9-0.2C259.2,210.9,260.1,211.1,259.9,211.7z"/>
		<path class="st0" d="M322.3,148C322.3,148,322.3,147.9,322.3,148c-1-3.9-3-7.5-6-10.3c-3.4-3.1-7.5-3.5-11.9-3.4
			c-0.1,0-0.1,0-0.1,0c-1-0.8-2-1.6-3-2.5c0,0-0.1-0.1-0.1-0.1c-1.1-5.3-3.1-10.3-5.6-15.1c0.6,0.3,1.2,0.7,1.9,1c0,0,0,0.1,0,0.1
			c-0.2,2.2,0.9,4.2,3,5c1.7,0.7,3.8,0.5,5.6,0.8c2.1,0.3,4,0.9,5.9,1.7c0,0,0.1,0,0.1,0c0,0,0,0,0,0c0.5,0.2,0.9-0.6,0.4-0.8
			c0,0,0,0,0,0c-1.5-3.3-2.8-7.2-6.4-8.8c-2.7-1.3-5.8-0.8-8,1.1c0,0,0,0-0.1,0c-0.1,0-0.2,0-0.3,0.1c-0.9-0.5-1.9-1-2.8-1.5
			c-0.9-1.8-1.9-3.6-2.9-5.3c-0.7-1.3-1.5-2.5-2.3-3.7c0,0,0,0,0,0c0-0.2-0.1-0.3-0.2-0.3c-0.1-0.2-0.3-0.4-0.4-0.5
			c-0.3,0.2-0.5,0.4-0.8,0.6c0.2,0.3,0.4,0.5,0.6,0.8c0,1-0.1,2.1-0.4,3.1c0,0.1,0,0.2,0,0.2c0,0-0.1,0-0.1,0
			c-0.2,0-0.3,0.1-0.4,0.3c-2.6,0.2-3.9,2.7-4.6,5.1c-0.8,3,1,7,1.8,9.8c0.1,0.3,0.3,0.3,0.5,0.3c0.2,0.1,0.5,0,0.5-0.3
			c0.3-3.5,3.8-5.8,4.4-9.3c0.4-2.1-0.2-4.2-1.9-5.6c0.2,0,0.4-0.1,0.5-0.3c0.2-0.7,0.3-1.3,0.4-2c1,1.6,2,3.3,3,5
			c3.8,7.1,7.2,14.3,8.3,22.4c0.3,2.2,0.5,4.5,0.6,6.8c-0.2-0.1-0.4-0.1-0.5,0.1c-0.5,0.6-1.1,1.1-1.9,1.5c0,0-0.1,0-0.1,0
			c-2.6-0.5-4.7-2.2-7.4-2.5c-2.7-0.3-5.2,0.5-7.9,0.5c-0.6,0-0.5,0.9,0.1,0.9c0,0,0.1,0,0.1,0c3,1.2,5.3,3.8,8.4,4.5
			c2.6,0.5,5-0.3,6.8-2.3c0,0,0,0,0-0.1c1-0.3,1.8-0.9,2.4-1.7c0.2,4.2,0,8.5-0.6,12.6c-0.1-0.1-0.3-0.1-0.4,0
			c-1,0.8-2.2,1.4-3.5,1.7c-1.1,0.3-2.2,0.2-3.3,0.6c-0.1,0-0.1,0.1-0.1,0.1c-3.6-1.8-7.8-1.4-10.7,1.5c-1.6,1.5-2.3,3.5-2.9,5.5
			c-0.7,2.5-1.5,5-2.7,7.3c0,0,0,0,0,0c-0.1,0.1-0.2,0.2-0.2,0.3c-0.1,0.3-0.3,0.6-0.5,0.9c0,0,0,0,0,0c-0.3,0.4,0.1,1,0.5,0.7
			c2-1.7,4.2-3,6.6-4c1.7-0.7,3.6-1.1,5.1-2.1c3.4-2,4.5-5.9,5.5-9.5c0,0,0,0,0-0.1c1-0.3,2.1-0.3,3.2-0.6c1.1-0.3,2.1-0.9,3-1.6
			c-0.2,1.2-0.4,2.3-0.7,3.5c-1.4,5.9-3.6,11.4-6.5,16.5c-5.2,4.4-12.1,5.3-18.6,5.9c0-0.2,0-0.3-0.2-0.4c-2.4-1.6-5.1-3.2-8-2.9
			c-2.8,0.3-5.4,2.5-7.6,4c-0.4,0.3-0.1,0.9,0.4,0.8c3.9-0.8,6.7,2.6,10.4,2.6c2.2,0,3.9-1.5,4.9-3.3c2.3-0.2,4.5-0.5,6.8-0.9
			c-0.3,0.4-0.5,0.9-0.7,1.4c-4,3.1-12.1,3.6-12.2,10c-0.2,0.2-0.1,0.5,0.1,0.6c0.2,0.2,0.5,0.2,0.7-0.1c3-1.5,6.7-1.1,9.2-3.2
			c1.1-0.9,2.3-2.1,2.7-3.6c0.5-1.7-0.3-3.7,1.2-5c0.1-0.1,0.2-0.2,0.1-0.4c3.4-0.7,6.7-1.8,9.6-3.8c-5,8.3-11.6,15.6-18.6,22.3
			c-0.8-1-2.6-0.9-3.7-1.1c-2.1-0.3-4.3-0.9-6.3-0.2c-2.6,0.9-3.9,3-2.1,4.6c-0.9,0.1-1.9,0.1-2.8,0.1c-0.2-0.5-0.4-0.9-1-1.1
			c-0.7-0.1-1.2,0.5-1.2,1.1c0,0.6,0.3,1.4,0.9,1.5c0.5,0.1,1.1-0.2,1.2-0.7c0,0,0,0,0,0c1.1-0.1,2.2-0.1,3.3-0.2
			c-1.2,1.3-2.5,3.4-1.1,4.8c0.9,1,2.2,0.9,3.4,0.5c-0.6,0.8-1.3,1.7-1.9,2.5c-0.4-0.1-0.8-0.1-1.1,0.2c-0.5,0.4-0.7,1.1-0.4,1.7
			c0.3,0.6,1.1,0.8,1.7,0.5c0.5-0.3,0.8-1,0.6-1.5c0-0.1-0.1-0.2-0.2-0.2c0,0,0,0,0,0c0.7-0.9,1.4-1.8,2.1-2.7
			c0.1,1.1,0.4,2.3,1.4,2.9c1.4,1,2.9-0.1,3.9-1.2c1.7-1.7,2.6-4,3.1-6.3c0.3-1.2,1-2.9,0.5-4.2c5.1-4.9,10-10,14.3-15.7
			c-0.3,1.1-0.5,2.3-0.6,3.5c-0.1,1.9,0.5,3.8,0.3,5.7c0,0.1,0,0.3,0.1,0.3c0,0.2,0,0.5,0,0.7c0,0-0.1,0-0.1,0.1
			c-2.3,1.8-3.9,4.4-4.2,7.4c-0.4,4.5,2.1,8.9,0.4,13.3c0,0.1-0.1,0.1-0.1,0.2c0,0,0,0.1,0,0.1c-0.2,0.5,0.6,0.9,0.8,0.4
			c0-0.1,0.1-0.1,0.1-0.2c3-2.7,6.2-5.9,6.9-10c0.3-1.8,0.1-3.7-0.4-5.4c-0.7-2.2-2.5-4.2-2.4-6.5c0-0.1,0-0.2-0.1-0.3
			c0.1-1.5-0.3-3-0.4-4.5c0-2,0.5-4,1-5.9c0-0.1,0-0.2,0-0.3c1-1.5,2.1-2.9,3-4.5c0.6-0.9,1.1-1.9,1.7-2.8c0.1,0,0.1-0.1,0.2-0.1
			c0.1-0.1,0.2-0.3,0.1-0.4c1.9-3.5,3.5-7.2,4.7-11c0.4,2.9,1.4,5.6,2.5,8.4c0,0,0,0,0,0.1c-7.2,6.3,2,15.5,4.8,21.7
			c0,0,0,0.1,0,0.1c0,0.3,0.1,0.4,0.3,0.5c0.3,0.3,0.9,0,0.7-0.4c0-0.1-0.1-0.2-0.1-0.3c0.4-2.9,0.9-5.9,1.3-8.8
			c0.3-2.2,0.7-4.4,0.6-6.5c-0.3-3.8-2.9-6.7-6.8-6.7c-1.1-2.9-2.2-5.9-2.6-9.1c0-0.2-0.2-0.3-0.3-0.4c1.8-6,2.7-12.2,2.8-18.5
			c0.3,0.4,0.7,0.7,0.9,0.9c0.8,0.9,1.5,1.8,2.3,2.6c0,0,0,0,0,0c-1,3.5-1.9,7.4,0.6,10.5c1.4,1.7,3.3,3.1,4.9,4.6
			c2,1.8,4,3.7,6,5.5c0.4,0.4,0.9-0.1,0.7-0.5c0.1-0.1,0.1-0.2,0.1-0.3c-0.1-4.9,0.5-10.2-1.7-14.8c-1.8-3.6-5.4-6.2-9.6-5.5
			c0,0-0.1,0-0.1,0c-0.6-0.7-1.3-1.4-1.9-2.2c-0.3-0.4-0.7-0.8-1-1.2c-0.2-0.2-0.7-0.7-0.9-1c0.1-0.2,0-0.5-0.3-0.6
			c-0.1-3.6-0.4-7.2-1.1-10.9c0.9,0.8,1.8,1.5,2.7,2.3c0.1,3,1.9,5.6,4.4,7.2c3.9,2.6,9.5,2.5,12.9,5.8c0,0,0,0.1,0,0.1
			c0.1,0.5,1,0.3,0.8-0.3C322.4,148.1,322.4,148,322.3,148z M307.5,117.5c1.6,1.4,2.6,3.5,3.5,5.5c-1.3-1.6-2.9-2.9-4.7-3.7
			c-2.2-1-4.7-1.5-7-2.2C301.7,115.3,305.1,115.5,307.5,117.5z M298.4,117.7C298.5,117.7,298.5,117.6,298.4,117.7
			c2.3,0.6,4.6,1.1,6.8,2c2.2,0.9,4,2.3,5.4,4.1c-1.8-0.6-3.6-1.1-5.5-1.3C301.9,122.1,298.1,121.9,298.4,117.7z M285.6,123.2
			c-0.4-1.5-0.8-3.1-1.2-4.6c-0.5-2.4,0.3-6.7,3.2-7.3c-0.8,1.5-1.6,3-1.7,4.6c-0.1,1.1,0.2,2.3,0.2,3.4
			C286.2,120.6,286,121.9,285.6,123.2z M286.7,121.8c0.2-1.3,0.3-2.7,0.1-4.1c-0.3-2.5,0.7-4.4,1.7-6.5
			C292.2,114.5,288.7,118.2,286.7,121.8z M291.6,142c2.2,0.2,4,1.4,5.9,2.1c-1.1,0.3-2.2,0.5-3.3,0.3c-1-0.2-2-0.6-3-1
			c-1.3-0.4-2.7-0.8-4-1.2C288.7,142,290.1,141.9,291.6,142z M289.9,145c-1.2-0.7-2.2-1.5-3.3-2.1c2,0.5,3.9,1.1,5.8,1.8
			c2,0.7,3.5,0.7,5.4,0.2C295.5,146.7,292.4,146.6,289.9,145z M279.9,169c0.7-2,1-4.3,1.9-6.3c2-4.4,7.1-6,11.4-3.9
			c-3,1.6-6.5,2.7-8.9,5.1c-2.1,2.1-3.2,4.9-5.2,7.1C279.4,170.3,279.6,169.7,279.9,169z M286.3,168.5c-2.5,0.9-4.9,2-7.1,3.4
			c1.9-1.9,3-4.5,4.8-6.7c2.4-2.9,6.2-4.1,9.5-5.7C292.3,163.6,290.7,166.8,286.3,168.5z M266.6,180.1c2.6-0.5,5,0.9,7.2,2.2
			c-1.5,0.3-3.1,0.5-4.7,0.2c-1.2-0.2-2.3-0.6-3.5-0.7c-1.2-0.1-2.3,0-3.4,0.3C263.6,181.3,265,180.4,266.6,180.1z M269.5,185.7
			c-1.5-0.2-2.9-1.1-4.3-1.6c-1.2-0.5-2.4-0.9-3.6-1c0.8-0.2,1.5-0.4,2.3-0.5c1.4-0.1,2.6,0.3,4,0.6c2.1,0.4,4.1,0.4,6.1-0.1
			C273.1,184.6,271.5,186,269.5,185.7z M280.4,185.4c-0.9,2.5-4,3.4-6.2,4.4c-1.7,0.8-3.2,1.7-4.4,3.1
			C270.7,188.5,276.6,187.5,280.4,185.4z M280.5,187.9c-0.5,1-1.4,1.9-2.3,2.6c-1.6,1.3-3.4,1.3-5.3,1.8c-0.8,0.2-1.5,0.4-2.2,0.7
			c1.8-1.7,4-2.6,6.3-3.7c1.6-0.8,3.1-1.6,3.9-3.1C280.8,186.7,280.8,187.3,280.5,187.9z M258,204.9c0,0.2-0.3,0-0.3-0.1
			c-0.1-0.2-0.1-0.4-0.1-0.6c0.1-0.2,0.2-0.3,0.4-0.1c0.1,0.1,0.2,0.3,0.2,0.4C258.1,204.6,258,204.7,258,204.9z M261.9,214.1
			c-0.2-0.3,0.3-1,0.5-0.6c0,0,0.1,0.1,0.1,0.1c0,0.1,0,0.1,0,0.2C262.7,214.2,262.1,214.5,261.9,214.1z M263.8,200.4
			c1.2-0.5,2.4-0.4,3.6-0.3c0.8,0.1,3.4,0.2,4.9,0.7c-3.1,0.6-6.6,1.3-9.1,3.1c-0.4-0.2-0.8-0.4-1.1-0.7
			C261.9,201.7,262.5,200.8,263.8,200.4z M261.7,207c1.2-3.8,7.8-4.8,11.4-5.4c0,0.1,0,0.2,0.1,0.2c-0.9,2.4-2.7,4.1-4.9,5.4
			c-1,0.6-2.1,1.1-3.1,1.6C263.8,209.4,260.6,210.6,261.7,207z M271.8,208.9c-0.5,1-1.1,2-1.9,2.7c-1,1.3-2.2,1.2-3.6-0.2
			c-0.3-0.7-0.3-1.4-0.2-2.1c0.5-0.3,1-0.5,1.3-0.7c2.5-1.3,4.7-3,6-5.5C273.4,205.1,272.2,208.1,271.8,208.9z M285.2,208.3
			c-0.7-4-0.2-7.8,2.8-10.6c-0.5,2.6-0.3,5.2-0.3,7.8c0.1,3.3-0.6,6.1-1.9,9C285.9,212.4,285.5,210.4,285.2,208.3z M291.3,205.9
			c-0.1,3.7-2.4,6.7-5,9.2c1.2-2.5,2.1-5,2.1-7.8c0.1-3.2-0.4-6.4,0.3-9.5c0.2,0.6,0.5,1.1,0.8,1.7
			C290.6,201.5,291.4,203.6,291.3,205.9z M302.8,174.5c5.4,0.1,6.2,5.3,5.6,9.5c-0.4,3.1-0.9,6.2-1.4,9.3
			C306.5,186.9,303.6,180.9,302.8,174.5z M306.3,193.2c-3.3-5.6-9.5-13.1-4.2-18.2C303,181.2,305.8,186.9,306.3,193.2z M316.3,156.9
			c1,3.4,0.9,7,0.8,10.6c-1.2-3.1-2.3-6.5-4-9.3c-0.9-1.4-1.8-2.9-2.9-4.2c-1.3-1.5-2.6-2.4-3.2-4.3
			C311.7,149.1,315.1,152.7,316.3,156.9z M308.1,153c1.4,1.5,2.6,2.9,3.8,4.6c2.2,3.3,3.4,7,4.8,10.6c-2.7-2.5-5.3-4.9-8-7.4
			c-3.4-3.1-3.2-6.5-2.2-10.5C306.7,151.3,307.3,152.2,308.1,153z M305.1,135.8c0.1,0,0.1,0,0.2-0.1c2,1.8,4.6,2.7,7,4
			c3.1,1.6,5.3,4,7.6,6.4C314.5,143.2,305.7,143.2,305.1,135.8z M313.7,139.6c-2.7-1.5-5.7-2.4-8-4.5c4,0,7.5,0.7,10.5,3.7
			c2.1,2,3.5,4.5,4.5,7.2C318.7,143.7,316.6,141.3,313.7,139.6z"/>
		<path id="XMLID_44_" class="st0" d="M272,202.2c0.4-0.3,0.8,0.3,0.4,0.6c-2.8,2.3-6,4-9.4,5.2c-0.4,0.2-0.7-0.5-0.2-0.7
			C266.1,206.1,269.2,204.4,272,202.2z"/>
		<path id="XMLID_43_" class="st0" d="M268.6,209.5c1.6-1.1,2.8-2.5,3.6-4.2c0.2-0.4,0.9-0.1,0.6,0.3c-0.9,1.8-2.2,3.4-3.9,4.5
			C268.6,210.3,268.2,209.7,268.6,209.5z"/>
		<path id="XMLID_42_" class="st0" d="M269.3,201.2c-1.5-0.2-3,0.3-4.5,0.6c-0.5,0.1-0.7-0.6-0.2-0.7c1.6-0.3,3.2-0.9,4.8-0.6
			C269.9,200.6,269.7,201.3,269.3,201.2z"/>
		<path id="XMLID_41_" class="st0" d="M277.7,216.9c-0.9,4.2-7.4,2.8-6.5-1.4C272.1,211.4,278.6,212.7,277.7,216.9z"/>
		<path id="XMLID_40_" class="st0" d="M256.7,212.1c-0.2,1.1-1.4,1.9-2.5,1.6c-1.1-0.3-1.9-1.3-1.6-2.5c0.2-1.1,1.4-1.9,2.5-1.6
			C256.2,209.9,256.9,210.9,256.7,212.1z"/>
		<path id="XMLID_39_" class="st0" d="M265.8,194.3c-0.8,3.6-6.3,2.4-5.6-1.2C261,189.5,266.6,190.7,265.8,194.3z"/>
		<path id="XMLID_38_" class="st0" d="M272.9,173.1c-0.3,1.3-1.7,2.3-3,1.9c-1.3-0.3-2.2-1.6-1.9-3c0.3-1.3,1.7-2.3,3-1.9
			C272.3,170.5,273.2,171.7,272.9,173.1z"/>
	</g>
	<g id="XMLID_1_">
		<path id="XMLID_36_" class="st0" d="M203.6,183.1c0.2-0.4,0.9-0.1,0.7,0.3C204.1,183.8,203.4,183.5,203.6,183.1z"/>
		<path id="XMLID_35_" class="st0" d="M191.7,189.1c-0.4,0.2-0.6-0.4-0.2-0.6c2.8-1.5,5.8-2.4,8.9-2.8c0.4-0.1,0.5,0.6,0.1,0.6
			C197.4,186.7,194.5,187.6,191.7,189.1z"/>
		<path id="XMLID_34_" class="st0" d="M195.8,183.5c-1.5,0.7-2.8,1.7-3.8,3c-0.2,0.3-0.7-0.1-0.5-0.4c1.1-1.4,2.4-2.5,4.1-3.2
			C196,182.7,196.2,183.3,195.8,183.5z"/>
		<path id="XMLID_33_" class="st0" d="M193.9,190.4c1.2,0.5,2.6,0.3,3.9,0.3c0.4,0,0.5,0.6,0.1,0.6c-1.4,0-2.9,0.2-4.2-0.3
			C193.3,190.8,193.5,190.2,193.9,190.4z"/>
		<path id="XMLID_32_" class="st0" d="M194.7,177.9c-1.5,3.4-6.8,1.1-5.3-2.3C190.9,172.2,196.1,174.5,194.7,177.9z"/>
		<path id="XMLID_31_" class="st0" d="M206.4,183.3c0.4-0.9,1.5-1.4,2.4-0.9c0.9,0.4,1.3,1.5,0.9,2.4c-0.4,0.9-1.5,1.4-2.4,0.9
			C206.5,185.2,206,184.2,206.4,183.3z"/>
		<path id="XMLID_30_" class="st0" d="M195.7,196.8c1.3-2.9,5.8-1,4.5,2C198.9,201.7,194.4,199.7,195.7,196.8z"/>
		<path id="XMLID_29_" class="st0" d="M186,213.6c0.4-1,1.8-1.6,2.8-1.1c1.1,0.5,1.6,1.7,1.1,2.8c-0.4,1-1.8,1.6-2.8,1.1
			C186.1,215.9,185.5,214.7,186,213.6z"/>
		<path id="XMLID_2_" class="st0" d="M183.3,173.7c0,0.1-0.1,0.1-0.1,0.2c-3,1.8-6.2,3.9-7.6,7.4c-0.6,1.5-0.7,3.1-0.6,4.7
			c0.2,2,1.5,4,1,5.9c0,0.1,0,0.2,0,0.3c-0.3,1.3-0.2,2.6-0.5,3.9c-0.3,1.7-1.1,3.3-1.9,4.9c0,0.1,0,0.2,0,0.3
			c-1.1,1.1-2.3,2.1-3.3,3.3c-0.6,0.7-1.3,1.4-1.9,2.1c-0.1,0-0.1,0.1-0.2,0.1c-0.1,0.1-0.2,0.2-0.2,0.3c-2.2,2.7-4.2,5.6-5.9,8.6
			c0.1-2.5-0.3-5-0.7-7.5c0,0,0,0,0-0.1c7.2-4.2,0.9-13.5-0.4-19.3c0,0,0-0.1,0-0.1c0.1-0.2,0-0.4-0.2-0.5c-0.2-0.3-0.8-0.2-0.7,0.2
			c0,0.1,0,0.2,0.1,0.3c-0.9,2.4-1.7,4.8-2.6,7.3c-0.6,1.8-1.4,3.6-1.6,5.5c-0.4,3.3,1.3,6.1,4.6,6.8c0.5,2.7,0.9,5.4,0.6,8.1
			c0,0.2,0.1,0.3,0.2,0.4c-2.5,4.8-4.4,9.9-5.5,15.2c-0.2-0.4-0.5-0.7-0.6-1c-0.5-0.9-1-1.8-1.5-2.6c0,0,0,0,0,0
			c1.4-2.8,2.8-6,1.3-9c-0.9-1.7-2.2-3.2-3.4-4.8c-1.4-1.9-2.8-3.8-4.1-5.7c-0.3-0.4-0.8,0-0.7,0.3c-0.1,0.1-0.1,0.1-0.1,0.2
			c-0.8,4.2-2.2,8.6-1,12.8c0.9,3.4,3.6,6.2,7.2,6.3c0,0,0.1,0,0.1,0.1c0.4,0.7,0.8,1.4,1.2,2.2c0.2,0.4,0.4,0.8,0.7,1.2
			c0.1,0.2,0.5,0.7,0.6,1c-0.1,0.2-0.1,0.5,0.1,0.6c-0.6,3.1-0.9,6.2-0.9,9.4c-0.6-0.8-1.2-1.6-1.9-2.4c0.5-2.6-0.7-5-2.5-6.9
			c-2.8-2.9-7.7-3.8-10-7.1c0,0,0-0.1,0-0.1c0-0.5-0.8-0.4-0.8,0.1c0,0.1,0,0.1,0,0.2c0,0,0,0,0,0c0.2,3.5,1.2,6.9,3.3,9.7
			c2.3,3.2,5.7,4.3,9.5,4.9c0,0,0.1,0,0.1,0c0.7,0.9,1.4,1.7,2.1,2.7c0,0,0.1,0.1,0.1,0.1c0,4.7,0.9,9.2,2.2,13.7
			c-0.5-0.4-0.9-0.8-1.4-1.2c0,0,0,0,0-0.1c0.5-1.8-0.1-3.7-1.7-4.8c-1.3-0.9-3.1-1-4.6-1.6c-1.7-0.6-3.3-1.5-4.8-2.5
			c0,0-0.1,0-0.1-0.1c0,0,0,0,0,0c-0.4-0.3-0.9,0.3-0.5,0.6c0,0,0,0,0,0c0.7,3.1,1.2,6.6,3.9,8.6c2.1,1.6,4.8,1.7,7,0.5
			c0,0,0,0,0.1,0c0.1,0.1,0.2,0,0.3,0c0.7,0.6,1.4,1.2,2.1,1.7c0.5,1.7,1,3.4,1.6,5c0.4,1.2,0.8,2.4,1.3,3.5c0,0,0,0,0,0
			c0,0.2,0,0.3,0.1,0.3c2.2,5.3,5.3,10.2,8.3,15c0.3,0.4,0.9,0,0.6-0.4c-3.1-5-6-9.9-8.3-15.2c0.1-0.9,0.4-1.7,0.9-2.5
			c0-0.1,0-0.1,0-0.2c0,0,0.1,0,0.1,0c0.2,0,0.3-0.1,0.4-0.2c2.3,0.3,3.8-1.7,4.7-3.5c1.2-2.4,0.3-6.1,0.1-8.7
			c0-0.2-0.2-0.3-0.4-0.3c-0.2-0.1-0.4-0.1-0.5,0.2c-0.9,2.9-4.2,4.3-5.3,7.1c-0.7,1.7-0.5,3.6,0.6,5.1c-0.2-0.1-0.4,0-0.5,0.2
			c-0.3,0.5-0.5,1.1-0.7,1.6c-0.6-1.5-1.2-3.1-1.7-4.7c-2-6.7-3.7-13.4-3.2-20.5c0.1-1.9,0.3-3.9,0.6-5.8c0.1,0.1,0.3,0.2,0.5,0
			c0.5-0.5,1.1-0.8,1.8-0.9c0,0,0.1,0,0.1,0.1c2.2,0.9,3.6,2.7,5.9,3.4c2.2,0.7,4.5,0.5,6.8,0.9c0.5,0.1,0.6-0.7,0.1-0.8
			c0,0-0.1,0-0.1,0c-2.3-1.5-3.8-4.1-6.4-5.2c-2.1-0.9-4.3-0.6-6.1,0.8c0,0,0,0,0,0c-0.9,0.1-1.7,0.5-2.3,1
			c0.6-3.6,1.5-7.2,2.7-10.6c0.1,0.1,0.2,0.1,0.3,0c1-0.5,2.1-0.9,3.2-0.9c1,0,1.9,0.2,2.9,0c0.1,0,0.1,0,0.1-0.1
			c2.7,2.1,6.4,2.5,9.4,0.6c1.6-1,2.6-2.5,3.4-4.2c1-2,2.1-4,3.5-5.8c0,0,0,0,0,0c0.1-0.1,0.2-0.1,0.2-0.2c0.2-0.2,0.4-0.5,0.5-0.7
			c0,0,0,0,0,0c0.3-0.3,0-0.9-0.4-0.6c-2,1.1-4.1,1.9-6.3,2.3c-1.6,0.3-3.2,0.4-4.7,0.9c-3.2,1.1-4.9,4.2-6.3,7.1c0,0,0,0,0,0
			c-0.9,0.1-1.9-0.1-2.8-0.1c-1,0.1-2,0.4-2.9,0.8c0.4-1,0.7-1.9,1.2-2.9c2.1-4.8,5-9.1,8.4-12.9c5.2-2.8,11.1-2.4,16.8-1.9
			c0,0.1,0,0.3,0.1,0.4c1.8,1.7,3.7,3.6,6.3,3.8c2.4,0.2,5-1.2,7.1-2.1c0.4-0.2,0.2-0.7-0.2-0.7c-3.5,0-5.3-3.3-8.4-4
			c-1.8-0.4-3.6,0.6-4.8,1.9c-2-0.2-3.9-0.3-5.9-0.4c0.4-0.3,0.6-0.7,0.8-1.1c3.9-1.9,10.9-1,12.1-6.4c0.2-0.1,0.2-0.4,0-0.5
			c-0.1-0.2-0.4-0.2-0.6-0.1c-2.8,0.7-5.8-0.2-8.4,1.2c-1.1,0.6-2.3,1.4-2.9,2.6c-0.7,1.4-0.4,3.2-1.9,4c-0.1,0.1-0.2,0.2-0.2,0.3
			c-3,0-6,0.4-8.8,1.6c5.7-6.2,12.5-11.3,19.6-15.8c0.5,1,2,1.2,3,1.6c1.7,0.6,3.5,1.5,5.4,1.3c2.4-0.3,3.8-1.9,2.6-3.6
			c0.8,0.1,1.6,0.2,2.4,0.3c0,0.5,0.2,0.9,0.7,1.1c0.6,0.2,1.1-0.2,1.2-0.7c0.1-0.5,0-1.2-0.5-1.5c-0.4-0.2-0.9,0-1.1,0.4
			c0,0,0,0,0,0c-0.9-0.1-1.9-0.3-2.8-0.4c1.2-0.9,2.7-2.4,1.7-3.9c-0.6-1-1.7-1.1-2.8-1c0.7-0.6,1.3-1.2,2-1.8c0.3,0.2,0.7,0.2,1,0
			c0.5-0.2,0.8-0.9,0.6-1.4c-0.2-0.5-0.8-0.9-1.3-0.7c-0.5,0.1-0.8,0.7-0.8,1.2c0,0.1,0.1,0.2,0.1,0.2c0,0,0,0,0,0
			c-0.7,0.7-1.5,1.3-2.2,2c0.1-1,0-2-0.7-2.7c-1-1.1-2.5-0.4-3.5,0.3c-1.7,1.2-2.9,3-3.7,4.8c-0.5,1-1.4,2.3-1.1,3.5
			c-5.2,3.3-10.2,6.8-14.8,10.9c0.4-0.9,0.8-1.9,1.1-2.8c0.4-1.6,0.2-3.3,0.7-4.9c0-0.1,0-0.2,0-0.3c0.1-0.2,0.1-0.4,0.1-0.6
			c0,0,0.1,0,0.1,0c2.3-1.2,4.1-3,4.8-5.5c1.1-3.7-0.2-7.9,1.9-11.3c0,0,0.1-0.1,0.1-0.1c0,0,0,0,0-0.1
			C184.1,173.8,183.6,173.3,183.3,173.7z M189.3,197.3c0.7,0,1.3-0.1,2-0.2c-1.8,1.1-3.9,1.5-5.9,2.1c-1.5,0.4-2.9,0.8-3.8,2
			c0.1-0.5,0.3-0.9,0.6-1.4c0.6-0.8,1.5-1.4,2.4-1.8C186,197.1,187.6,197.4,189.3,197.3z M181.7,201.9c1.1-2,4-2.2,6-2.7
			c1.5-0.4,3-0.9,4.3-1.9C190.5,201,185.3,200.8,181.7,201.9z M194.4,205.6c0.9,0.6,1.9,1.1,2.8,1.5c-0.7,0.1-1.4,0.1-2.1,0
			c-1.2-0.2-2.2-0.7-3.3-1.1c-1.7-0.7-3.4-1-5.2-1c1.1-1.2,2.7-2.1,4.3-1.5C192.2,203.9,193.3,204.9,194.4,205.6z M186.9,205.6
			c1.4,0,2.7,0.1,4,0.6c1,0.3,1.9,0.9,2.9,1.2c1,0.3,1.9,0.4,2.9,0.3c-1.3,0.6-2.7,1-4.1,1C190.2,208.7,188.5,207.1,186.9,205.6z
			 M180.4,213.6c-2,1.3-3.3,3.3-5.2,4.8c-2.6,2-5.9,2.4-9,3.3c1.7-3.3,3.7-5.8,7.7-6.4C176.2,214.9,178.3,214.4,180.4,213.6z
			 M166.3,222.3c2.8-0.8,5.9-1.2,8.5-2.8c2.1-1.4,3.6-3.6,5.6-5.1c-0.3,0.5-0.7,1-1,1.5c-1,1.6-1.6,3.5-2.7,5
			C174.2,224.3,169.6,224.8,166.3,222.3z M166.8,234.6c0.9,0.8,1.6,1.6,2.4,2.4c-1.6-0.8-3.1-1.6-4.6-2.5c-1.6-0.9-2.9-1.2-4.5-1.1
			C162.3,232.2,164.9,232.8,166.8,234.6z M160.1,234c1-0.1,1.9,0,2.9,0.3c0.8,0.3,1.6,0.9,2.4,1.3c1.1,0.6,2.1,1.2,3.2,1.7
			c-1.3-0.1-2.5-0.2-3.8-0.6C163,236.3,161.7,235,160.1,234z M165.6,254.9c-0.4,1.1-0.7,2.2-0.8,3.4c-0.2,2.2-1.3,3.6-2.6,5.3
			C159.7,260.1,163.2,257.6,165.6,254.9z M162.9,263.6c0.9-1.1,1.9-2.3,2.2-3.6c0.2-0.9,0.2-2,0.4-2.9c0.2-1.1,0.6-2.2,1.2-3.2
			c0.1,1.4,0.2,2.8,0.2,4.1C167,260.1,165.5,263.6,162.9,263.6z M145.2,249.7c0.8,1.6,2,2.9,3.4,4c1.7,1.3,3.7,2.1,5.6,3.1
			c-2.4,1.1-5.3,0.3-7-1.8C146.1,253.5,145.6,251.6,145.2,249.7z M154.9,256.3C154.9,256.3,154.9,256.4,154.9,256.3
			c-1.9-0.9-3.8-1.7-5.5-2.8c-1.7-1.1-3-2.6-3.9-4.4c1.4,0.8,2.9,1.5,4.5,2C152.7,251.9,155.9,252.8,154.9,256.3z M140.7,228.4
			c1.4,2.4,2.8,4.8,4.9,6.6c2,1.8,4.4,3,6,5.2c-3.4-0.7-6.3-1.8-8.3-4.9C141.9,233.2,141.1,230.9,140.7,228.4z M152.3,239.8
			c-0.1,0-0.1,0-0.2,0c-1.4-1.9-3.4-3.1-5.3-4.6c-2.3-1.9-3.8-4.3-5.3-6.8C145.6,231.9,153.1,233.4,152.3,239.8z M146.4,220
			c-0.3-3.1,0.5-6.1,1.1-9.1c0.5,2.9,0.8,5.9,1.9,8.6c0.5,1.3,1,2.8,1.7,4c0.9,1.5,1.8,2.5,2,4.2C149,227.4,146.7,223.7,146.4,220z
			 M153.7,227.3c-0.1-0.9-0.4-1.8-0.9-2.6c-1-1.5-1.7-2.9-2.4-4.5c-1.3-3.1-1.7-6.5-2.3-9.8c1.8,2.6,3.7,5.1,5.6,7.6
			C155.9,221.2,155.2,224.1,153.7,227.3z M160.5,190.6c-0.7,5.6,0.8,11.2,0.4,16.7c-4.6-1-4.3-5.5-3.1-9.1
			C158.6,195.7,159.5,193.2,160.5,190.6z M161.5,207c0.3-5.4-1.1-10.8-0.5-16.2C162.9,196.2,166.9,203.6,161.5,207z M198.1,182.1
			c0.1,0.6,0,1.2-0.2,1.8c-0.5,0.1-0.9,0.3-1.3,0.4c-2.4,0.7-4.5,1.8-6,3.6c0.4-1.6,2-4,2.5-4.6c0.6-0.8,1.2-1.5,2.1-2
			C196.2,180.4,197.2,180.7,198.1,182.1z M201.8,181.1c0,0,0-0.1-0.1-0.1c0,0,0-0.1,0-0.2c-0.1-0.4,0.4-0.5,0.6-0.2
			C202.5,181,201.9,181.4,201.8,181.1z M201.3,186.8c-1.7,3-7.4,2.7-10.6,2.7c0-0.1,0-0.1,0-0.2c1.2-1.9,3-3,5.1-3.8
			c1-0.3,1.9-0.6,2.9-0.8C199.9,184.3,202.9,183.9,201.3,186.8z M204,189.8c-0.1-0.1-0.1-0.3-0.1-0.4c0.1,0,0.2-0.1,0.2-0.3
			c0-0.2,0.2,0.1,0.2,0.1c0.1,0.1,0,0.4,0,0.5C204.2,190,204.1,190,204,189.8z M191.2,190.2c2.7,0,5.8,0,8.3-1.1
			c0.3,0.2,0.6,0.5,0.9,0.8c-0.1,1.4-0.8,2.1-2,2.2c-1.1,0.2-2.1,0-3.1-0.4C194.6,191.4,192.4,190.9,191.2,190.2z M177.4,190.2
			c0.9-2.1,1.2-4.3,1.6-6.6c0.5-2.8,1.5-5,3.2-7.3c-0.5,1.7-0.5,3.5-0.5,5.3C181.4,185.2,180.4,188.3,177.4,190.2z M181.8,175.7
			c-1.4,1.9-2.6,3.9-3.1,6.2c-0.6,2.7-0.8,5.5-1.9,8.1c-0.1-0.5-0.3-1-0.4-1.6c-0.6-1.9-0.8-3.8-0.4-5.8
			C176.8,179.5,179.2,177.4,181.8,175.7z"/>
	</g>
	<g>
		<g>
			<path class="st0" d="M104.9,408.2h17.5v2.4h-14.9v10.2h13.9v2.4h-13.9v11.2h15.5v2.4h-18.2V408.2z"/>
			<path class="st0" d="M149.2,408.2h2.9l9.2,25.1l9.3-25.1h2.8l-10.9,28.7h-2.7L149.2,408.2z"/>
			<path class="st0" d="M201.5,408.2h17.5v2.4h-14.9v10.2h13.9v2.4h-13.9v11.2h15.5v2.4h-18.2V408.2z"/>
			<path class="st0" d="M249.8,408.2h3.4l17.4,25.1h0.1v-25.1h2.7v28.7H270l-17.4-25.1h-0.1v25.1h-2.7V408.2z"/>
			<path class="st0" d="M311.9,410.6h-9.8v-2.4h22.3v2.4h-9.8v26.2h-2.7V410.6z"/>
			<path class="st0" d="M351.3,422.5c0-2.2,0.4-4.2,1.1-6c0.7-1.8,1.7-3.4,3-4.8c1.3-1.3,2.9-2.4,4.7-3.1c1.8-0.8,3.8-1.1,6-1.1
				c2.2,0,4.2,0.4,6,1.1c1.8,0.8,3.4,1.8,4.7,3.1c1.3,1.3,2.3,2.9,3,4.8c0.7,1.8,1.1,3.8,1.1,6s-0.4,4.2-1.1,6.1
				c-0.7,1.8-1.7,3.4-3,4.8c-1.3,1.3-2.9,2.4-4.7,3.1c-1.8,0.7-3.8,1.1-6,1.1c-2.2,0-4.2-0.4-6-1.1c-1.8-0.7-3.4-1.8-4.7-3.1
				c-1.3-1.3-2.3-2.9-3-4.8C351.6,426.7,351.3,424.7,351.3,422.5z M353.9,422.5c0,1.8,0.3,3.4,0.9,5c0.6,1.5,1.4,2.9,2.4,4
				c1.1,1.1,2.3,2,3.8,2.7c1.5,0.6,3.2,1,5,1s3.5-0.3,5-1c1.5-0.6,2.8-1.5,3.8-2.7c1.1-1.1,1.9-2.5,2.4-4c0.6-1.5,0.9-3.2,0.9-5
				c0-1.8-0.3-3.4-0.9-5c-0.6-1.5-1.4-2.9-2.4-4c-1.1-1.1-2.3-2-3.8-2.7c-1.5-0.6-3.2-1-5-1s-3.5,0.3-5,1c-1.5,0.6-2.8,1.5-3.8,2.7
				c-1.1,1.1-1.9,2.5-2.4,4C354.2,419.1,353.9,420.8,353.9,422.5z"/>
			<path class="st0" d="M411.9,431.6c0.7,1.2,1.6,2.1,2.7,2.7c1.1,0.6,2.4,0.9,3.8,0.9c0.9,0,1.7-0.1,2.5-0.4c0.8-0.3,1.5-0.6,2-1.1
				c0.6-0.5,1-1.1,1.4-1.8c0.3-0.7,0.5-1.5,0.5-2.3c0-1-0.2-1.8-0.6-2.5c-0.4-0.6-1-1.2-1.7-1.6c-0.7-0.4-1.5-0.8-2.4-1.1
				c-0.9-0.3-1.8-0.6-2.7-0.9c-0.9-0.3-1.8-0.6-2.7-1c-0.9-0.4-1.7-0.9-2.4-1.5c-0.7-0.6-1.3-1.4-1.7-2.3c-0.4-0.9-0.6-2.1-0.6-3.4
				c0-1.3,0.2-2.4,0.7-3.4c0.5-1,1.2-1.8,2-2.5c0.8-0.7,1.8-1.2,2.9-1.5c1.1-0.3,2.3-0.5,3.5-0.5c1.6,0,3,0.3,4.4,0.8
				c1.3,0.6,2.5,1.5,3.5,2.8l-2.3,1.7c-0.7-0.9-1.5-1.7-2.4-2.1c-0.9-0.5-2-0.7-3.2-0.7c-0.9,0-1.7,0.1-2.5,0.3
				c-0.8,0.2-1.5,0.6-2,1c-0.6,0.4-1,1-1.4,1.7c-0.4,0.7-0.5,1.5-0.5,2.4c0,1.4,0.4,2.5,1.1,3.3s1.6,1.4,2.7,1.8
				c1.1,0.4,2.3,0.8,3.6,1.2c1.3,0.3,2.5,0.8,3.6,1.4c1.1,0.6,2,1.4,2.7,2.4c0.7,1,1.1,2.4,1.1,4.2c0,1.3-0.2,2.4-0.7,3.4
				c-0.5,1-1.1,1.8-2,2.5c-0.8,0.7-1.8,1.2-2.9,1.6c-1.1,0.3-2.2,0.5-3.4,0.5c-1.9,0-3.6-0.3-5.2-1c-1.6-0.7-3-1.8-4.1-3.3
				L411.9,431.6z"/>
		</g>
	</g>
	<g>
		<path class="st0" d="M281,193.8L222,166.1c-29.6-14-30-42.1-30-42.4c0-28.4,19.3-38,25.1-40.2c-15.3,4.1-28.3,13.2-36.8,26.2
			c-10,15.3-12.1,34.1-5.7,50.1c13.6,33.9,70,53.1,70.6,53.3c0.1,0,10.4,3.4,21.1,11.2c9.8,7.2,21.9,19.9,23.8,39
			c1.8,19.1-5.5,32-11.9,39.5c-4.6,5.4-9.4,8.7-12.2,10.4c7.3,0.4,15.9-3.3,24.2-10.4c12.3-10.6,26.2-31.5,25.1-55.8
			C313.5,211.4,281.3,194,281,193.8z M297.4,280c2.6-14.3,11-53.8-57.1-79.2c-76.6-28.6-57.1-71.4-57.1-71.4
			c3.9,54.5,94.8,61,114.3,90.9C318.7,252.9,297.4,280,297.4,280z"/>
		<path class="st0" d="M316.9,246.8c-1.7-36.5-34.8-54.3-35.2-54.5l-59-27.8c-15-7-22-17.8-25.3-25.5c-3.6-8.4-3.6-15.3-3.6-15.3
			c0-31.9,24.3-38.8,25.4-39.1c11.2-3.1,20.9-3.6,29.4-2.4c17.5,3.1,29.2,12.3,36.4,20.5c6.5,7.5,9.5,14.2,9.6,14.4
			c0.2,0.4,0.7,0.6,1.1,0.5c0.4-0.2,0.6-0.7,0.5-1.1c-0.1-0.2-2.9-6.8-9.5-14.5c-7.6-8.9-20-19.1-38.4-21.6
			c-4.7-0.8-9.9-1.1-15.4-0.9c-22.7,0.8-42.3,11.5-53.9,29.3c-10.3,15.8-12.5,35.1-5.9,51.7c13.9,34.7,71.1,54.1,71.7,54.3
			c0.1,0,10.2,3.3,20.6,10.9c9.6,7,21.3,19.3,23.1,37.8c3.4,35.4-25.2,49.3-25.5,49.4c-0.3,0.2-0.5,0.5-0.5,0.9
			c0,0.4,0.3,0.7,0.7,0.7c1.3,0.3,2.6,0.4,3.9,0.4c7.5,0,16.1-3.8,24.3-10.9C303.8,293.1,318.1,271.7,316.9,246.8z M263.2,313.6
			c0,0,29.5-13.9,26-50.3c-3.5-36.4-44.2-49.4-44.2-49.4s-57.2-19.1-71.1-53.8s12.1-78.1,59-79.8c5.2-0.2,10.1,0.1,14.6,0.8
			c19.2,2.3,31.9,13.1,39.4,22.3c6,7.2,8.5,13.4,8.5,13.4s-2.6-6.1-8.5-13.4c-7.3-8.8-19.8-19.2-39.4-22.3c-8.2-1-17.7-0.4-28.4,2.7
			c0,0-26,6.9-26,39.9c0,0,0,27.8,29.5,41.6c29.5,13.9,59,27.8,59,27.8s33,17.3,34.7,53.8C317.8,283.3,284.8,318,263.2,313.6z"/>
	</g>
	<g>
		<g>
			<path class="st0" d="M330.1,365.5h-52c-0.3,0-9.7,0.7-16-5.1c-3.8-3.5-5.7-8.4-5.7-14.8v-114l-33-16.5v152.1h142.3l4.2-46
				c-1.5,4.8-3.6,10.9-6.5,16.8C354.7,356,343.2,365.5,330.1,365.5z M245.6,362.3h-11.7V228.5l11.7,5.2V362.3z"/>
			<path class="st0" d="M371.8,310c-0.4-0.1-0.9,0.2-1,0.7c-0.1,0.5-10.6,53.1-40.8,53.1l-52.1,0c-0.1,0-9,0.7-14.8-4.7
				c-3.4-3.1-5.1-7.7-5.1-13.5V231c0-0.3-0.2-0.6-0.5-0.8l-34.7-17.3c-0.3-0.1-0.6-0.1-0.8,0c-0.3,0.2-0.4,0.4-0.4,0.7v154.4
				c0,0.5,0.4,0.9,0.9,0.9h144c0.4,0,0.8-0.3,0.9-0.8l5.2-57.2C372.6,310.5,372.3,310,371.8,310z M366.5,368.1h-144V213.7l34.7,17.3
				c0,0,0,93.7,0,114.5c0,20.8,20.8,19.1,20.8,19.1s20.8,0,52,0c31.2,0,41.6-53.8,41.6-53.8L366.5,368.1z"/>
		</g>
		<g>
			<path class="st0" d="M256.4,129l-33,9.9v17l33,14V129z M245.6,158.4l-11.7-3.9v-11.7l11.7-2.6V158.4z"/>
			<path class="st0" d="M257.8,127.1c-0.2-0.2-0.5-0.2-0.8-0.1l-34.7,10.4c-0.4,0.1-0.6,0.4-0.6,0.8v18.2c0,0.3,0.2,0.7,0.5,0.8
				l34.7,14.7c0.1,0,0.2,0.1,0.3,0.1c0.2,0,0.3,0,0.5-0.1c0.2-0.2,0.4-0.4,0.4-0.7v-43.4C258.1,127.6,258,127.3,257.8,127.1z
				 M257.2,171.2l-34.7-14.7v-18.2l34.7-10.4V171.2z"/>
		</g>
	</g>
	<path class="st0" d="M228.8,322.2c-34.7,0-63-28.3-63-63c0-32.7,25-59.6,57-62.7c-0.3-0.4-0.5-0.8-0.7-1.2
		c-32.3,3.4-57.5,30.8-57.5,63.9c0,35.4,28.8,64.3,64.3,64.3c6.6,0,13.1-1,19.4-3c-0.2-0.4-0.3-0.8-0.5-1.2
		C241.6,321.3,235.3,322.2,228.8,322.2z"/>
	<g>
		<path class="st0" d="M104.8,472c0-1.5,0.3-2.9,0.8-4.2c0.5-1.3,1.2-2.4,2.1-3.3c0.9-0.9,2-1.6,3.2-2.2c1.3-0.5,2.6-0.8,4.2-0.8
			c1.5,0,2.9,0.3,4.2,0.8c1.3,0.5,2.3,1.2,3.2,2.2c0.9,0.9,1.6,2,2.1,3.3c0.5,1.3,0.8,2.7,0.8,4.2c0,1.5-0.3,2.9-0.8,4.2
			c-0.5,1.3-1.2,2.4-2.1,3.3c-0.9,0.9-2,1.6-3.2,2.2c-1.3,0.5-2.6,0.8-4.2,0.8c-1.5,0-2.9-0.3-4.2-0.8c-1.3-0.5-2.3-1.2-3.2-2.2
			c-0.9-0.9-1.6-2-2.1-3.3C105.1,474.9,104.8,473.5,104.8,472z M106.7,472c0,1.2,0.2,2.4,0.6,3.4s1,2,1.7,2.8
			c0.7,0.8,1.6,1.4,2.6,1.8c1,0.4,2.2,0.7,3.5,0.7c1.3,0,2.5-0.2,3.5-0.7c1-0.4,1.9-1.1,2.6-1.8c0.7-0.8,1.3-1.7,1.7-2.8
			c0.4-1.1,0.6-2.2,0.6-3.4c0-1.2-0.2-2.4-0.6-3.4c-0.4-1.1-1-2-1.7-2.8c-0.7-0.8-1.6-1.4-2.6-1.9c-1-0.4-2.2-0.7-3.5-0.7
			c-1.3,0-2.5,0.2-3.5,0.7c-1,0.4-1.9,1.1-2.6,1.9c-0.7,0.8-1.3,1.7-1.7,2.8C106.9,469.6,106.7,470.7,106.7,472z"/>
		<path class="st0" d="M129,472.6c0-0.2,0-0.5,0-0.9c0-0.3,0-0.7,0-1.1c0-0.4,0-0.7,0-1c0-0.3,0-0.5,0-0.7h1.7c0,0.5,0,1,0,1.4
			c0,0.4,0,0.7,0.1,0.9c0.4-0.8,1-1.4,1.7-1.9c0.7-0.5,1.5-0.7,2.5-0.7c0.2,0,0.3,0,0.5,0c0.2,0,0.3,0.1,0.5,0.1l-0.2,1.7
			c-0.2-0.1-0.4-0.1-0.6-0.1c-0.7,0-1.4,0.1-1.9,0.4c-0.5,0.2-1,0.6-1.3,1c-0.3,0.4-0.6,0.9-0.8,1.4c-0.2,0.6-0.3,1.1-0.3,1.8v7.1
			H129V472.6z"/>
		<path class="st0" d="M150.8,481.1c0,1.6-0.2,2.9-0.7,3.9c-0.5,1-1.1,1.8-1.8,2.3c-0.7,0.5-1.5,0.9-2.3,1.1
			c-0.8,0.2-1.5,0.3-2.2,0.3c-0.7,0-1.3-0.1-1.9-0.2c-0.6-0.1-1.2-0.3-1.8-0.5c-0.6-0.2-1.1-0.5-1.5-0.9c-0.5-0.3-0.9-0.7-1.2-1.2
			l1.3-1.2c0.6,0.8,1.3,1.5,2.2,1.8c0.9,0.4,1.9,0.6,2.9,0.6c0.9,0,1.6-0.1,2.2-0.3c0.6-0.2,1.1-0.5,1.5-0.9
			c0.4-0.4,0.7-0.8,0.9-1.2c0.2-0.4,0.4-0.9,0.5-1.3c0.1-0.4,0.2-0.9,0.2-1.2c0-0.4,0-0.7,0-1v-1.8h-0.1c-0.5,0.8-1.1,1.4-2,1.8
			c-0.8,0.4-1.8,0.7-2.9,0.7c-1,0-1.9-0.2-2.7-0.5c-0.8-0.3-1.6-0.8-2.2-1.4c-0.6-0.6-1.1-1.3-1.5-2.1c-0.4-0.8-0.5-1.7-0.5-2.6
			c0-0.9,0.2-1.8,0.5-2.6c0.4-0.8,0.9-1.5,1.5-2.1c0.6-0.6,1.4-1.1,2.2-1.4c0.8-0.4,1.7-0.5,2.7-0.5c1.1,0,2.1,0.2,2.9,0.7
			c0.8,0.4,1.5,1.1,2,1.8h0.1v-2.2h1.7V481.1z M149.2,475.2c0-0.7-0.1-1.4-0.4-2c-0.3-0.6-0.6-1.2-1.1-1.6s-1-0.8-1.6-1.1
			c-0.6-0.3-1.3-0.4-2-0.4s-1.4,0.1-2,0.4c-0.6,0.3-1.2,0.6-1.6,1.1c-0.5,0.5-0.8,1-1.1,1.6c-0.3,0.6-0.4,1.3-0.4,2
			c0,0.7,0.1,1.4,0.4,2c0.3,0.6,0.6,1.2,1.1,1.6c0.5,0.5,1,0.8,1.6,1.1c0.6,0.3,1.3,0.4,2,0.4s1.4-0.1,2-0.4
			c0.6-0.3,1.2-0.6,1.6-1.1c0.5-0.5,0.8-1,1.1-1.6C149.1,476.6,149.2,476,149.2,475.2z"/>
		<path class="st0" d="M165,476.5c0,0.6,0,1.2,0,1.7c0,0.5,0,1,0,1.4s0,0.8,0.1,1.2s0.1,0.7,0.1,1.1h-1.6c-0.1-0.6-0.2-1.3-0.2-2.1
			h-0.1c-0.5,0.8-1.1,1.5-1.8,1.9c-0.7,0.4-1.6,0.6-2.7,0.6c-0.6,0-1.1-0.1-1.7-0.2c-0.5-0.1-1-0.4-1.5-0.7
			c-0.4-0.3-0.8-0.7-1.1-1.2c-0.3-0.5-0.4-1.1-0.4-1.8c0-1,0.3-1.8,0.8-2.4c0.5-0.6,1.1-1,1.9-1.3c0.7-0.3,1.5-0.5,2.4-0.6
			c0.8-0.1,1.6-0.1,2.2-0.1h2v-0.8c0-1.1-0.3-1.9-1-2.4c-0.7-0.5-1.6-0.7-2.6-0.7c-1.5,0-2.8,0.5-4,1.5l-1-1.1
			c0.6-0.6,1.4-1.1,2.3-1.4c0.9-0.3,1.8-0.5,2.6-0.5c1.6,0,2.8,0.4,3.8,1.1c0.9,0.7,1.4,1.9,1.4,3.6V476.5z M161.7,475.4
			c-0.7,0-1.4,0-2.1,0.1c-0.7,0.1-1.3,0.3-1.8,0.5c-0.5,0.2-1,0.5-1.3,0.9c-0.3,0.4-0.5,0.8-0.5,1.4c0,0.4,0.1,0.7,0.3,1.1
			c0.2,0.3,0.4,0.6,0.7,0.8c0.3,0.2,0.6,0.3,0.9,0.4c0.3,0.1,0.7,0.2,1.1,0.2c0.9,0,1.6-0.1,2.2-0.4c0.6-0.3,1-0.6,1.4-1
			c0.3-0.4,0.6-0.9,0.7-1.4c0.1-0.5,0.2-1.1,0.2-1.6v-0.9H161.7z"/>
		<path class="st0" d="M169.5,472.6c0-0.2,0-0.5,0-0.9c0-0.3,0-0.7,0-1.1c0-0.4,0-0.7,0-1c0-0.3,0-0.5,0-0.7h1.7c0,0.5,0,1,0,1.4
			c0,0.4,0,0.7,0.1,0.9h0.1c0.3-0.7,0.9-1.3,1.7-1.8c0.8-0.5,1.7-0.8,2.7-0.8c1,0,1.8,0.2,2.5,0.5c0.6,0.3,1.1,0.7,1.5,1.2
			c0.4,0.5,0.6,1.1,0.8,1.8c0.1,0.7,0.2,1.4,0.2,2.1v7.7h-1.7v-7.6c0-0.5,0-1-0.1-1.5c-0.1-0.5-0.3-0.9-0.5-1.3
			c-0.2-0.4-0.6-0.7-1-0.9c-0.4-0.2-1-0.4-1.6-0.4c-0.6,0-1.2,0.1-1.8,0.3c-0.6,0.2-1,0.5-1.4,1c-0.4,0.4-0.7,1-1,1.7
			c-0.2,0.7-0.4,1.4-0.4,2.3v6.5h-1.7V472.6z"/>
		<path class="st0" d="M185,463.8c0-0.4,0.1-0.7,0.4-0.9c0.2-0.2,0.5-0.4,0.9-0.4c0.4,0,0.7,0.1,0.9,0.4c0.2,0.2,0.4,0.5,0.4,0.9
			c0,0.4-0.1,0.7-0.4,0.9c-0.2,0.2-0.5,0.4-0.9,0.4c-0.4,0-0.7-0.1-0.9-0.4C185.1,464.5,185,464.2,185,463.8z M185.4,468.9h1.7v12.9
			h-1.7V468.9z"/>
		<path class="st0" d="M190.3,480.9l7.8-10.4h-7.4v-1.5h9.7v1l-7.7,10.4h8.1v1.5h-10.4V480.9z"/>
		<path class="st0" d="M213.8,476.5c0,0.6,0,1.2,0,1.7c0,0.5,0,1,0,1.4s0,0.8,0.1,1.2s0.1,0.7,0.1,1.1h-1.6
			c-0.1-0.6-0.2-1.3-0.2-2.1h-0.1c-0.5,0.8-1.1,1.5-1.8,1.9c-0.7,0.4-1.6,0.6-2.7,0.6c-0.6,0-1.1-0.1-1.7-0.2
			c-0.5-0.1-1-0.4-1.5-0.7c-0.4-0.3-0.8-0.7-1.1-1.2c-0.3-0.5-0.4-1.1-0.4-1.8c0-1,0.3-1.8,0.8-2.4c0.5-0.6,1.1-1,1.9-1.3
			c0.7-0.3,1.5-0.5,2.4-0.6c0.8-0.1,1.6-0.1,2.2-0.1h2v-0.8c0-1.1-0.3-1.9-1-2.4c-0.7-0.5-1.6-0.7-2.6-0.7c-1.5,0-2.8,0.5-4,1.5
			l-1-1.1c0.6-0.6,1.4-1.1,2.3-1.4c0.9-0.3,1.8-0.5,2.6-0.5c1.6,0,2.8,0.4,3.8,1.1c0.9,0.7,1.4,1.9,1.4,3.6V476.5z M210.5,475.4
			c-0.7,0-1.4,0-2.1,0.1c-0.7,0.1-1.3,0.3-1.8,0.5c-0.5,0.2-1,0.5-1.3,0.9c-0.3,0.4-0.5,0.8-0.5,1.4c0,0.4,0.1,0.7,0.3,1.1
			c0.2,0.3,0.4,0.6,0.7,0.8c0.3,0.2,0.6,0.3,0.9,0.4c0.3,0.1,0.7,0.2,1.1,0.2c0.9,0,1.6-0.1,2.2-0.4c0.6-0.3,1-0.6,1.4-1
			c0.3-0.4,0.6-0.9,0.7-1.4c0.1-0.5,0.2-1.1,0.2-1.6v-0.9H210.5z"/>
		<path class="st0" d="M218.3,472.6c0-0.2,0-0.5,0-0.9c0-0.3,0-0.7,0-1.1c0-0.4,0-0.7,0-1c0-0.3,0-0.5,0-0.7h1.7c0,0.5,0,1,0,1.4
			c0,0.4,0,0.7,0.1,0.9h0.1c0.3-0.7,0.9-1.3,1.7-1.8c0.8-0.5,1.7-0.8,2.7-0.8c1,0,1.8,0.2,2.5,0.5c0.6,0.3,1.1,0.7,1.5,1.2
			c0.4,0.5,0.6,1.1,0.8,1.8c0.1,0.7,0.2,1.4,0.2,2.1v7.7h-1.7v-7.6c0-0.5,0-1-0.1-1.5c-0.1-0.5-0.3-0.9-0.5-1.3
			c-0.2-0.4-0.6-0.7-1-0.9c-0.4-0.2-1-0.4-1.6-0.4c-0.6,0-1.2,0.1-1.8,0.3c-0.6,0.2-1,0.5-1.4,1c-0.4,0.4-0.7,1-1,1.7
			c-0.2,0.7-0.4,1.4-0.4,2.3v6.5h-1.7V472.6z"/>
		<path class="st0" d="M245.2,479.6L245.2,479.6c-0.3,0.4-0.6,0.8-1,1.2c-0.4,0.3-0.8,0.6-1.3,0.8c-0.5,0.2-0.9,0.4-1.4,0.5
			c-0.5,0.1-1,0.2-1.5,0.2c-1,0-1.9-0.2-2.7-0.5c-0.8-0.3-1.6-0.8-2.2-1.4c-0.6-0.6-1.1-1.3-1.4-2.2s-0.5-1.7-0.5-2.7
			s0.2-1.9,0.5-2.7c0.3-0.8,0.8-1.6,1.4-2.2c0.6-0.6,1.3-1.1,2.2-1.4s1.8-0.5,2.7-0.5c0.5,0,1,0.1,1.5,0.2c0.5,0.1,1,0.3,1.4,0.5
			c0.5,0.2,0.9,0.5,1.3,0.8c0.4,0.3,0.7,0.7,1,1.2h0.1v-10.5h1.7v21.2h-1.7V479.6z M245.4,475.4c0-0.7-0.1-1.4-0.4-2.1
			c-0.3-0.6-0.7-1.2-1.1-1.7c-0.5-0.5-1.1-0.9-1.7-1.1c-0.7-0.3-1.4-0.4-2.1-0.4c-0.8,0-1.5,0.1-2.1,0.4c-0.6,0.3-1.2,0.7-1.6,1.1
			c-0.4,0.5-0.8,1-1,1.7c-0.2,0.6-0.4,1.3-0.4,2.1c0,0.7,0.1,1.4,0.4,2.1c0.2,0.6,0.6,1.2,1,1.7c0.4,0.5,1,0.9,1.6,1.1
			c0.6,0.3,1.3,0.4,2.1,0.4c0.8,0,1.5-0.1,2.1-0.4c0.7-0.3,1.2-0.7,1.7-1.1c0.5-0.5,0.9-1,1.1-1.7
			C245.2,476.8,245.4,476.1,245.4,475.4z"/>
		<path class="st0" d="M250.3,475.4c0-1,0.2-1.9,0.5-2.7c0.3-0.8,0.8-1.6,1.4-2.2c0.6-0.6,1.3-1.1,2.2-1.4s1.8-0.5,2.7-0.5
			s1.9,0.2,2.7,0.5c0.8,0.3,1.6,0.8,2.2,1.4c0.6,0.6,1.1,1.3,1.4,2.2c0.3,0.8,0.5,1.7,0.5,2.7s-0.2,1.9-0.5,2.7
			c-0.3,0.8-0.8,1.6-1.4,2.2c-0.6,0.6-1.3,1.1-2.2,1.4c-0.8,0.3-1.7,0.5-2.7,0.5s-1.9-0.2-2.7-0.5c-0.8-0.3-1.6-0.8-2.2-1.4
			c-0.6-0.6-1.1-1.3-1.4-2.2S250.3,476.4,250.3,475.4z M252,475.4c0,0.7,0.1,1.4,0.4,2.1c0.2,0.6,0.6,1.2,1,1.7
			c0.4,0.5,1,0.9,1.6,1.1c0.6,0.3,1.3,0.4,2.1,0.4c0.8,0,1.5-0.1,2.1-0.4c0.6-0.3,1.2-0.7,1.6-1.1c0.4-0.5,0.8-1,1-1.7
			c0.2-0.6,0.3-1.3,0.3-2.1c0-0.7-0.1-1.4-0.3-2.1c-0.2-0.6-0.6-1.2-1-1.7c-0.4-0.5-1-0.9-1.6-1.1c-0.6-0.3-1.3-0.4-2.1-0.4
			c-0.8,0-1.5,0.1-2.1,0.4c-0.6,0.3-1.2,0.7-1.6,1.1c-0.4,0.5-0.8,1-1,1.7C252.1,474,252,474.7,252,475.4z"/>
		<path class="st0" d="M275.4,462h12.1v1.7h-10.3v7.1h9.6v1.7h-9.6v7.7H288v1.7h-12.6V462z"/>
		<path class="st0" d="M294.9,474.9l-4.6-5.9h2.2l3.6,4.9l3.6-4.9h2.1l-4.6,5.9l5.5,7h-2.2l-4.5-5.9l-4.4,5.9h-2L294.9,474.9z"/>
		<path class="st0" d="M304.7,468.9h1.7v2.3h0.1c0.3-0.4,0.6-0.8,1-1.2c0.4-0.3,0.8-0.6,1.3-0.8s0.9-0.4,1.4-0.5
			c0.5-0.1,1-0.2,1.5-0.2c1,0,1.9,0.2,2.7,0.5s1.6,0.8,2.2,1.4c0.6,0.6,1.1,1.3,1.4,2.2c0.3,0.8,0.5,1.7,0.5,2.7s-0.2,1.9-0.5,2.7
			s-0.8,1.6-1.4,2.2c-0.6,0.6-1.3,1.1-2.2,1.4c-0.8,0.3-1.7,0.5-2.7,0.5c-0.5,0-1-0.1-1.5-0.2c-0.5-0.1-1-0.3-1.4-0.5
			s-0.9-0.5-1.3-0.8c-0.4-0.3-0.7-0.7-1-1.2h-0.1v8.7h-1.7V468.9z M306.2,475.4c0,0.7,0.1,1.4,0.4,2.1c0.3,0.6,0.7,1.2,1.1,1.7
			c0.5,0.5,1.1,0.9,1.7,1.1s1.4,0.4,2.1,0.4c0.8,0,1.5-0.1,2.1-0.4c0.6-0.3,1.2-0.7,1.6-1.1c0.4-0.5,0.8-1,1-1.7
			c0.2-0.6,0.4-1.3,0.4-2.1c0-0.7-0.1-1.4-0.4-2.1c-0.2-0.6-0.6-1.2-1-1.7c-0.4-0.5-1-0.9-1.6-1.1c-0.6-0.3-1.3-0.4-2.1-0.4
			c-0.8,0-1.5,0.1-2.1,0.4s-1.2,0.7-1.7,1.1c-0.5,0.5-0.9,1-1.1,1.7C306.3,474,306.2,474.7,306.2,475.4z"/>
		<path class="st0" d="M333.6,479.5c-0.7,1-1.5,1.7-2.4,2.1s-2,0.6-3.2,0.6c-1,0-1.9-0.2-2.7-0.5c-0.8-0.3-1.5-0.8-2.1-1.4
			c-0.6-0.6-1-1.3-1.3-2.2s-0.5-1.8-0.5-2.8c0-1,0.2-1.9,0.5-2.7c0.3-0.8,0.8-1.5,1.3-2.1c0.6-0.6,1.3-1.1,2-1.4
			c0.8-0.3,1.7-0.5,2.6-0.5c1,0,1.9,0.2,2.6,0.5c0.8,0.3,1.4,0.8,1.9,1.4c0.5,0.6,0.9,1.2,1.2,1.9c0.3,0.7,0.4,1.5,0.4,2.2v1.2
			h-10.9c0,0.4,0.1,0.8,0.2,1.4c0.1,0.6,0.4,1.1,0.8,1.6c0.4,0.5,0.9,1,1.5,1.3c0.6,0.4,1.4,0.6,2.4,0.6c0.9,0,1.7-0.2,2.5-0.6
			c0.8-0.4,1.4-1,1.9-1.7L333.6,479.5z M332.3,474.3c0-0.6-0.1-1.1-0.4-1.6c-0.2-0.5-0.6-0.9-1-1.3c-0.4-0.4-0.9-0.7-1.4-0.9
			c-0.6-0.2-1.1-0.3-1.8-0.3c-0.9,0-1.7,0.2-2.3,0.6c-0.6,0.4-1.1,0.8-1.4,1.3c-0.4,0.5-0.6,1-0.8,1.4c-0.1,0.5-0.2,0.8-0.2,0.9
			H332.3z"/>
		<path class="st0" d="M337.8,472.6c0-0.2,0-0.5,0-0.9c0-0.3,0-0.7,0-1.1c0-0.4,0-0.7,0-1c0-0.3,0-0.5,0-0.7h1.7c0,0.5,0,1,0,1.4
			c0,0.4,0,0.7,0.1,0.9c0.4-0.8,1-1.4,1.7-1.9c0.7-0.5,1.5-0.7,2.5-0.7c0.2,0,0.3,0,0.5,0c0.2,0,0.3,0.1,0.5,0.1l-0.2,1.7
			c-0.2-0.1-0.4-0.1-0.6-0.1c-0.7,0-1.4,0.1-1.9,0.4c-0.5,0.2-1,0.6-1.3,1c-0.3,0.4-0.6,0.9-0.8,1.4c-0.2,0.6-0.3,1.1-0.3,1.8v7.1
			h-1.7V472.6z"/>
		<path class="st0" d="M347,463.8c0-0.4,0.1-0.7,0.4-0.9c0.2-0.2,0.5-0.4,0.9-0.4c0.4,0,0.7,0.1,0.9,0.4c0.2,0.2,0.4,0.5,0.4,0.9
			c0,0.4-0.1,0.7-0.4,0.9c-0.2,0.2-0.5,0.4-0.9,0.4c-0.4,0-0.7-0.1-0.9-0.4C347.1,464.5,347,464.2,347,463.8z M347.4,468.9h1.7v12.9
			h-1.7V468.9z"/>
		<path class="st0" d="M365.3,479.5c-0.7,1-1.5,1.7-2.4,2.1s-2,0.6-3.2,0.6c-1,0-1.9-0.2-2.7-0.5c-0.8-0.3-1.5-0.8-2.1-1.4
			c-0.6-0.6-1-1.3-1.3-2.2s-0.5-1.8-0.5-2.8c0-1,0.2-1.9,0.5-2.7c0.3-0.8,0.8-1.5,1.3-2.1c0.6-0.6,1.3-1.1,2-1.4
			c0.8-0.3,1.7-0.5,2.6-0.5c1,0,1.9,0.2,2.6,0.5c0.8,0.3,1.4,0.8,1.9,1.4c0.5,0.6,0.9,1.2,1.2,1.9c0.3,0.7,0.4,1.5,0.4,2.2v1.2
			h-10.9c0,0.4,0.1,0.8,0.2,1.4c0.1,0.6,0.4,1.1,0.8,1.6c0.4,0.5,0.9,1,1.5,1.3c0.6,0.4,1.4,0.6,2.4,0.6c0.9,0,1.7-0.2,2.5-0.6
			c0.8-0.4,1.4-1,1.9-1.7L365.3,479.5z M364,474.3c0-0.6-0.1-1.1-0.4-1.6c-0.2-0.5-0.6-0.9-1-1.3c-0.4-0.4-0.9-0.7-1.4-0.9
			c-0.6-0.2-1.1-0.3-1.8-0.3c-0.9,0-1.7,0.2-2.3,0.6c-0.6,0.4-1.1,0.8-1.4,1.3c-0.4,0.5-0.6,1-0.8,1.4c-0.1,0.5-0.2,0.8-0.2,0.9H364
			z"/>
		<path class="st0" d="M369.4,472.6c0-0.2,0-0.5,0-0.9c0-0.3,0-0.7,0-1.1c0-0.4,0-0.7,0-1c0-0.3,0-0.5,0-0.7h1.7c0,0.5,0,1,0,1.4
			c0,0.4,0,0.7,0.1,0.9h0.1c0.3-0.7,0.9-1.3,1.7-1.8c0.8-0.5,1.7-0.8,2.7-0.8c1,0,1.8,0.2,2.5,0.5c0.6,0.3,1.1,0.7,1.5,1.2
			c0.4,0.5,0.6,1.1,0.8,1.8c0.1,0.7,0.2,1.4,0.2,2.1v7.7h-1.7v-7.6c0-0.5,0-1-0.1-1.5s-0.3-0.9-0.5-1.3c-0.2-0.4-0.6-0.7-1-0.9
			c-0.4-0.2-1-0.4-1.6-0.4c-0.6,0-1.2,0.1-1.8,0.3c-0.6,0.2-1,0.5-1.4,1c-0.4,0.4-0.7,1-1,1.7c-0.2,0.7-0.4,1.4-0.4,2.3v6.5h-1.7
			V472.6z"/>
		<path class="st0" d="M395.8,480c-0.6,0.8-1.4,1.3-2.2,1.7c-0.8,0.4-1.7,0.5-2.6,0.5c-1,0-1.9-0.2-2.7-0.5
			c-0.8-0.3-1.6-0.8-2.2-1.4c-0.6-0.6-1.1-1.3-1.4-2.2s-0.5-1.7-0.5-2.7s0.2-1.9,0.5-2.7c0.3-0.8,0.8-1.6,1.4-2.2
			c0.6-0.6,1.3-1.1,2.2-1.4c0.8-0.3,1.8-0.5,2.7-0.5c1,0,1.8,0.2,2.6,0.6c0.8,0.4,1.5,0.9,2.2,1.7l-1.3,1c-0.5-0.5-1-1-1.6-1.3
			c-0.6-0.3-1.2-0.5-1.9-0.5c-0.8,0-1.5,0.1-2.1,0.4c-0.6,0.3-1.2,0.7-1.6,1.1c-0.4,0.5-0.8,1-1,1.7c-0.2,0.6-0.4,1.3-0.4,2.1
			c0,0.7,0.1,1.4,0.4,2.1c0.2,0.6,0.6,1.2,1,1.7c0.4,0.5,1,0.9,1.6,1.1c0.6,0.3,1.3,0.4,2.1,0.4c0.7,0,1.4-0.2,1.9-0.5
			c0.6-0.3,1.1-0.8,1.5-1.3L395.8,480z"/>
		<path class="st0" d="M398.3,463.8c0-0.4,0.1-0.7,0.4-0.9c0.2-0.2,0.5-0.4,0.9-0.4c0.4,0,0.7,0.1,0.9,0.4c0.2,0.2,0.4,0.5,0.4,0.9
			c0,0.4-0.1,0.7-0.4,0.9c-0.2,0.2-0.5,0.4-0.9,0.4c-0.4,0-0.7-0.1-0.9-0.4C398.5,464.5,398.3,464.2,398.3,463.8z M398.7,468.9h1.7
			v12.9h-1.7V468.9z"/>
		<path class="st0" d="M415.3,476.5c0,0.6,0,1.2,0,1.7c0,0.5,0,1,0,1.4c0,0.4,0,0.8,0.1,1.2c0,0.4,0.1,0.7,0.1,1.1h-1.6
			c-0.1-0.6-0.2-1.3-0.2-2.1h-0.1c-0.5,0.8-1.1,1.5-1.8,1.9c-0.7,0.4-1.6,0.6-2.7,0.6c-0.6,0-1.1-0.1-1.7-0.2
			c-0.5-0.1-1-0.4-1.5-0.7c-0.4-0.3-0.8-0.7-1.1-1.2c-0.3-0.5-0.4-1.1-0.4-1.8c0-1,0.3-1.8,0.8-2.4c0.5-0.6,1.1-1,1.9-1.3
			c0.7-0.3,1.5-0.5,2.4-0.6c0.8-0.1,1.6-0.1,2.2-0.1h2v-0.8c0-1.1-0.3-1.9-1-2.4c-0.7-0.5-1.6-0.7-2.6-0.7c-1.5,0-2.8,0.5-4,1.5
			l-1-1.1c0.6-0.6,1.4-1.1,2.3-1.4c0.9-0.3,1.8-0.5,2.6-0.5c1.6,0,2.8,0.4,3.8,1.1c0.9,0.7,1.4,1.9,1.4,3.6V476.5z M411.9,475.4
			c-0.7,0-1.4,0-2.1,0.1c-0.7,0.1-1.3,0.3-1.8,0.5s-1,0.5-1.3,0.9s-0.5,0.8-0.5,1.4c0,0.4,0.1,0.7,0.3,1.1c0.2,0.3,0.4,0.6,0.7,0.8
			c0.3,0.2,0.6,0.3,0.9,0.4c0.3,0.1,0.7,0.2,1.1,0.2c0.9,0,1.6-0.1,2.2-0.4c0.6-0.3,1-0.6,1.4-1c0.3-0.4,0.6-0.9,0.7-1.4
			c0.1-0.5,0.2-1.1,0.2-1.6v-0.9H411.9z"/>
		<path class="st0" d="M419.8,478.6c0.4,0.7,0.9,1.2,1.6,1.6s1.4,0.5,2.2,0.5c0.4,0,0.7-0.1,1.1-0.2c0.4-0.1,0.7-0.3,1-0.5
			c0.3-0.2,0.5-0.5,0.7-0.7c0.2-0.3,0.3-0.6,0.3-1c0-0.6-0.2-1-0.6-1.3c-0.4-0.3-0.9-0.5-1.4-0.7c-0.6-0.2-1.2-0.3-1.8-0.4
			c-0.7-0.1-1.3-0.3-1.9-0.6c-0.6-0.3-1-0.6-1.4-1.1c-0.4-0.4-0.6-1.1-0.6-1.9c0-0.6,0.1-1.2,0.4-1.7c0.3-0.5,0.6-0.9,1-1.2
			c0.4-0.3,0.9-0.5,1.4-0.7c0.5-0.1,1.1-0.2,1.6-0.2c1.1,0,2,0.2,2.8,0.6c0.8,0.4,1.4,1,1.8,1.9l-1.5,0.9c-0.3-0.6-0.7-1.1-1.2-1.4
			c-0.5-0.3-1.1-0.5-1.9-0.5c-0.3,0-0.6,0-0.9,0.1c-0.3,0.1-0.6,0.2-0.9,0.4c-0.3,0.2-0.5,0.4-0.7,0.6c-0.2,0.3-0.3,0.6-0.3,0.9
			c0,0.6,0.2,1,0.6,1.3c0.4,0.3,0.9,0.5,1.4,0.7c0.6,0.2,1.2,0.3,1.9,0.4c0.7,0.1,1.3,0.3,1.9,0.5c0.6,0.3,1,0.6,1.4,1.1
			c0.4,0.5,0.6,1.2,0.6,2c0,0.7-0.1,1.3-0.4,1.8c-0.3,0.5-0.6,0.9-1,1.2c-0.4,0.3-0.9,0.6-1.5,0.8c-0.6,0.2-1.1,0.3-1.8,0.3
			c-1.1,0-2.1-0.2-3.1-0.6c-0.9-0.4-1.6-1.1-2.1-2L419.8,478.6z"/>
	</g>
</g>
</svg>
